<ttFont>
<head>
    <!-- Most of this table will be recalculated by the compiler -->
    <tableVersion value="1.0"/>
    <fontRevision value="0.0"/>
    <checkSumAdjustment value="0xcb03b00d"/>
    <magicNumber value="0x5f0f3cf5"/>
    <flags value="00000000 00000011"/>
    <unitsPerEm value="2000"/>
    <created value="Fri Aug  4 18:57:14 2017"/>
    <modified value="Fri Aug  4 18:57:21 2017"/>
    <xMin value="-40"/>
    <yMin value="-540"/>
    <xMax value="2152"/>
    <yMax value="1690"/>
    <macStyle value="00000000 00000000"/>
    <lowestRecPPEM value="6"/>
    <fontDirectionHint value="2"/>
    <indexToLocFormat value="0"/>
    <glyphDataFormat value="0"/>
  </head>
    <TTGlyph name=".notdef" xMin="100" yMin="-500" xMax="900" yMax="1500">
      <contour>
        <pt x="100" y="-500" on="1"/>
        <pt x="900" y="-500" on="1"/>
        <pt x="900" y="1500" on="1"/>
        <pt x="100" y="1500" on="1"/>
      </contour>
      <contour>
        <pt x="200" y="-400" on="1"/>
        <pt x="200" y="1400" on="1"/>
        <pt x="800" y="1400" on="1"/>
        <pt x="800" y="-400" on="1"/>
      </contour>
    </TTGlyph>
    <TTGlyph name="A" xMin="-25" yMin="0" xMax="1531" yMax="1508">
      <contour>
        <pt x="-25" y="0" on="1"/>
        <pt x="491" y="0" on="1"/>
        <pt x="491" y="100" on="1"/>
        <pt x="314" y="130" on="1"/>
        <pt x="438" y="503" on="1"/>
        <pt x="725" y="1244" on="1"/>
        <pt x="1027" y="498" on="1"/>
        <pt x="1156" y="131" on="1"/>
        <pt x="977" y="100" on="1"/>
        <pt x="977" y="0" on="1"/>
        <pt x="1531" y="0" on="1"/>
        <pt x="1531" y="100" on="1"/>
        <pt x="1353" y="135" on="1"/>
        <pt x="1166" y="599" on="1"/>
        <pt x="811" y="1508" on="1"/>
        <pt x="689" y="1508" on="1"/>
        <pt x="325" y="540" on="1"/>
        <pt x="163" y="135" on="1"/>
        <pt x="-25" y="100" on="1"/>
      </contour>
      <contour>
        <pt x="358" y="448" on="1"/>
        <pt x="1126" y="448" on="1"/>
        <pt x="1095" y="568" on="1"/>
        <pt x="754" y="557" on="1"/>
        <pt x="400" y="567" on="1"/>
      </contour>
    </TTGlyph>
    <TTGlyph name="B" xMin="82" yMin="0" xMax="1193" yMax="1500">
      <contour>
        <pt x="82" y="0" on="1"/>
        <pt x="701" y="0" on="1"/>
        <pt x="932" y="0" on="0"/>
        <pt x="1193" y="246" on="0"/>
        <pt x="1193" y="433" on="1"/>
        <pt x="1193" y="604" on="0"/>
        <pt x="999" y="794" on="0"/>
        <pt x="862" y="823" on="1"/>
        <pt x="862" y="830" on="1"/>
        <pt x="974" y="854" on="0"/>
        <pt x="1101" y="1037" on="0"/>
        <pt x="1101" y="1172" on="1"/>
        <pt x="1101" y="1315" on="0"/>
        <pt x="897" y="1500" on="0"/>
        <pt x="685" y="1500" on="1"/>
        <pt x="82" y="1500" on="1"/>
        <pt x="82" y="1386" on="1"/>
        <pt x="290" y="1352" on="1"/>
        <pt x="292" y="784" on="1"/>
        <pt x="290" y="136" on="1"/>
        <pt x="82" y="100" on="1"/>
      </contour>
      <contour>
        <pt x="470" y="135" on="1"/>
        <pt x="468" y="724" on="1"/>
        <pt x="468" y="738" on="1"/>
        <pt x="711" y="738" on="1"/>
        <pt x="854" y="738" on="0"/>
        <pt x="1007" y="584" on="0"/>
        <pt x="1007" y="440" on="1"/>
        <pt x="1007" y="271" on="0"/>
        <pt x="831" y="115" on="0"/>
        <pt x="645" y="115" on="1"/>
        <pt x="513" y="115" on="1"/>
      </contour>
      <contour>
        <pt x="468" y="875" on="1"/>
        <pt x="472" y="1352" on="1"/>
        <pt x="501" y="1370" on="1"/>
        <pt x="644" y="1370" on="1"/>
        <pt x="780" y="1370" on="0"/>
        <pt x="921" y="1255" on="0"/>
        <pt x="921" y="1129" on="1"/>
        <pt x="921" y="991" on="0"/>
        <pt x="776" y="852" on="0"/>
        <pt x="634" y="852" on="1"/>
        <pt x="467" y="852" on="1"/>
      </contour>
    </TTGlyph>
    <TTGlyph name="C" xMin="80" yMin="-30" xMax="1440" yMax="1520">
      <contour>
        <pt x="80" y="746" on="1"/>
        <pt x="80" y="389" on="0"/>
        <pt x="522" y="-30" on="0"/>
        <pt x="852" y="-30" on="1"/>
        <pt x="1027" y="-30" on="0"/>
        <pt x="1336" y="110" on="0"/>
        <pt x="1440" y="245" on="1"/>
        <pt x="1344" y="328" on="1"/>
        <pt x="1278" y="235" on="0"/>
        <pt x="1040" y="111" on="0"/>
        <pt x="869" y="111" on="1"/>
        <pt x="609" y="111" on="0"/>
        <pt x="273" y="457" on="0"/>
        <pt x="271" y="775" on="1"/>
        <pt x="269" y="1061" on="0"/>
        <pt x="581" y="1389" on="0"/>
        <pt x="854" y="1389" on="1"/>
        <pt x="957" y="1389" on="0"/>
        <pt x="1155" y="1330" on="0"/>
        <pt x="1224" y="1275" on="1"/>
        <pt x="1334" y="1388" on="1"/>
        <pt x="1242" y="1452" on="0"/>
        <pt x="988" y="1520" on="0"/>
        <pt x="852" y="1520" on="1"/>
        <pt x="515" y="1520" on="0"/>
        <pt x="80" y="1068" on="0"/>
      </contour>
      <contour>
        <pt x="1167" y="1322" on="1"/>
        <pt x="1227" y="1031" on="1"/>
        <pt x="1341" y="1031" on="1"/>
        <pt x="1341" y="1487" on="1"/>
        <pt x="1247" y="1487" on="1"/>
      </contour>
    </TTGlyph>
    <TTGlyph name="D" xMin="82" yMin="0" xMax="1510" yMax="1500">
      <contour>
        <pt x="82" y="0" on="1"/>
        <pt x="678" y="0" on="1"/>
        <pt x="1075" y="0" on="0"/>
        <pt x="1510" y="410" on="0"/>
        <pt x="1510" y="777" on="1"/>
        <pt x="1510" y="1119" on="0"/>
        <pt x="1074" y="1500" on="0"/>
        <pt x="718" y="1500" on="1"/>
        <pt x="82" y="1500" on="1"/>
        <pt x="82" y="1386" on="1"/>
        <pt x="290" y="1352" on="1"/>
        <pt x="292" y="754" on="1"/>
        <pt x="290" y="135" on="1"/>
        <pt x="82" y="100" on="1"/>
      </contour>
      <contour>
        <pt x="470" y="130" on="1"/>
        <pt x="468" y="754" on="1"/>
        <pt x="470" y="1358" on="1"/>
        <pt x="506" y="1363" on="0"/>
        <pt x="640" y="1375" on="0"/>
        <pt x="690" y="1375" on="1"/>
        <pt x="976" y="1375" on="0"/>
        <pt x="1321" y="1058" on="0"/>
        <pt x="1319" y="761" on="1"/>
        <pt x="1317" y="439" on="0"/>
        <pt x="1015" y="112" on="0"/>
        <pt x="727" y="112" on="1"/>
        <pt x="652" y="112" on="0"/>
        <pt x="504" y="124" on="0"/>
      </contour>
    </TTGlyph>
    <TTGlyph name="E" xMin="82" yMin="0" xMax="1240" yMax="1500">
      <contour>
        <pt x="82" y="0" on="1"/>
        <pt x="1200" y="0" on="1"/>
        <pt x="1240" y="378" on="1"/>
        <pt x="1130" y="378" on="1"/>
        <pt x="1054" y="108" on="1"/>
        <pt x="539" y="108" on="1"/>
        <pt x="469" y="132" on="1"/>
        <pt x="467" y="783" on="1"/>
        <pt x="469" y="1362" on="1"/>
        <pt x="538" y="1382" on="1"/>
        <pt x="991" y="1382" on="1"/>
        <pt x="1026" y="1152" on="1"/>
        <pt x="1136" y="1152" on="1"/>
        <pt x="1136" y="1500" on="1"/>
        <pt x="82" y="1500" on="1"/>
        <pt x="82" y="1386" on="1"/>
        <pt x="290" y="1352" on="1"/>
        <pt x="292" y="783" on="1"/>
        <pt x="290" y="137" on="1"/>
        <pt x="82" y="100" on="1"/>
      </contour>
      <contour>
        <pt x="381" y="738" on="1"/>
        <pt x="845" y="728" on="1"/>
        <pt x="880" y="568" on="1"/>
        <pt x="990" y="568" on="1"/>
        <pt x="990" y="1004" on="1"/>
        <pt x="880" y="1004" on="1"/>
        <pt x="845" y="844" on="1"/>
        <pt x="381" y="834" on="1"/>
      </contour>
    </TTGlyph>
    <TTGlyph name="F" xMin="82" yMin="0" xMax="1106" yMax="1500">
      <contour>
        <pt x="82" y="0" on="1"/>
        <pt x="698" y="0" on="1"/>
        <pt x="698" y="100" on="1"/>
        <pt x="470" y="132" on="1"/>
        <pt x="468" y="760" on="1"/>
        <pt x="470" y="1362" on="1"/>
        <pt x="539" y="1382" on="1"/>
        <pt x="961" y="1382" on="1"/>
        <pt x="996" y="1142" on="1"/>
        <pt x="1106" y="1142" on="1"/>
        <pt x="1106" y="1500" on="1"/>
        <pt x="82" y="1500" on="1"/>
        <pt x="82" y="1386" on="1"/>
        <pt x="290" y="1352" on="1"/>
        <pt x="292" y="760" on="1"/>
        <pt x="290" y="137" on="1"/>
        <pt x="82" y="100" on="1"/>
      </contour>
      <contour>
        <pt x="380" y="709" on="1"/>
        <pt x="815" y="702" on="1"/>
        <pt x="850" y="522" on="1"/>
        <pt x="960" y="522" on="1"/>
        <pt x="960" y="988" on="1"/>
        <pt x="850" y="988" on="1"/>
        <pt x="815" y="818" on="1"/>
        <pt x="380" y="811" on="1"/>
      </contour>
    </TTGlyph>
    <TTGlyph name="G" xMin="80" yMin="-30" xMax="1570" yMax="1520">
      <contour>
        <pt x="80" y="744" on="1"/>
        <pt x="80" y="394" on="0"/>
        <pt x="522" y="-30" on="0"/>
        <pt x="871" y="-30" on="1"/>
        <pt x="1066" y="-30" on="0"/>
        <pt x="1363" y="123" on="0"/>
        <pt x="1439" y="219" on="1"/>
        <pt x="1337" y="301" on="1"/>
        <pt x="1267" y="205" on="0"/>
        <pt x="1034" y="95" on="0"/>
        <pt x="887" y="95" on="1"/>
        <pt x="600" y="95" on="0"/>
        <pt x="273" y="475" on="0"/>
        <pt x="271" y="768" on="1"/>
        <pt x="269" y="1057" on="0"/>
        <pt x="581" y="1384" on="0"/>
        <pt x="854" y="1384" on="1"/>
        <pt x="957" y="1384" on="0"/>
        <pt x="1164" y="1326" on="0"/>
        <pt x="1233" y="1271" on="1"/>
        <pt x="1334" y="1388" on="1"/>
        <pt x="1242" y="1452" on="0"/>
        <pt x="988" y="1520" on="0"/>
        <pt x="852" y="1520" on="1"/>
        <pt x="515" y="1520" on="0"/>
        <pt x="80" y="1068" on="0"/>
      </contour>
      <contour>
        <pt x="1069" y="558" on="1"/>
        <pt x="1268" y="523" on="1"/>
        <pt x="1268" y="174" on="1"/>
        <pt x="1439" y="219" on="1"/>
        <pt x="1439" y="523" on="1"/>
        <pt x="1570" y="558" on="1"/>
        <pt x="1570" y="658" on="1"/>
        <pt x="1069" y="658" on="1"/>
      </contour>
      <contour>
        <pt x="1167" y="1325" on="1"/>
        <pt x="1227" y="1041" on="1"/>
        <pt x="1341" y="1041" on="1"/>
        <pt x="1341" y="1487" on="1"/>
        <pt x="1237" y="1487" on="1"/>
      </contour>
    </TTGlyph>
    <TTGlyph name="H" xMin="82" yMin="0" xMax="1658" yMax="1500">
      <contour>
        <pt x="82" y="0" on="1"/>
        <pt x="678" y="0" on="1"/>
        <pt x="678" y="100" on="1"/>
        <pt x="470" y="135" on="1"/>
        <pt x="468" y="754" on="1"/>
        <pt x="470" y="1352" on="1"/>
        <pt x="678" y="1386" on="1"/>
        <pt x="678" y="1500" on="1"/>
        <pt x="82" y="1500" on="1"/>
        <pt x="82" y="1386" on="1"/>
        <pt x="290" y="1352" on="1"/>
        <pt x="292" y="754" on="1"/>
        <pt x="290" y="135" on="1"/>
        <pt x="82" y="100" on="1"/>
      </contour>
      <contour>
        <pt x="380" y="716" on="1"/>
        <pt x="870" y="716" on="1"/>
        <pt x="1359" y="716" on="1"/>
        <pt x="1359" y="848" on="1"/>
        <pt x="870" y="840" on="1"/>
        <pt x="380" y="848" on="1"/>
      </contour>
      <contour>
        <pt x="1062" y="0" on="1"/>
        <pt x="1658" y="0" on="1"/>
        <pt x="1658" y="100" on="1"/>
        <pt x="1450" y="135" on="1"/>
        <pt x="1448" y="754" on="1"/>
        <pt x="1450" y="1352" on="1"/>
        <pt x="1658" y="1386" on="1"/>
        <pt x="1658" y="1500" on="1"/>
        <pt x="1062" y="1500" on="1"/>
        <pt x="1062" y="1386" on="1"/>
        <pt x="1270" y="1352" on="1"/>
        <pt x="1272" y="754" on="1"/>
        <pt x="1270" y="135" on="1"/>
        <pt x="1062" y="100" on="1"/>
      </contour>
    </TTGlyph>
    <TTGlyph name="I" xMin="82" yMin="0" xMax="698" yMax="1500">
      <contour>
        <pt x="82" y="0" on="1"/>
        <pt x="698" y="0" on="1"/>
        <pt x="698" y="100" on="1"/>
        <pt x="480" y="136" on="1"/>
        <pt x="478" y="754" on="1"/>
        <pt x="480" y="1352" on="1"/>
        <pt x="698" y="1386" on="1"/>
        <pt x="698" y="1500" on="1"/>
        <pt x="82" y="1500" on="1"/>
        <pt x="82" y="1386" on="1"/>
        <pt x="300" y="1352" on="1"/>
        <pt x="302" y="754" on="1"/>
        <pt x="300" y="135" on="1"/>
        <pt x="82" y="100" on="1"/>
      </contour>
    </TTGlyph>
    <TTGlyph name="J" xMin="16" yMin="-15" xMax="660" yMax="1500">
      <contour>
        <pt x="16" y="0" on="1"/>
        <pt x="53" y="-8" on="0"/>
        <pt x="139" y="-15" on="0"/>
        <pt x="190" y="-15" on="1"/>
        <pt x="307" y="-15" on="0"/>
        <pt x="472" y="207" on="0"/>
        <pt x="470" y="449" on="1"/>
        <pt x="468" y="754" on="1"/>
        <pt x="470" y="1352" on="1"/>
        <pt x="660" y="1386" on="1"/>
        <pt x="660" y="1500" on="1"/>
        <pt x="52" y="1500" on="1"/>
        <pt x="52" y="1386" on="1"/>
        <pt x="290" y="1352" on="1"/>
        <pt x="292" y="754" on="1"/>
        <pt x="294" y="357" on="1"/>
        <pt x="295" y="215" on="0"/>
        <pt x="193" y="100" on="0"/>
        <pt x="87" y="100" on="1"/>
        <pt x="16" y="100" on="1"/>
      </contour>
    </TTGlyph>
    <TTGlyph name="K" xMin="82" yMin="0" xMax="1476" yMax="1500">
      <contour>
        <pt x="82" y="0" on="1"/>
        <pt x="678" y="0" on="1"/>
        <pt x="678" y="100" on="1"/>
        <pt x="470" y="135" on="1"/>
        <pt x="468" y="754" on="1"/>
        <pt x="470" y="1352" on="1"/>
        <pt x="678" y="1386" on="1"/>
        <pt x="678" y="1500" on="1"/>
        <pt x="82" y="1500" on="1"/>
        <pt x="82" y="1386" on="1"/>
        <pt x="290" y="1352" on="1"/>
        <pt x="292" y="754" on="1"/>
        <pt x="290" y="135" on="1"/>
        <pt x="82" y="100" on="1"/>
      </contour>
      <contour>
        <pt x="380" y="481" on="1"/>
        <pt x="1212" y="1338" on="1"/>
        <pt x="1390" y="1386" on="1"/>
        <pt x="1390" y="1500" on="1"/>
        <pt x="894" y="1500" on="1"/>
        <pt x="894" y="1386" on="1"/>
        <pt x="1041" y="1338" on="1"/>
        <pt x="380" y="634" on="1"/>
      </contour>
      <contour>
        <pt x="624" y="811" on="1"/>
        <pt x="1111" y="135" on="1"/>
        <pt x="943" y="100" on="1"/>
        <pt x="943" y="0" on="1"/>
        <pt x="1476" y="0" on="1"/>
        <pt x="1476" y="100" on="1"/>
        <pt x="1319" y="135" on="1"/>
        <pt x="737" y="934" on="1"/>
      </contour>
    </TTGlyph>
    <TTGlyph name="L" xMin="82" yMin="0" xMax="1264" yMax="1500">
      <contour>
        <pt x="82" y="0" on="1"/>
        <pt x="1213" y="0" on="1"/>
        <pt x="1264" y="418" on="1"/>
        <pt x="1142" y="418" on="1"/>
        <pt x="1056" y="108" on="1"/>
        <pt x="510" y="108" on="1"/>
        <pt x="470" y="135" on="1"/>
        <pt x="468" y="754" on="1"/>
        <pt x="470" y="1352" on="1"/>
        <pt x="712" y="1386" on="1"/>
        <pt x="712" y="1500" on="1"/>
        <pt x="82" y="1500" on="1"/>
        <pt x="82" y="1386" on="1"/>
        <pt x="290" y="1352" on="1"/>
        <pt x="292" y="754" on="1"/>
        <pt x="290" y="132" on="1"/>
        <pt x="82" y="100" on="1"/>
      </contour>
    </TTGlyph>
    <TTGlyph name="M" xMin="82" yMin="-8" xMax="2034" yMax="1500">
      <contour>
        <pt x="82" y="0" on="1"/>
        <pt x="631" y="0" on="1"/>
        <pt x="631" y="100" on="1"/>
        <pt x="413" y="135" on="1"/>
        <pt x="411" y="754" on="1"/>
        <pt x="413" y="1334" on="1"/>
        <pt x="665" y="741" on="1"/>
        <pt x="965" y="-8" on="1"/>
        <pt x="1087" y="-8" on="1"/>
        <pt x="1395" y="750" on="1"/>
        <pt x="1646" y="1329" on="1"/>
        <pt x="1648" y="754" on="1"/>
        <pt x="1646" y="135" on="1"/>
        <pt x="1408" y="100" on="1"/>
        <pt x="1408" y="0" on="1"/>
        <pt x="2034" y="0" on="1"/>
        <pt x="2034" y="100" on="1"/>
        <pt x="1826" y="135" on="1"/>
        <pt x="1824" y="754" on="1"/>
        <pt x="1826" y="1352" on="1"/>
        <pt x="2034" y="1386" on="1"/>
        <pt x="2034" y="1500" on="1"/>
        <pt x="1560" y="1500" on="1"/>
        <pt x="1278" y="803" on="1"/>
        <pt x="1051" y="256" on="1"/>
        <pt x="821" y="810" on="1"/>
        <pt x="544" y="1500" on="1"/>
        <pt x="82" y="1500" on="1"/>
        <pt x="82" y="1386" on="1"/>
        <pt x="290" y="1352" on="1"/>
        <pt x="292" y="754" on="1"/>
        <pt x="290" y="135" on="1"/>
        <pt x="82" y="100" on="1"/>
      </contour>
    </TTGlyph>
    <TTGlyph name="N" xMin="82" yMin="0" xMax="1538" yMax="1500">
      <contour>
        <pt x="82" y="0" on="1"/>
        <pt x="628" y="0" on="1"/>
        <pt x="628" y="100" on="1"/>
        <pt x="410" y="135" on="1"/>
        <pt x="408" y="754" on="1"/>
        <pt x="410" y="1312" on="1"/>
        <pt x="752" y="747" on="1"/>
        <pt x="1202" y="0" on="1"/>
        <pt x="1324" y="0" on="1"/>
        <pt x="1328" y="754" on="1"/>
        <pt x="1330" y="1352" on="1"/>
        <pt x="1538" y="1386" on="1"/>
        <pt x="1538" y="1500" on="1"/>
        <pt x="982" y="1500" on="1"/>
        <pt x="982" y="1386" on="1"/>
        <pt x="1210" y="1352" on="1"/>
        <pt x="1212" y="754" on="1"/>
        <pt x="1210" y="325" on="1"/>
        <pt x="895" y="825" on="1"/>
        <pt x="508" y="1500" on="1"/>
        <pt x="82" y="1500" on="1"/>
        <pt x="82" y="1386" on="1"/>
        <pt x="290" y="1352" on="1"/>
        <pt x="292" y="754" on="1"/>
        <pt x="290" y="135" on="1"/>
        <pt x="82" y="100" on="1"/>
      </contour>
    </TTGlyph>
    <TTGlyph name="O" xMin="80" yMin="-31" xMax="1584" yMax="1520">
      <contour>
        <pt x="80" y="737" on="1"/>
        <pt x="80" y="396" on="0"/>
        <pt x="507" y="-31" on="0"/>
        <pt x="836" y="-31" on="1"/>
        <pt x="1173" y="-31" on="0"/>
        <pt x="1584" y="423" on="0"/>
        <pt x="1584" y="752" on="1"/>
        <pt x="1584" y="1097" on="0"/>
        <pt x="1169" y="1520" on="0"/>
        <pt x="832" y="1520" on="1"/>
        <pt x="495" y="1520" on="0"/>
        <pt x="80" y="1068" on="0"/>
      </contour>
      <contour>
        <pt x="271" y="771" on="1"/>
        <pt x="271" y="1053" on="0"/>
        <pt x="561" y="1380" on="0"/>
        <pt x="834" y="1380" on="1"/>
        <pt x="1087" y="1380" on="0"/>
        <pt x="1393" y="1020" on="0"/>
        <pt x="1393" y="745" on="1"/>
        <pt x="1393" y="436" on="0"/>
        <pt x="1107" y="101" on="0"/>
        <pt x="834" y="101" on="1"/>
        <pt x="584" y="101" on="0"/>
        <pt x="271" y="478" on="0"/>
      </contour>
    </TTGlyph>
    <TTGlyph name="P" xMin="82" yMin="0" xMax="1218" yMax="1500">
      <contour>
        <pt x="82" y="0" on="1"/>
        <pt x="698" y="0" on="1"/>
        <pt x="698" y="100" on="1"/>
        <pt x="470" y="132" on="1"/>
        <pt x="468" y="764" on="1"/>
        <pt x="471" y="1360" on="1"/>
        <pt x="505" y="1382" on="1"/>
        <pt x="693" y="1382" on="1"/>
        <pt x="853" y="1382" on="0"/>
        <pt x="1023" y="1227" on="0"/>
        <pt x="1023" y="1072" on="1"/>
        <pt x="1023" y="903" on="0"/>
        <pt x="844" y="712" on="0"/>
        <pt x="673" y="712" on="1"/>
        <pt x="571" y="712" on="0"/>
        <pt x="456" y="721" on="0"/>
        <pt x="397" y="734" on="1"/>
        <pt x="388" y="628" on="1"/>
        <pt x="435" y="620" on="0"/>
        <pt x="604" y="599" on="0"/>
        <pt x="713" y="599" on="1"/>
        <pt x="953" y="599" on="0"/>
        <pt x="1218" y="866" on="0"/>
        <pt x="1218" y="1072" on="1"/>
        <pt x="1218" y="1284" on="0"/>
        <pt x="968" y="1500" on="0"/>
        <pt x="729" y="1500" on="1"/>
        <pt x="82" y="1500" on="1"/>
        <pt x="82" y="1386" on="1"/>
        <pt x="290" y="1352" on="1"/>
        <pt x="292" y="754" on="1"/>
        <pt x="290" y="137" on="1"/>
        <pt x="82" y="100" on="1"/>
      </contour>
    </TTGlyph>
    <TTGlyph name="Q" xMin="80" yMin="-429" xMax="1584" yMax="1520">
      <contour>
        <pt x="80" y="746" on="1"/>
        <pt x="80" y="419" on="0"/>
        <pt x="502" y="-20" on="0"/>
        <pt x="832" y="-20" on="1"/>
        <pt x="1134" y="-20" on="0"/>
        <pt x="1584" y="404" on="0"/>
        <pt x="1584" y="754" on="1"/>
        <pt x="1584" y="1097" on="0"/>
        <pt x="1151" y="1520" on="0"/>
        <pt x="832" y="1520" on="1"/>
        <pt x="513" y="1520" on="0"/>
        <pt x="80" y="1068" on="0"/>
      </contour>
      <contour>
        <pt x="271" y="772" on="1"/>
        <pt x="269" y="1056" on="0"/>
        <pt x="561" y="1380" on="0"/>
        <pt x="834" y="1380" on="1"/>
        <pt x="1087" y="1380" on="0"/>
        <pt x="1395" y="1023" on="0"/>
        <pt x="1393" y="747" on="1"/>
        <pt x="1391" y="453" on="0"/>
        <pt x="1099" y="96" on="0"/>
        <pt x="830" y="96" on="1"/>
        <pt x="580" y="96" on="0"/>
        <pt x="273" y="486" on="0"/>
      </contour>
      <contour>
        <pt x="238" y="-224" on="1"/>
        <pt x="306" y="-288" on="1"/>
        <pt x="363" y="-236" on="0"/>
        <pt x="479" y="-194" on="0"/>
        <pt x="540" y="-194" on="1"/>
        <pt x="1239" y="-429" on="1"/>
        <pt x="1371" y="-429" on="0"/>
        <pt x="1515" y="-288" on="0"/>
        <pt x="1565" y="-184" on="1"/>
        <pt x="1475" y="-132" on="1"/>
        <pt x="1442" y="-186" on="0"/>
        <pt x="1350" y="-274" on="0"/>
        <pt x="1290" y="-274" on="1"/>
        <pt x="568" y="-39" on="1"/>
        <pt x="480" y="-39" on="0"/>
        <pt x="300" y="-131" on="0"/>
      </contour>
      <contour>
        <pt x="482" y="-122" on="1"/>
        <pt x="592" y="-169" on="1"/>
        <pt x="705" y="-5" on="1"/>
        <pt x="717" y="9" on="0"/>
        <pt x="727" y="24" on="0"/>
        <pt x="735" y="38" on="1"/>
        <pt x="704" y="57" on="0"/>
        <pt x="667" y="75" on="0"/>
        <pt x="630" y="84" on="1"/>
        <pt x="616" y="72" on="0"/>
        <pt x="606" y="58" on="0"/>
        <pt x="600" y="42" on="1"/>
      </contour>
    </TTGlyph>
    <TTGlyph name="R" xMin="82" yMin="0" xMax="1426" yMax="1500">
      <contour>
        <pt x="82" y="0" on="1"/>
        <pt x="686" y="0" on="1"/>
        <pt x="686" y="100" on="1"/>
        <pt x="470" y="136" on="1"/>
        <pt x="468" y="754" on="1"/>
        <pt x="472" y="1364" on="1"/>
        <pt x="501" y="1382" on="1"/>
        <pt x="684" y="1382" on="1"/>
        <pt x="821" y="1382" on="0"/>
        <pt x="944" y="1253" on="0"/>
        <pt x="944" y="1137" on="1"/>
        <pt x="944" y="1005" on="0"/>
        <pt x="802" y="845" on="0"/>
        <pt x="646" y="845" on="1"/>
        <pt x="495" y="845" on="1"/>
        <pt x="380" y="845" on="1"/>
        <pt x="380" y="750" on="1"/>
        <pt x="437" y="745" on="0"/>
        <pt x="655" y="736" on="0"/>
        <pt x="723" y="736" on="1"/>
        <pt x="891" y="736" on="0"/>
        <pt x="1141" y="966" on="0"/>
        <pt x="1141" y="1149" on="1"/>
        <pt x="1141" y="1315" on="0"/>
        <pt x="937" y="1500" on="0"/>
        <pt x="725" y="1500" on="1"/>
        <pt x="82" y="1500" on="1"/>
        <pt x="82" y="1386" on="1"/>
        <pt x="290" y="1352" on="1"/>
        <pt x="292" y="754" on="1"/>
        <pt x="290" y="136" on="1"/>
        <pt x="82" y="100" on="1"/>
      </contour>
      <contour>
        <pt x="640" y="750" on="1"/>
        <pt x="1094" y="75" on="1"/>
        <pt x="1171" y="0" on="1"/>
        <pt x="1426" y="0" on="1"/>
        <pt x="1426" y="100" on="1"/>
        <pt x="1369" y="101" on="0"/>
        <pt x="1224" y="173" on="0"/>
        <pt x="1129" y="315" on="1"/>
        <pt x="773" y="848" on="1"/>
      </contour>
    </TTGlyph>
    <TTGlyph name="S" xMin="52" yMin="-23" xMax="1060" yMax="1520">
      <contour>
        <pt x="52" y="0" on="1"/>
        <pt x="156" y="0" on="1"/>
        <pt x="228" y="172" on="1"/>
        <pt x="168" y="484" on="1"/>
        <pt x="52" y="484" on="1"/>
      </contour>
      <contour>
        <pt x="90" y="1134" on="1"/>
        <pt x="90" y="975" on="0"/>
        <pt x="275" y="793" on="0"/>
        <pt x="492" y="725" on="1"/>
        <pt x="690" y="663" on="0"/>
        <pt x="900" y="511" on="0"/>
        <pt x="900" y="370" on="1"/>
        <pt x="900" y="254" on="0"/>
        <pt x="737" y="102" on="0"/>
        <pt x="607" y="102" on="1"/>
        <pt x="455" y="102" on="0"/>
        <pt x="222" y="229" on="0"/>
        <pt x="194" y="326" on="1"/>
        <pt x="85" y="255" on="1"/>
        <pt x="178" y="120" on="0"/>
        <pt x="411" y="-23" on="0"/>
        <pt x="597" y="-23" on="1"/>
        <pt x="803" y="-23" on="0"/>
        <pt x="1060" y="231" on="0"/>
        <pt x="1060" y="418" on="1"/>
        <pt x="1060" y="602" on="0"/>
        <pt x="799" y="816" on="0"/>
        <pt x="615" y="878" on="1"/>
        <pt x="407" y="948" on="0"/>
        <pt x="250" y="1082" on="0"/>
        <pt x="250" y="1172" on="1"/>
        <pt x="250" y="1270" on="0"/>
        <pt x="382" y="1386" on="0"/>
        <pt x="517" y="1386" on="1"/>
        <pt x="632" y="1386" on="0"/>
        <pt x="793" y="1322" on="0"/>
        <pt x="848" y="1279" on="1"/>
        <pt x="924" y="1388" on="1"/>
        <pt x="845" y="1453" on="0"/>
        <pt x="636" y="1520" on="0"/>
        <pt x="513" y="1520" on="1"/>
        <pt x="311" y="1520" on="0"/>
        <pt x="90" y="1297" on="0"/>
      </contour>
      <contour>
        <pt x="797" y="1315" on="1"/>
        <pt x="847" y="1051" on="1"/>
        <pt x="961" y="1051" on="1"/>
        <pt x="961" y="1487" on="1"/>
        <pt x="857" y="1487" on="1"/>
      </contour>
    </TTGlyph>
    <TTGlyph name="T" xMin="40" yMin="0" xMax="1248" yMax="1500">
      <contour>
        <pt x="40" y="1052" on="1"/>
        <pt x="150" y="1052" on="1"/>
        <pt x="185" y="1382" on="1"/>
        <pt x="545" y="1382" on="1"/>
        <pt x="554" y="1362" on="1"/>
        <pt x="556" y="754" on="1"/>
        <pt x="554" y="136" on="1"/>
        <pt x="335" y="100" on="1"/>
        <pt x="335" y="0" on="1"/>
        <pt x="951" y="0" on="1"/>
        <pt x="951" y="100" on="1"/>
        <pt x="734" y="136" on="1"/>
        <pt x="732" y="754" on="1"/>
        <pt x="734" y="1362" on="1"/>
        <pt x="753" y="1382" on="1"/>
        <pt x="1103" y="1382" on="1"/>
        <pt x="1138" y="1052" on="1"/>
        <pt x="1248" y="1052" on="1"/>
        <pt x="1248" y="1500" on="1"/>
        <pt x="40" y="1500" on="1"/>
      </contour>
    </TTGlyph>
    <TTGlyph name="U" xMin="74" yMin="-31" xMax="1580" yMax="1500">
      <contour>
        <pt x="74" y="1386" on="1"/>
        <pt x="282" y="1352" on="1"/>
        <pt x="284" y="794" on="1"/>
        <pt x="282" y="481" on="1"/>
        <pt x="279" y="242" on="0"/>
        <pt x="581" y="-31" on="0"/>
        <pt x="838" y="-31" on="1"/>
        <pt x="1077" y="-31" on="0"/>
        <pt x="1376" y="233" on="0"/>
        <pt x="1373" y="493" on="1"/>
        <pt x="1370" y="794" on="1"/>
        <pt x="1372" y="1352" on="1"/>
        <pt x="1580" y="1386" on="1"/>
        <pt x="1580" y="1500" on="1"/>
        <pt x="1014" y="1500" on="1"/>
        <pt x="1014" y="1386" on="1"/>
        <pt x="1232" y="1352" on="1"/>
        <pt x="1234" y="794" on="1"/>
        <pt x="1232" y="494" on="1"/>
        <pt x="1231" y="284" on="0"/>
        <pt x="1036" y="96" on="0"/>
        <pt x="853" y="96" on="1"/>
        <pt x="647" y="96" on="0"/>
        <pt x="462" y="275" on="0"/>
        <pt x="462" y="474" on="1"/>
        <pt x="458" y="794" on="1"/>
        <pt x="463" y="1352" on="1"/>
        <pt x="670" y="1386" on="1"/>
        <pt x="670" y="1500" on="1"/>
        <pt x="74" y="1500" on="1"/>
      </contour>
    </TTGlyph>
    <TTGlyph name="V" xMin="-30" yMin="-8" xMax="1476" yMax="1500">
      <contour>
        <pt x="-30" y="1386" on="1"/>
        <pt x="138" y="1347" on="1"/>
        <pt x="375" y="740" on="1"/>
        <pt x="662" y="-8" on="1"/>
        <pt x="784" y="-8" on="1"/>
        <pt x="1072" y="754" on="1"/>
        <pt x="1298" y="1347" on="1"/>
        <pt x="1476" y="1386" on="1"/>
        <pt x="1476" y="1500" on="1"/>
        <pt x="970" y="1500" on="1"/>
        <pt x="970" y="1386" on="1"/>
        <pt x="1157" y="1352" on="1"/>
        <pt x="956" y="805" on="1"/>
        <pt x="758" y="256" on="1"/>
        <pt x="543" y="801" on="1"/>
        <pt x="336" y="1345" on="1"/>
        <pt x="504" y="1386" on="1"/>
        <pt x="504" y="1500" on="1"/>
        <pt x="-30" y="1500" on="1"/>
      </contour>
    </TTGlyph>
    <TTGlyph name="W" xMin="-30" yMin="-8" xMax="2152" yMax="1500">
      <contour>
        <pt x="-30" y="1386" on="1"/>
        <pt x="138" y="1347" on="1"/>
        <pt x="365" y="740" on="1"/>
        <pt x="634" y="-8" on="1"/>
        <pt x="749" y="-8" on="1"/>
        <pt x="1022" y="754" on="1"/>
        <pt x="1109" y="995" on="1"/>
        <pt x="1036" y="1199" on="1"/>
        <pt x="905" y="805" on="1"/>
        <pt x="715" y="256" on="1"/>
        <pt x="524" y="801" on="1"/>
        <pt x="336" y="1345" on="1"/>
        <pt x="524" y="1386" on="1"/>
        <pt x="524" y="1500" on="1"/>
        <pt x="-30" y="1500" on="1"/>
      </contour>
      <contour>
        <pt x="718" y="1394" on="1"/>
        <pt x="886" y="1355" on="1"/>
        <pt x="1101" y="735" on="1"/>
        <pt x="1349" y="-8" on="1"/>
        <pt x="1471" y="-8" on="1"/>
        <pt x="1746" y="760" on="1"/>
        <pt x="1964" y="1347" on="1"/>
        <pt x="2152" y="1386" on="1"/>
        <pt x="2152" y="1500" on="1"/>
        <pt x="1616" y="1500" on="1"/>
        <pt x="1616" y="1386" on="1"/>
        <pt x="1813" y="1352" on="1"/>
        <pt x="1630" y="803" on="1"/>
        <pt x="1435" y="256" on="1"/>
        <pt x="1257" y="800" on="1"/>
        <pt x="1084" y="1353" on="1"/>
        <pt x="1252" y="1394" on="1"/>
        <pt x="1252" y="1500" on="1"/>
        <pt x="718" y="1500" on="1"/>
      </contour>
    </TTGlyph>
    <TTGlyph name="X" xMin="-20" yMin="0" xMax="1386" yMax="1500">
      <contour>
        <pt x="-20" y="0" on="1"/>
        <pt x="476" y="0" on="1"/>
        <pt x="476" y="100" on="1"/>
        <pt x="299" y="130" on="1"/>
        <pt x="688" y="757" on="1"/>
        <pt x="698" y="757" on="1"/>
        <pt x="1108" y="1355" on="1"/>
        <pt x="1286" y="1386" on="1"/>
        <pt x="1286" y="1500" on="1"/>
        <pt x="780" y="1500" on="1"/>
        <pt x="780" y="1386" on="1"/>
        <pt x="957" y="1360" on="1"/>
        <pt x="635" y="849" on="1"/>
        <pt x="625" y="849" on="1"/>
        <pt x="148" y="135" on="1"/>
        <pt x="-20" y="100" on="1"/>
      </contour>
      <contour>
        <pt x="30" y="1386" on="1"/>
        <pt x="188" y="1355" on="1"/>
        <pt x="605" y="742" on="1"/>
        <pt x="1015" y="135" on="1"/>
        <pt x="842" y="100" on="1"/>
        <pt x="842" y="0" on="1"/>
        <pt x="1386" y="0" on="1"/>
        <pt x="1386" y="100" on="1"/>
        <pt x="1218" y="135" on="1"/>
        <pt x="715" y="866" on="1"/>
        <pt x="391" y="1353" on="1"/>
        <pt x="564" y="1386" on="1"/>
        <pt x="564" y="1500" on="1"/>
        <pt x="30" y="1500" on="1"/>
      </contour>
    </TTGlyph>
    <TTGlyph name="Y" xMin="-30" yMin="0" xMax="1296" yMax="1500">
      <contour>
        <pt x="-30" y="1386" on="1"/>
        <pt x="132" y="1360" on="1"/>
        <pt x="359" y="976" on="1"/>
        <pt x="547" y="647" on="1"/>
        <pt x="545" y="135" on="1"/>
        <pt x="324" y="100" on="1"/>
        <pt x="324" y="0" on="1"/>
        <pt x="943" y="0" on="1"/>
        <pt x="943" y="100" on="1"/>
        <pt x="725" y="135" on="1"/>
        <pt x="723" y="652" on="1"/>
        <pt x="923" y="1011" on="1"/>
        <pt x="1128" y="1359" on="1"/>
        <pt x="1296" y="1386" on="1"/>
        <pt x="1296" y="1500" on="1"/>
        <pt x="787" y="1500" on="1"/>
        <pt x="787" y="1386" on="1"/>
        <pt x="974" y="1358" on="1"/>
        <pt x="827" y="1078" on="1"/>
        <pt x="664" y="783" on="1"/>
        <pt x="498" y="1055" on="1"/>
        <pt x="340" y="1351" on="1"/>
        <pt x="497" y="1386" on="1"/>
        <pt x="497" y="1500" on="1"/>
        <pt x="-30" y="1500" on="1"/>
      </contour>
    </TTGlyph>
    <TTGlyph name="Z" xMin="40" yMin="0" xMax="1146" yMax="1500">
      <contour>
        <pt x="70" y="0" on="1"/>
        <pt x="1106" y="0" on="1"/>
        <pt x="1146" y="378" on="1"/>
        <pt x="1036" y="378" on="1"/>
        <pt x="960" y="108" on="1"/>
        <pt x="271" y="108" on="1"/>
        <pt x="257" y="124" on="1"/>
        <pt x="630" y="704" on="1"/>
        <pt x="1081" y="1409" on="1"/>
        <pt x="1081" y="1500" on="1"/>
        <pt x="80" y="1500" on="1"/>
        <pt x="80" y="1058" on="1"/>
        <pt x="202" y="1058" on="1"/>
        <pt x="238" y="1382" on="1"/>
        <pt x="853" y="1382" on="1"/>
        <pt x="867" y="1366" on="1"/>
        <pt x="494" y="784" on="1"/>
        <pt x="40" y="92" on="1"/>
      </contour>
    </TTGlyph>
    <TTGlyph name="a" xMin="38" yMin="-15" xMax="986" yMax="1022">
      <contour>
        <pt x="38" y="265" on="1"/>
        <pt x="38" y="142" on="0"/>
        <pt x="200" y="-15" on="0"/>
        <pt x="358" y="-15" on="1"/>
        <pt x="513" y="-15" on="0"/>
        <pt x="740" y="165" on="0"/>
        <pt x="738" y="264" on="1"/>
        <pt x="704" y="264" on="1"/>
        <pt x="694" y="213" on="0"/>
        <pt x="536" y="98" on="0"/>
        <pt x="438" y="98" on="1"/>
        <pt x="345" y="98" on="0"/>
        <pt x="218" y="189" on="0"/>
        <pt x="218" y="279" on="1"/>
        <pt x="218" y="391" on="0"/>
        <pt x="468" y="535" on="0"/>
        <pt x="695" y="569" on="1"/>
        <pt x="686" y="649" on="1"/>
        <pt x="349" y="589" on="0"/>
        <pt x="38" y="387" on="0"/>
      </contour>
      <contour>
        <pt x="83" y="872" on="1"/>
        <pt x="132" y="821" on="1"/>
        <pt x="175" y="854" on="0"/>
        <pt x="307" y="905" on="0"/>
        <pt x="399" y="905" on="1"/>
        <pt x="533" y="905" on="0"/>
        <pt x="671" y="764" on="0"/>
        <pt x="670" y="587" on="1"/>
        <pt x="668" y="162" on="1"/>
        <pt x="688" y="60" on="1"/>
        <pt x="739" y="0" on="1"/>
        <pt x="986" y="0" on="1"/>
        <pt x="986" y="80" on="1"/>
        <pt x="838" y="115" on="1"/>
        <pt x="833" y="577" on="1"/>
        <pt x="830" y="823" on="0"/>
        <pt x="619" y="1022" on="0"/>
        <pt x="436" y="1022" on="1"/>
        <pt x="293" y="1022" on="0"/>
        <pt x="109" y="919" on="0"/>
      </contour>
    </TTGlyph>
    <TTGlyph name="ampersand" xMin="52" yMin="-23" xMax="1160" yMax="1520">
      <contour>
        <pt x="52" y="389" on="1"/>
        <pt x="52" y="202" on="0"/>
        <pt x="356" y="-23" on="0"/>
        <pt x="599" y="-23" on="1"/>
        <pt x="745" y="-23" on="0"/>
        <pt x="1015" y="118" on="0"/>
        <pt x="1103" y="255" on="1"/>
        <pt x="1014" y="326" on="1"/>
        <pt x="978" y="229" on="0"/>
        <pt x="778" y="102" on="0"/>
        <pt x="583" y="102" on="1"/>
        <pt x="416" y="102" on="0"/>
        <pt x="232" y="254" on="0"/>
        <pt x="232" y="400" on="1"/>
        <pt x="232" y="559" on="0"/>
        <pt x="469" y="735" on="0"/>
        <pt x="628" y="735" on="1"/>
        <pt x="680" y="735" on="0"/>
        <pt x="724" y="761" on="0"/>
        <pt x="724" y="796" on="1"/>
        <pt x="724" y="851" on="0"/>
        <pt x="704" y="863" on="0"/>
        <pt x="667" y="863" on="1"/>
        <pt x="484" y="863" on="0"/>
        <pt x="300" y="1020" on="0"/>
        <pt x="300" y="1152" on="1"/>
        <pt x="300" y="1247" on="0"/>
        <pt x="432" y="1391" on="0"/>
        <pt x="554" y="1391" on="1"/>
        <pt x="687" y="1391" on="0"/>
        <pt x="852" y="1310" on="0"/>
        <pt x="895" y="1270" on="1"/>
        <pt x="974" y="1388" on="1"/>
        <pt x="895" y="1453" on="0"/>
        <pt x="686" y="1520" on="0"/>
        <pt x="563" y="1520" on="1"/>
        <pt x="361" y="1520" on="0"/>
        <pt x="138" y="1315" on="0"/>
        <pt x="138" y="1152" on="1"/>
        <pt x="138" y="982" on="0"/>
        <pt x="329" y="803" on="0"/>
        <pt x="490" y="790" on="1"/>
        <pt x="328" y="766" on="0"/>
        <pt x="52" y="560" on="0"/>
      </contour>
      <contour>
        <pt x="847" y="1315" on="1"/>
        <pt x="897" y="1051" on="1"/>
        <pt x="1011" y="1051" on="1"/>
        <pt x="1011" y="1487" on="1"/>
        <pt x="907" y="1487" on="1"/>
      </contour>
      <contour>
        <pt x="984" y="172" on="1"/>
        <pt x="1056" y="0" on="1"/>
        <pt x="1160" y="0" on="1"/>
        <pt x="1160" y="484" on="1"/>
        <pt x="1044" y="484" on="1"/>
      </contour>
    </TTGlyph>
    <TTGlyph name="asciicircum" xMin="68" yMin="776" xMax="1248" yMax="1524">
      <contour>
        <pt x="638" y="1524" on="1"/>
        <pt x="638" y="1524" on="0"/>
        <pt x="176" y="988" on="0"/>
        <pt x="122" y="926" on="1"/>
        <pt x="68" y="864" on="0"/>
        <pt x="153" y="778" on="0"/>
        <pt x="211" y="831" on="1"/>
        <pt x="347" y="955" on="0"/>
        <pt x="641" y="1267" on="0"/>
        <pt x="641" y="1267" on="1"/>
        <pt x="641" y="1267" on="0"/>
        <pt x="971" y="953" on="0"/>
        <pt x="1107" y="829" on="1"/>
        <pt x="1165" y="776" on="0"/>
        <pt x="1248" y="865" on="0"/>
        <pt x="1194" y="927" on="1"/>
        <pt x="1140" y="989" on="0"/>
        <pt x="638" y="1524" on="0"/>
      </contour>
    </TTGlyph>
    <TTGlyph name="asciitilde" xMin="18" yMin="516" xMax="1006" yMax="813">
      <contour>
        <pt x="18" y="601" on="1"/>
        <pt x="86" y="537" on="1"/>
        <pt x="143" y="589" on="0"/>
        <pt x="259" y="643" on="0"/>
        <pt x="320" y="643" on="1"/>
        <pt x="680" y="516" on="1"/>
        <pt x="812" y="516" on="0"/>
        <pt x="956" y="657" on="0"/>
        <pt x="1006" y="761" on="1"/>
        <pt x="916" y="813" on="1"/>
        <pt x="883" y="759" on="0"/>
        <pt x="791" y="671" on="0"/>
        <pt x="731" y="671" on="1"/>
        <pt x="348" y="806" on="1"/>
        <pt x="260" y="806" on="0"/>
        <pt x="80" y="694" on="0"/>
      </contour>
    </TTGlyph>
    <TTGlyph name="asterisk" xMin="10" yMin="664" xMax="848" yMax="1558">
      <contour>
        <pt x="429" y="664" on="1"/>
        <pt x="492" y="664" on="0"/>
        <pt x="549" y="743" on="0"/>
        <pt x="533" y="799" on="1"/>
        <pt x="457" y="1058" on="1"/>
        <pt x="462" y="1062" on="1"/>
        <pt x="647" y="865" on="1"/>
        <pt x="680" y="830" on="0"/>
        <pt x="785" y="833" on="0"/>
        <pt x="816" y="887" on="1"/>
        <pt x="848" y="942" on="0"/>
        <pt x="798" y="1034" on="0"/>
        <pt x="751" y="1045" on="1"/>
        <pt x="489" y="1109" on="1"/>
        <pt x="488" y="1115" on="1"/>
        <pt x="751" y="1177" on="1"/>
        <pt x="798" y="1188" on="0"/>
        <pt x="848" y="1280" on="0"/>
        <pt x="816" y="1334" on="1"/>
        <pt x="785" y="1389" on="0"/>
        <pt x="680" y="1392" on="0"/>
        <pt x="647" y="1357" on="1"/>
        <pt x="461" y="1160" on="1"/>
        <pt x="455" y="1164" on="1"/>
        <pt x="533" y="1423" on="1"/>
        <pt x="550" y="1479" on="0"/>
        <pt x="488" y="1558" on="0"/>
        <pt x="429" y="1558" on="1"/>
        <pt x="372" y="1558" on="0"/>
        <pt x="308" y="1482" on="0"/>
        <pt x="325" y="1423" on="1"/>
        <pt x="401" y="1164" on="1"/>
        <pt x="396" y="1160" on="1"/>
        <pt x="211" y="1357" on="1"/>
        <pt x="178" y="1392" on="0"/>
        <pt x="73" y="1389" on="0"/>
        <pt x="42" y="1335" on="1"/>
        <pt x="10" y="1280" on="0"/>
        <pt x="60" y="1188" on="0"/>
        <pt x="107" y="1177" on="1"/>
        <pt x="369" y="1113" on="1"/>
        <pt x="370" y="1107" on="1"/>
        <pt x="107" y="1045" on="1"/>
        <pt x="60" y="1034" on="0"/>
        <pt x="10" y="942" on="0"/>
        <pt x="42" y="888" on="1"/>
        <pt x="73" y="833" on="0"/>
        <pt x="178" y="830" on="0"/>
        <pt x="211" y="865" on="1"/>
        <pt x="398" y="1062" on="1"/>
        <pt x="403" y="1058" on="1"/>
        <pt x="325" y="799" on="1"/>
        <pt x="308" y="743" on="0"/>
        <pt x="370" y="664" on="0"/>
      </contour>
    </TTGlyph>
    <TTGlyph name="at" xMin="80" yMin="-30" xMax="1602" yMax="1520">
      <contour>
        <pt x="80" y="746" on="1"/>
        <pt x="80" y="399" on="0"/>
        <pt x="502" y="-30" on="0"/>
        <pt x="840" y="-30" on="1"/>
        <pt x="967" y="-30" on="0"/>
        <pt x="1194" y="43" on="0"/>
        <pt x="1273" y="108" on="1"/>
        <pt x="1226" y="168" on="1"/>
        <pt x="1171" y="137" on="0"/>
        <pt x="969" y="89" on="0"/>
        <pt x="845" y="89" on="1"/>
        <pt x="559" y="89" on="0"/>
        <pt x="200" y="471" on="0"/>
        <pt x="198" y="761" on="1"/>
        <pt x="196" y="1048" on="0"/>
        <pt x="538" y="1380" on="0"/>
        <pt x="844" y="1380" on="1"/>
        <pt x="1141" y="1380" on="0"/>
        <pt x="1489" y="1042" on="0"/>
        <pt x="1489" y="809" on="1"/>
        <pt x="1489" y="617" on="0"/>
        <pt x="1346" y="433" on="0"/>
        <pt x="1239" y="433" on="1"/>
        <pt x="1202" y="433" on="0"/>
        <pt x="1160" y="438" on="0"/>
        <pt x="1136" y="449" on="1"/>
        <pt x="1132" y="825" on="1"/>
        <pt x="1130" y="1027" on="0"/>
        <pt x="949" y="1191" on="0"/>
        <pt x="793" y="1191" on="1"/>
        <pt x="671" y="1191" on="0"/>
        <pt x="517" y="1106" on="0"/>
        <pt x="495" y="1068" on="1"/>
        <pt x="542" y="1010" on="1"/>
        <pt x="578" y="1037" on="0"/>
        <pt x="686" y="1078" on="0"/>
        <pt x="763" y="1078" on="1"/>
        <pt x="877" y="1078" on="0"/>
        <pt x="985" y="979" on="0"/>
        <pt x="984" y="834" on="1"/>
        <pt x="982" y="584" on="1"/>
        <pt x="981" y="444" on="0"/>
        <pt x="1122" y="352" on="0"/>
        <pt x="1232" y="352" on="1"/>
        <pt x="1376" y="352" on="0"/>
        <pt x="1602" y="592" on="0"/>
        <pt x="1602" y="826" on="1"/>
        <pt x="1602" y="1137" on="0"/>
        <pt x="1169" y="1520" on="0"/>
        <pt x="832" y="1520" on="1"/>
        <pt x="495" y="1520" on="0"/>
        <pt x="80" y="1068" on="0"/>
      </contour>
      <contour>
        <pt x="457" y="569" on="1"/>
        <pt x="457" y="468" on="0"/>
        <pt x="594" y="339" on="0"/>
        <pt x="729" y="339" on="1"/>
        <pt x="860" y="339" on="0"/>
        <pt x="1053" y="487" on="0"/>
        <pt x="1051" y="568" on="1"/>
        <pt x="1003" y="568" on="1"/>
        <pt x="994" y="526" on="0"/>
        <pt x="871" y="432" on="0"/>
        <pt x="787" y="432" on="1"/>
        <pt x="708" y="432" on="0"/>
        <pt x="610" y="507" on="0"/>
        <pt x="610" y="580" on="1"/>
        <pt x="610" y="673" on="0"/>
        <pt x="822" y="772" on="0"/>
        <pt x="1015" y="799" on="1"/>
        <pt x="1007" y="884" on="1"/>
        <pt x="721" y="835" on="0"/>
        <pt x="457" y="669" on="0"/>
      </contour>
    </TTGlyph>
    <TTGlyph name="b" xMin="0" yMin="-12" xMax="1090" yMax="1534">
      <contour>
        <pt x="0" y="1406" on="1"/>
        <pt x="167" y="1376" on="1"/>
        <pt x="178" y="427" on="1"/>
        <pt x="167" y="0" on="1"/>
        <pt x="250" y="0" on="1"/>
        <pt x="336" y="88" on="1"/>
        <pt x="334" y="428" on="1"/>
        <pt x="337" y="1502" on="1"/>
        <pt x="309" y="1534" on="1"/>
        <pt x="278" y="1534" on="1"/>
        <pt x="0" y="1500" on="1"/>
      </contour>
      <contour>
        <pt x="292" y="139" on="1"/>
        <pt x="323" y="85" on="0"/>
        <pt x="506" y="-12" on="0"/>
        <pt x="624" y="-12" on="1"/>
        <pt x="845" y="-12" on="0"/>
        <pt x="1090" y="286" on="0"/>
        <pt x="1090" y="530" on="1"/>
        <pt x="1090" y="754" on="0"/>
        <pt x="854" y="1020" on="0"/>
        <pt x="672" y="1020" on="1"/>
        <pt x="527" y="1020" on="0"/>
        <pt x="339" y="890" on="0"/>
        <pt x="296" y="793" on="1"/>
        <pt x="330" y="736" on="1"/>
        <pt x="372" y="805" on="0"/>
        <pt x="516" y="894" on="0"/>
        <pt x="620" y="894" on="1"/>
        <pt x="752" y="894" on="0"/>
        <pt x="906" y="688" on="0"/>
        <pt x="906" y="505" on="1"/>
        <pt x="906" y="313" on="0"/>
        <pt x="751" y="91" on="0"/>
        <pt x="615" y="91" on="1"/>
        <pt x="512" y="91" on="0"/>
        <pt x="362" y="183" on="0"/>
        <pt x="330" y="245" on="1"/>
      </contour>
    </TTGlyph>
    <TTGlyph name="backslash" xMin="-30" yMin="-155" xMax="696" yMax="1548">
      <contour>
        <pt x="-30" y="1518" on="1"/>
        <pt x="586" y="-155" on="1"/>
        <pt x="696" y="-125" on="1"/>
        <pt x="80" y="1548" on="1"/>
      </contour>
    </TTGlyph>
    <TTGlyph name="bar" xMin="207" yMin="-540" xMax="397" yMax="1550">
      <contour>
        <pt x="207" y="-540" on="1"/>
        <pt x="397" y="-470" on="1"/>
        <pt x="385" y="-58" on="1"/>
        <pt x="363" y="250" on="1"/>
        <pt x="361" y="830" on="1"/>
        <pt x="385" y="1138" on="1"/>
        <pt x="397" y="1550" on="1"/>
        <pt x="207" y="1480" on="1"/>
        <pt x="219" y="1138" on="1"/>
        <pt x="241" y="830" on="1"/>
        <pt x="243" y="250" on="1"/>
        <pt x="219" y="-58" on="1"/>
      </contour>
    </TTGlyph>
    <TTGlyph name="braceleft" xMin="60" yMin="-495" xMax="683" yMax="1510">
      <contour>
        <pt x="60" y="481" on="1"/>
        <pt x="295" y="481" on="1"/>
        <pt x="295" y="364" on="1"/>
        <pt x="295" y="246" on="0"/>
        <pt x="176" y="-50" on="0"/>
        <pt x="176" y="-168" on="1"/>
        <pt x="176" y="-327" on="0"/>
        <pt x="352" y="-495" on="0"/>
        <pt x="508" y="-495" on="1"/>
        <pt x="579" y="-495" on="0"/>
        <pt x="641" y="-487" on="0"/>
        <pt x="678" y="-484" on="1"/>
        <pt x="678" y="-372" on="1"/>
        <pt x="626" y="-374" on="0"/>
        <pt x="563" y="-374" on="0"/>
        <pt x="514" y="-374" on="1"/>
        <pt x="432" y="-374" on="0"/>
        <pt x="336" y="-278" on="0"/>
        <pt x="336" y="-180" on="1"/>
        <pt x="336" y="-78" on="0"/>
        <pt x="452" y="223" on="0"/>
        <pt x="452" y="314" on="1"/>
        <pt x="452" y="384" on="0"/>
        <pt x="399" y="516" on="0"/>
        <pt x="336" y="550" on="1"/>
        <pt x="387" y="571" on="0"/>
        <pt x="452" y="697" on="0"/>
        <pt x="452" y="792" on="1"/>
        <pt x="452" y="883" on="0"/>
        <pt x="346" y="1094" on="0"/>
        <pt x="346" y="1196" on="1"/>
        <pt x="346" y="1294" on="0"/>
        <pt x="437" y="1388" on="0"/>
        <pt x="519" y="1388" on="1"/>
        <pt x="568" y="1388" on="0"/>
        <pt x="631" y="1388" on="0"/>
        <pt x="683" y="1386" on="1"/>
        <pt x="683" y="1500" on="1"/>
        <pt x="646" y="1503" on="0"/>
        <pt x="584" y="1510" on="0"/>
        <pt x="513" y="1510" on="1"/>
        <pt x="357" y="1510" on="0"/>
        <pt x="186" y="1343" on="0"/>
        <pt x="186" y="1184" on="1"/>
        <pt x="186" y="1066" on="0"/>
        <pt x="296" y="834" on="0"/>
        <pt x="296" y="716" on="1"/>
        <pt x="296" y="660" on="0"/>
        <pt x="247" y="603" on="0"/>
        <pt x="191" y="599" on="1"/>
        <pt x="60" y="589" on="1"/>
      </contour>
    </TTGlyph>
    <TTGlyph name="braceright" xMin="10" yMin="-495" xMax="633" yMax="1510">
      <contour>
        <pt x="633" y="481" on="1"/>
        <pt x="633" y="589" on="1"/>
        <pt x="502" y="599" on="1"/>
        <pt x="446" y="603" on="0"/>
        <pt x="397" y="660" on="0"/>
        <pt x="397" y="716" on="1"/>
        <pt x="397" y="834" on="0"/>
        <pt x="507" y="1066" on="0"/>
        <pt x="507" y="1184" on="1"/>
        <pt x="507" y="1343" on="0"/>
        <pt x="336" y="1510" on="0"/>
        <pt x="180" y="1510" on="1"/>
        <pt x="109" y="1510" on="0"/>
        <pt x="47" y="1503" on="0"/>
        <pt x="10" y="1500" on="1"/>
        <pt x="10" y="1386" on="1"/>
        <pt x="62" y="1388" on="0"/>
        <pt x="125" y="1388" on="0"/>
        <pt x="174" y="1388" on="1"/>
        <pt x="256" y="1388" on="0"/>
        <pt x="347" y="1294" on="0"/>
        <pt x="347" y="1196" on="1"/>
        <pt x="347" y="1094" on="0"/>
        <pt x="241" y="883" on="0"/>
        <pt x="241" y="792" on="1"/>
        <pt x="241" y="697" on="0"/>
        <pt x="306" y="571" on="0"/>
        <pt x="357" y="550" on="1"/>
        <pt x="294" y="516" on="0"/>
        <pt x="241" y="384" on="0"/>
        <pt x="241" y="314" on="1"/>
        <pt x="241" y="223" on="0"/>
        <pt x="357" y="-78" on="0"/>
        <pt x="357" y="-180" on="1"/>
        <pt x="357" y="-278" on="0"/>
        <pt x="261" y="-374" on="0"/>
        <pt x="179" y="-374" on="1"/>
        <pt x="130" y="-374" on="0"/>
        <pt x="67" y="-374" on="0"/>
        <pt x="15" y="-372" on="1"/>
        <pt x="15" y="-484" on="1"/>
        <pt x="52" y="-487" on="0"/>
        <pt x="114" y="-495" on="0"/>
        <pt x="185" y="-495" on="1"/>
        <pt x="341" y="-495" on="0"/>
        <pt x="517" y="-327" on="0"/>
        <pt x="517" y="-168" on="1"/>
        <pt x="517" y="-50" on="0"/>
        <pt x="398" y="246" on="0"/>
        <pt x="398" y="364" on="1"/>
        <pt x="398" y="481" on="1"/>
      </contour>
    </TTGlyph>
    <TTGlyph name="bracketleft" xMin="114" yMin="-480" xMax="572" yMax="1500">
      <contour>
        <pt x="145" y="508" on="1"/>
        <pt x="133" y="-342" on="1"/>
        <pt x="114" y="-362" on="1"/>
        <pt x="114" y="-480" on="1"/>
        <pt x="572" y="-480" on="1"/>
        <pt x="572" y="-361" on="1"/>
        <pt x="313" y="-342" on="1"/>
        <pt x="301" y="508" on="1"/>
        <pt x="313" y="1362" on="1"/>
        <pt x="572" y="1381" on="1"/>
        <pt x="572" y="1500" on="1"/>
        <pt x="114" y="1500" on="1"/>
        <pt x="114" y="1382" on="1"/>
        <pt x="133" y="1362" on="1"/>
      </contour>
    </TTGlyph>
    <TTGlyph name="bracketright" xMin="64" yMin="-480" xMax="522" yMax="1500">
      <contour>
        <pt x="491" y="508" on="1"/>
        <pt x="503" y="1362" on="1"/>
        <pt x="522" y="1382" on="1"/>
        <pt x="522" y="1500" on="1"/>
        <pt x="64" y="1500" on="1"/>
        <pt x="64" y="1381" on="1"/>
        <pt x="323" y="1362" on="1"/>
        <pt x="335" y="508" on="1"/>
        <pt x="323" y="-342" on="1"/>
        <pt x="64" y="-361" on="1"/>
        <pt x="64" y="-480" on="1"/>
        <pt x="522" y="-480" on="1"/>
        <pt x="522" y="-362" on="1"/>
        <pt x="503" y="-342" on="1"/>
      </contour>
    </TTGlyph>
    <TTGlyph name="c" xMin="64" yMin="-22" xMax="966" yMax="1022">
      <contour>
        <pt x="64" y="475" on="1"/>
        <pt x="64" y="253" on="0"/>
        <pt x="339" y="-22" on="0"/>
        <pt x="547" y="-22" on="1"/>
        <pt x="725" y="-22" on="0"/>
        <pt x="919" y="105" on="0"/>
        <pt x="966" y="168" on="1"/>
        <pt x="915" y="228" on="1"/>
        <pt x="860" y="177" on="0"/>
        <pt x="718" y="108" on="0"/>
        <pt x="614" y="108" on="1"/>
        <pt x="458" y="108" on="0"/>
        <pt x="245" y="319" on="0"/>
        <pt x="244" y="495" on="1"/>
        <pt x="243" y="700" on="0"/>
        <pt x="419" y="911" on="0"/>
        <pt x="541" y="911" on="1"/>
        <pt x="632" y="911" on="0"/>
        <pt x="758" y="828" on="0"/>
        <pt x="767" y="769" on="1"/>
        <pt x="888" y="892" on="1"/>
        <pt x="833" y="955" on="0"/>
        <pt x="661" y="1022" on="0"/>
        <pt x="541" y="1022" on="1"/>
        <pt x="349" y="1022" on="0"/>
        <pt x="64" y="706" on="0"/>
      </contour>
      <contour>
        <pt x="750" y="850" on="1"/>
        <pt x="793" y="647" on="1"/>
        <pt x="892" y="647" on="1"/>
        <pt x="892" y="1002" on="1"/>
        <pt x="801" y="1002" on="1"/>
      </contour>
    </TTGlyph>
    <TTGlyph name="cid09502" xMin="90" yMin="778" xMax="1912" yMax="1026">
      <contour>
        <pt x="90" y="878" on="1"/>
        <pt x="1584" y="878" on="1"/>
        <pt x="1536" y="838" on="1"/>
        <pt x="1678" y="1026" on="1"/>
        <pt x="1678" y="1026" on="0"/>
        <pt x="1846" y="889" on="0"/>
        <pt x="1912" y="826" on="1"/>
        <pt x="1908" y="808" on="0"/>
        <pt x="1874" y="778" on="0"/>
        <pt x="1850" y="778" on="1"/>
        <pt x="118" y="778" on="1"/>
      </contour>
    </TTGlyph>
    <TTGlyph name="cid09559" xMin="61" yMin="-162" xMax="1928" yMax="1676">
      <contour>
        <pt x="928" y="-162" on="1"/>
        <pt x="928" y="1122" on="1"/>
        <pt x="1154" y="1096" on="1"/>
        <pt x="1151" y="1066" on="0"/>
        <pt x="1099" y="1025" on="0"/>
        <pt x="1062" y="1024" on="1"/>
        <pt x="1062" y="-114" on="1"/>
        <pt x="1062" y="-127" on="0"/>
        <pt x="990" y="-162" on="0"/>
        <pt x="954" y="-162" on="1"/>
      </contour>
      <contour>
        <pt x="92" y="678" on="1"/>
        <pt x="61" y="746" on="1"/>
        <pt x="327" y="922" on="0"/>
        <pt x="808" y="1439" on="0"/>
        <pt x="904" y="1676" on="1"/>
        <pt x="1157" y="1610" on="1"/>
        <pt x="1150" y="1583" on="0"/>
        <pt x="1074" y="1556" on="0"/>
        <pt x="1020" y="1560" on="1"/>
        <pt x="886" y="1332" on="0"/>
        <pt x="393" y="830" on="0"/>
      </contour>
      <contour>
        <pt x="1806" y="734" on="1"/>
        <pt x="1546" y="886" on="0"/>
        <pt x="1111" y="1304" on="0"/>
        <pt x="985" y="1564" on="1"/>
        <pt x="1052" y="1605" on="1"/>
        <pt x="1207" y="1383" on="0"/>
        <pt x="1652" y="998" on="0"/>
        <pt x="1928" y="880" on="1"/>
        <pt x="1926" y="850" on="1"/>
        <pt x="1880" y="838" on="0"/>
        <pt x="1821" y="774" on="0"/>
      </contour>
    </TTGlyph>
    <TTGlyph name="cid09597" xMin="55" yMin="-175" xMax="1954" yMax="1680">
      <contour>
        <pt x="798" y="1554" on="1"/>
        <pt x="682" y="1204" on="0"/>
        <pt x="352" y="704" on="0"/>
        <pt x="152" y="558" on="1"/>
        <pt x="96" y="606" on="1"/>
        <pt x="274" y="788" on="0"/>
        <pt x="588" y="1343" on="0"/>
        <pt x="666" y="1680" on="1"/>
        <pt x="902" y="1610" on="1"/>
        <pt x="895" y="1585" on="0"/>
        <pt x="840" y="1551" on="0"/>
      </contour>
      <contour>
        <pt x="1315" y="1232" on="1"/>
        <pt x="1191" y="698" on="0"/>
        <pt x="584" y="-22" on="0"/>
        <pt x="98" y="-175" on="1"/>
        <pt x="55" y="-112" on="1"/>
        <pt x="537" y="97" on="0"/>
        <pt x="1076" y="824" on="0"/>
        <pt x="1180" y="1307" on="1"/>
        <pt x="1204" y="1238" on="1"/>
        <pt x="640" y="1238" on="1"/>
        <pt x="640" y="1336" on="1"/>
        <pt x="1166" y="1336" on="1"/>
        <pt x="1252" y="1424" on="1"/>
        <pt x="1416" y="1268" on="1"/>
        <pt x="1404" y="1252" on="0"/>
        <pt x="1353" y="1233" on="0"/>
      </contour>
      <contour>
        <pt x="1193" y="977" on="1"/>
        <pt x="1254" y="1054" on="1"/>
        <pt x="1295" y="725" on="0"/>
        <pt x="1590" y="162" on="0"/>
        <pt x="1954" y="-22" on="1"/>
        <pt x="1950" y="-46" on="1"/>
        <pt x="1899" y="-52" on="0"/>
        <pt x="1833" y="-101" on="0"/>
        <pt x="1820" y="-156" on="1"/>
        <pt x="1507" y="34" on="0"/>
        <pt x="1233" y="615" on="0"/>
      </contour>
    </TTGlyph>
    <TTGlyph name="cid09831" xMin="66" yMin="-203" xMax="1916" yMax="1576">
      <contour>
        <pt x="727" y="1324" on="1"/>
        <pt x="778" y="1365" on="1"/>
        <pt x="1197" y="1192" on="0"/>
        <pt x="1196" y="818" on="0"/>
        <pt x="1078" y="894" on="1"/>
        <pt x="1041" y="1000" on="0"/>
        <pt x="818" y="1239" on="0"/>
      </contour>
      <contour>
        <pt x="66" y="182" on="1"/>
        <pt x="231" y="222" on="0"/>
        <pt x="819" y="455" on="0"/>
        <pt x="1017" y="527" on="1"/>
        <pt x="1038" y="460" on="1"/>
        <pt x="889" y="382" on="0"/>
        <pt x="472" y="192" on="0"/>
        <pt x="214" y="75" on="1"/>
        <pt x="214" y="50" on="0"/>
        <pt x="182" y="6" on="0"/>
        <pt x="160" y="-4" on="1"/>
      </contour>
      <contour>
        <pt x="490" y="280" on="1"/>
        <pt x="360" y="230" on="1"/>
        <pt x="340" y="1576" on="1"/>
        <pt x="564" y="1558" on="1"/>
        <pt x="563" y="1530" on="0"/>
        <pt x="516" y="1488" on="0"/>
        <pt x="470" y="1482" on="1"/>
      </contour>
      <contour>
        <pt x="1711" y="1468" on="1"/>
        <pt x="1687" y="977" on="0"/>
        <pt x="1363" y="114" on="0"/>
        <pt x="569" y="-171" on="1"/>
        <pt x="528" y="-98" on="1"/>
        <pt x="1219" y="208" on="0"/>
        <pt x="1557" y="1011" on="0"/>
        <pt x="1570" y="1572" on="1"/>
        <pt x="1810" y="1543" on="1"/>
        <pt x="1806" y="1514" on="0"/>
        <pt x="1754" y="1471" on="0"/>
      </contour>
      <contour>
        <pt x="1369" y="391" on="1"/>
        <pt x="1419" y="456" on="1"/>
        <pt x="1891" y="213" on="0"/>
        <pt x="1916" y="-203" on="0"/>
        <pt x="1792" y="-124" on="1"/>
        <pt x="1746" y="-8" on="0"/>
        <pt x="1500" y="262" on="0"/>
      </contour>
    </TTGlyph>
    <TTGlyph name="cid11261" xMin="82" yMin="-200" xMax="1938" yMax="1684">
      <contour>
        <pt x="470" y="1644" on="1"/>
        <pt x="524" y="1684" on="1"/>
        <pt x="837" y="1593" on="0"/>
        <pt x="784" y="1277" on="0"/>
        <pt x="680" y="1350" on="1"/>
        <pt x="667" y="1428" on="0"/>
        <pt x="531" y="1589" on="0"/>
      </contour>
      <contour>
        <pt x="360" y="320" on="1"/>
        <pt x="360" y="420" on="1"/>
        <pt x="800" y="420" on="1"/>
        <pt x="800" y="634" on="1"/>
        <pt x="416" y="634" on="1"/>
        <pt x="416" y="558" on="1"/>
        <pt x="416" y="462" on="0"/>
        <pt x="386" y="-26" on="0"/>
        <pt x="184" y="-200" on="1"/>
        <pt x="128" y="-150" on="1"/>
        <pt x="231" y="2" on="0"/>
        <pt x="290" y="364" on="0"/>
        <pt x="290" y="558" on="1"/>
        <pt x="290" y="1102" on="1"/>
        <pt x="440" y="1038" on="1"/>
        <pt x="780" y="1038" on="1"/>
        <pt x="846" y="1120" on="1"/>
        <pt x="1026" y="982" on="1"/>
        <pt x="1016" y="967" on="0"/>
        <pt x="963" y="938" on="0"/>
        <pt x="926" y="934" on="1"/>
        <pt x="926" y="26" on="1"/>
        <pt x="926" y="-50" on="0"/>
        <pt x="865" y="-140" on="0"/>
        <pt x="746" y="-152" on="1"/>
        <pt x="743" y="-124" on="0"/>
        <pt x="726" y="-79" on="0"/>
        <pt x="710" y="-64" on="1"/>
        <pt x="695" y="-49" on="0"/>
        <pt x="634" y="-26" on="0"/>
        <pt x="582" y="-20" on="1"/>
        <pt x="582" y="42" on="1"/>
        <pt x="582" y="42" on="0"/>
        <pt x="735" y="30" on="0"/>
        <pt x="762" y="30" on="1"/>
        <pt x="784" y="30" on="0"/>
        <pt x="800" y="49" on="0"/>
        <pt x="800" y="68" on="1"/>
        <pt x="800" y="320" on="1"/>
      </contour>
      <contour>
        <pt x="800" y="938" on="1"/>
        <pt x="416" y="938" on="1"/>
        <pt x="416" y="734" on="1"/>
        <pt x="800" y="734" on="1"/>
      </contour>
      <contour>
        <pt x="1298" y="966" on="1"/>
        <pt x="1298" y="214" on="1"/>
        <pt x="1298" y="205" on="0"/>
        <pt x="1232" y="174" on="0"/>
        <pt x="1198" y="174" on="1"/>
        <pt x="1174" y="174" on="1"/>
        <pt x="1174" y="1064" on="1"/>
        <pt x="1395" y="1040" on="1"/>
        <pt x="1391" y="1015" on="0"/>
        <pt x="1346" y="970" on="0"/>
      </contour>
      <contour>
        <pt x="1560" y="70" on="1"/>
        <pt x="1560" y="1110" on="1"/>
        <pt x="1785" y="1085" on="1"/>
        <pt x="1780" y="1056" on="0"/>
        <pt x="1735" y="1019" on="0"/>
        <pt x="1686" y="1016" on="1"/>
        <pt x="1686" y="32" on="1"/>
        <pt x="1686" y="-47" on="0"/>
        <pt x="1617" y="-140" on="0"/>
        <pt x="1478" y="-152" on="1"/>
        <pt x="1475" y="-125" on="0"/>
        <pt x="1455" y="-79" on="0"/>
        <pt x="1434" y="-66" on="1"/>
        <pt x="1410" y="-50" on="0"/>
        <pt x="1329" y="-25" on="0"/>
        <pt x="1262" y="-18" on="1"/>
        <pt x="1262" y="44" on="1"/>
        <pt x="1262" y="44" on="0"/>
        <pt x="1481" y="28" on="0"/>
        <pt x="1512" y="28" on="1"/>
        <pt x="1540" y="28" on="0"/>
        <pt x="1560" y="48" on="0"/>
      </contour>
      <contour>
        <pt x="1638" y="1302" on="1"/>
        <pt x="1740" y="1426" on="1"/>
        <pt x="1740" y="1426" on="0"/>
        <pt x="1886" y="1307" on="0"/>
        <pt x="1938" y="1258" on="1"/>
        <pt x="1934" y="1236" on="0"/>
        <pt x="1898" y="1202" on="0"/>
        <pt x="1870" y="1202" on="1"/>
        <pt x="110" y="1202" on="1"/>
        <pt x="82" y="1302" on="1"/>
        <pt x="1128" y="1302" on="1"/>
        <pt x="1180" y="1384" on="0"/>
        <pt x="1307" y="1591" on="0"/>
        <pt x="1340" y="1676" on="1"/>
        <pt x="1552" y="1614" on="1"/>
        <pt x="1545" y="1596" on="0"/>
        <pt x="1505" y="1575" on="0"/>
        <pt x="1474" y="1576" on="1"/>
        <pt x="1425" y="1515" on="0"/>
        <pt x="1303" y="1365" on="0"/>
        <pt x="1230" y="1302" on="1"/>
      </contour>
    </TTGlyph>
    <TTGlyph name="cid13315" xMin="57" yMin="-154" xMax="1922" yMax="1680">
      <contour>
        <pt x="1621" y="9" on="1"/>
        <pt x="1736" y="152" on="1"/>
        <pt x="1736" y="152" on="0"/>
        <pt x="1871" y="46" on="0"/>
        <pt x="1922" y="-2" on="1"/>
        <pt x="1918" y="-23" on="0"/>
        <pt x="1887" y="-48" on="0"/>
        <pt x="1862" y="-48" on="1"/>
        <pt x="646" y="-48" on="1"/>
        <pt x="620" y="52" on="1"/>
        <pt x="1160" y="52" on="1"/>
        <pt x="1160" y="602" on="1"/>
        <pt x="761" y="602" on="1"/>
        <pt x="735" y="700" on="1"/>
        <pt x="1160" y="700" on="1"/>
        <pt x="1160" y="1140" on="1"/>
        <pt x="1373" y="1118" on="1"/>
        <pt x="1372" y="1090" on="0"/>
        <pt x="1329" y="1052" on="0"/>
        <pt x="1290" y="1048" on="1"/>
        <pt x="1290" y="700" on="1"/>
        <pt x="1546" y="700" on="1"/>
        <pt x="1497" y="657" on="1"/>
        <pt x="1608" y="794" on="1"/>
        <pt x="1608" y="794" on="0"/>
        <pt x="1740" y="689" on="0"/>
        <pt x="1788" y="644" on="1"/>
        <pt x="1784" y="625" on="0"/>
        <pt x="1748" y="602" on="0"/>
        <pt x="1724" y="602" on="1"/>
        <pt x="1290" y="602" on="1"/>
        <pt x="1290" y="52" on="1"/>
        <pt x="1690" y="52" on="1"/>
      </contour>
      <contour>
        <pt x="127" y="1312" on="1"/>
        <pt x="1634" y="1312" on="1"/>
        <pt x="1585" y="1269" on="1"/>
        <pt x="1702" y="1414" on="1"/>
        <pt x="1702" y="1414" on="0"/>
        <pt x="1842" y="1302" on="0"/>
        <pt x="1893" y="1254" on="1"/>
        <pt x="1888" y="1235" on="0"/>
        <pt x="1855" y="1212" on="0"/>
        <pt x="1830" y="1212" on="1"/>
        <pt x="153" y="1212" on="1"/>
      </contour>
      <contour>
        <pt x="960" y="1560" on="1"/>
        <pt x="870" y="1301" on="0"/>
        <pt x="486" y="655" on="0"/>
        <pt x="105" y="427" on="1"/>
        <pt x="57" y="483" on="1"/>
        <pt x="388" y="723" on="0"/>
        <pt x="774" y="1440" on="0"/>
        <pt x="832" y="1680" on="1"/>
        <pt x="1072" y="1612" on="1"/>
        <pt x="1065" y="1590" on="0"/>
        <pt x="1006" y="1559" on="0"/>
      </contour>
      <contour>
        <pt x="524" y="868" on="1"/>
        <pt x="651" y="821" on="1"/>
        <pt x="646" y="803" on="0"/>
        <pt x="601" y="773" on="0"/>
        <pt x="572" y="772" on="1"/>
        <pt x="572" y="-112" on="1"/>
        <pt x="571" y="-119" on="0"/>
        <pt x="502" y="-154" on="0"/>
        <pt x="466" y="-154" on="1"/>
        <pt x="440" y="-154" on="1"/>
        <pt x="440" y="774" on="1"/>
      </contour>
    </TTGlyph>
    <TTGlyph name="cid14165" xMin="70" yMin="-172" xMax="1944" yMax="1672">
      <contour>
        <pt x="1056" y="1574" on="1"/>
        <pt x="1041" y="1211" on="0"/>
        <pt x="879" y="150" on="0"/>
        <pt x="112" y="-172" on="1"/>
        <pt x="70" y="-102" on="1"/>
        <pt x="674" y="212" on="0"/>
        <pt x="917" y="1102" on="0"/>
        <pt x="910" y="1672" on="1"/>
        <pt x="1145" y="1648" on="1"/>
        <pt x="1141" y="1618" on="0"/>
        <pt x="1090" y="1577" on="0"/>
      </contour>
      <contour>
        <pt x="1005" y="1045" on="1"/>
        <pt x="1082" y="1045" on="1"/>
        <pt x="1139" y="750" on="0"/>
        <pt x="1501" y="177" on="0"/>
        <pt x="1944" y="-26" on="1"/>
        <pt x="1940" y="-48" on="1"/>
        <pt x="1888" y="-54" on="0"/>
        <pt x="1817" y="-101" on="0"/>
        <pt x="1802" y="-158" on="1"/>
        <pt x="1387" y="70" on="0"/>
        <pt x="1051" y="734" on="0"/>
      </contour>
      <contour>
        <pt x="1864" y="1008" on="1"/>
        <pt x="123" y="1008" on="1"/>
        <pt x="95" y="1106" on="1"/>
        <pt x="1640" y="1106" on="1"/>
        <pt x="1591" y="1063" on="1"/>
        <pt x="1720" y="1224" on="1"/>
        <pt x="1720" y="1224" on="0"/>
        <pt x="1875" y="1099" on="0"/>
        <pt x="1930" y="1048" on="1"/>
        <pt x="1927" y="1032" on="0"/>
        <pt x="1894" y="1008" on="0"/>
      </contour>
    </TTGlyph>
    <TTGlyph name="cid17712" xMin="41" yMin="-156" xMax="1961" yMax="1672">
      <contour>
        <pt x="496" y="1672" on="1"/>
        <pt x="701" y="1564" on="1"/>
        <pt x="691" y="1542" on="0"/>
        <pt x="628" y="1525" on="0"/>
        <pt x="589" y="1534" on="1"/>
        <pt x="521" y="1449" on="0"/>
        <pt x="260" y="1201" on="0"/>
        <pt x="111" y="1114" on="1"/>
        <pt x="67" y="1168" on="1"/>
        <pt x="189" y="1274" on="0"/>
        <pt x="436" y="1557" on="0"/>
      </contour>
      <contour>
        <pt x="634" y="1138" on="1"/>
        <pt x="526" y="974" on="0"/>
        <pt x="257" y="660" on="0"/>
        <pt x="92" y="536" on="1"/>
        <pt x="41" y="587" on="1"/>
        <pt x="187" y="732" on="0"/>
        <pt x="463" y="1115" on="0"/>
        <pt x="532" y="1266" on="1"/>
        <pt x="739" y="1166" on="1"/>
        <pt x="729" y="1144" on="0"/>
        <pt x="674" y="1127" on="0"/>
      </contour>
      <contour>
        <pt x="1672" y="-24" on="1"/>
        <pt x="1782" y="118" on="1"/>
        <pt x="1782" y="118" on="0"/>
        <pt x="1913" y="11" on="0"/>
        <pt x="1961" y="-35" on="1"/>
        <pt x="1957" y="-52" on="0"/>
        <pt x="1932" y="-78" on="0"/>
        <pt x="1902" y="-78" on="1"/>
        <pt x="584" y="-78" on="1"/>
        <pt x="557" y="20" on="1"/>
        <pt x="818" y="20" on="1"/>
        <pt x="818" y="1034" on="1"/>
        <pt x="1038" y="1010" on="1"/>
        <pt x="1035" y="982" on="0"/>
        <pt x="989" y="942" on="0"/>
        <pt x="944" y="936" on="1"/>
        <pt x="944" y="20" on="1"/>
        <pt x="1226" y="20" on="1"/>
        <pt x="1226" y="1382" on="1"/>
        <pt x="726" y="1382" on="1"/>
        <pt x="700" y="1482" on="1"/>
        <pt x="1650" y="1482" on="1"/>
        <pt x="1742" y="1598" on="1"/>
        <pt x="1742" y="1598" on="0"/>
        <pt x="1888" y="1478" on="0"/>
        <pt x="1936" y="1432" on="1"/>
        <pt x="1932" y="1413" on="0"/>
        <pt x="1890" y="1382" on="0"/>
        <pt x="1862" y="1382" on="1"/>
        <pt x="1356" y="1382" on="1"/>
        <pt x="1356" y="810" on="1"/>
        <pt x="1662" y="810" on="1"/>
        <pt x="1594" y="766" on="1"/>
        <pt x="1704" y="908" on="1"/>
        <pt x="1704" y="908" on="0"/>
        <pt x="1839" y="795" on="0"/>
        <pt x="1888" y="750" on="1"/>
        <pt x="1884" y="735" on="0"/>
        <pt x="1841" y="714" on="0"/>
        <pt x="1820" y="714" on="1"/>
        <pt x="1356" y="714" on="1"/>
        <pt x="1356" y="20" on="1"/>
        <pt x="1780" y="20" on="1"/>
      </contour>
      <contour>
        <pt x="350" y="852" on="1"/>
        <pt x="425" y="932" on="1"/>
        <pt x="551" y="885" on="1"/>
        <pt x="544" y="866" on="0"/>
        <pt x="503" y="838" on="0"/>
        <pt x="478" y="832" on="1"/>
        <pt x="478" y="-110" on="1"/>
        <pt x="477" y="-119" on="0"/>
        <pt x="412" y="-156" on="0"/>
        <pt x="376" y="-156" on="1"/>
        <pt x="350" y="-156" on="1"/>
      </contour>
    </TTGlyph>
    <TTGlyph name="cid17723" xMin="48" yMin="-178" xMax="1934" yMax="1664">
      <contour>
        <pt x="528" y="1664" on="1"/>
        <pt x="727" y="1553" on="1"/>
        <pt x="716" y="1534" on="0"/>
        <pt x="661" y="1517" on="0"/>
        <pt x="619" y="1527" on="1"/>
        <pt x="541" y="1435" on="0"/>
        <pt x="256" y="1169" on="0"/>
        <pt x="96" y="1078" on="1"/>
        <pt x="48" y="1132" on="1"/>
        <pt x="182" y="1245" on="0"/>
        <pt x="458" y="1543" on="0"/>
      </contour>
      <contour>
        <pt x="655" y="1121" on="1"/>
        <pt x="535" y="933" on="0"/>
        <pt x="209" y="572" on="0"/>
        <pt x="108" y="503" on="1"/>
        <pt x="57" y="558" on="1"/>
        <pt x="205" y="707" on="0"/>
        <pt x="486" y="1103" on="0"/>
        <pt x="556" y="1260" on="1"/>
        <pt x="764" y="1155" on="1"/>
        <pt x="754" y="1135" on="0"/>
        <pt x="701" y="1116" on="0"/>
      </contour>
      <contour>
        <pt x="966" y="1128" on="1"/>
        <pt x="966" y="892" on="1"/>
        <pt x="1596" y="892" on="1"/>
        <pt x="1596" y="1128" on="1"/>
      </contour>
      <contour>
        <pt x="966" y="1228" on="1"/>
        <pt x="1596" y="1228" on="1"/>
        <pt x="1596" y="1456" on="1"/>
        <pt x="966" y="1456" on="1"/>
      </contour>
      <contour>
        <pt x="464" y="930" on="1"/>
        <pt x="590" y="884" on="1"/>
        <pt x="585" y="868" on="0"/>
        <pt x="542" y="839" on="0"/>
        <pt x="508" y="836" on="1"/>
        <pt x="508" y="-108" on="1"/>
        <pt x="507" y="-117" on="0"/>
        <pt x="441" y="-156" on="0"/>
        <pt x="402" y="-156" on="1"/>
        <pt x="380" y="-156" on="1"/>
        <pt x="380" y="830" on="1"/>
      </contour>
      <contour>
        <pt x="1431" y="329" on="1"/>
        <pt x="1393" y="388" on="1"/>
        <pt x="1487" y="474" on="0"/>
        <pt x="1675" y="653" on="0"/>
        <pt x="1720" y="710" on="1"/>
        <pt x="1878" y="591" on="1"/>
        <pt x="1868" y="579" on="0"/>
        <pt x="1821" y="570" on="0"/>
        <pt x="1792" y="580" on="1"/>
        <pt x="1750" y="547" on="0"/>
        <pt x="1553" y="390" on="0"/>
      </contour>
      <contour>
        <pt x="1252" y="792" on="1"/>
        <pt x="1339" y="493" on="0"/>
        <pt x="1697" y="65" on="0"/>
        <pt x="1934" y="-16" on="1"/>
        <pt x="1932" y="-40" on="1"/>
        <pt x="1893" y="-46" on="0"/>
        <pt x="1833" y="-104" on="0"/>
        <pt x="1820" y="-150" on="1"/>
        <pt x="1563" y="-22" on="0"/>
        <pt x="1240" y="456" on="0"/>
        <pt x="1168" y="792" on="1"/>
        <pt x="966" y="792" on="1"/>
        <pt x="966" y="42" on="1"/>
        <pt x="1045" y="69" on="0"/>
        <pt x="1226" y="158" on="0"/>
        <pt x="1322" y="197" on="1"/>
        <pt x="1349" y="133" on="1"/>
        <pt x="1280" y="91" on="0"/>
        <pt x="1030" y="-37" on="0"/>
        <pt x="905" y="-103" on="1"/>
        <pt x="901" y="-131" on="0"/>
        <pt x="867" y="-171" on="0"/>
        <pt x="846" y="-178" on="1"/>
        <pt x="772" y="-16" on="1"/>
        <pt x="815" y="6" on="0"/>
        <pt x="838" y="38" on="0"/>
        <pt x="838" y="68" on="1"/>
        <pt x="838" y="1630" on="1"/>
        <pt x="990" y="1554" on="1"/>
        <pt x="1576" y="1554" on="1"/>
        <pt x="1650" y="1634" on="1"/>
        <pt x="1815" y="1505" on="1"/>
        <pt x="1806" y="1489" on="0"/>
        <pt x="1754" y="1464" on="0"/>
        <pt x="1724" y="1460" on="1"/>
        <pt x="1724" y="766" on="1"/>
        <pt x="1723" y="756" on="0"/>
        <pt x="1649" y="720" on="0"/>
        <pt x="1616" y="720" on="1"/>
        <pt x="1596" y="720" on="1"/>
        <pt x="1596" y="792" on="1"/>
      </contour>
    </TTGlyph>
    <TTGlyph name="cid18928" xMin="86" yMin="-164" xMax="1910" yMax="1664">
      <contour>
        <pt x="1644" y="-58" on="1"/>
        <pt x="1320" y="178" on="0"/>
        <pt x="1134" y="1108" on="0"/>
        <pt x="1134" y="1664" on="1"/>
        <pt x="1342" y="1638" on="1"/>
        <pt x="1339" y="1620" on="0"/>
        <pt x="1307" y="1588" on="0"/>
        <pt x="1270" y="1582" on="1"/>
        <pt x="1266" y="842" on="0"/>
        <pt x="1510" y="226" on="0"/>
        <pt x="1710" y="72" on="1"/>
        <pt x="1735" y="53" on="0"/>
        <pt x="1757" y="56" on="0"/>
        <pt x="1770" y="84" on="1"/>
        <pt x="1788" y="121" on="0"/>
        <pt x="1825" y="253" on="0"/>
        <pt x="1840" y="313" on="1"/>
        <pt x="1899" y="302" on="1"/>
        <pt x="1846" y="6" on="1"/>
        <pt x="1891" y="-48" on="0"/>
        <pt x="1907" y="-101" on="0"/>
        <pt x="1894" y="-118" on="1"/>
        <pt x="1860" y="-164" on="0"/>
        <pt x="1710" y="-107" on="0"/>
      </contour>
      <contour>
        <pt x="448" y="-54" on="1"/>
        <pt x="426" y="-36" on="0"/>
        <pt x="344" y="-11" on="0"/>
        <pt x="272" y="-2" on="1"/>
        <pt x="272" y="58" on="1"/>
        <pt x="272" y="58" on="0"/>
        <pt x="493" y="44" on="0"/>
        <pt x="526" y="44" on="1"/>
        <pt x="554" y="44" on="0"/>
        <pt x="574" y="64" on="0"/>
        <pt x="574" y="86" on="1"/>
        <pt x="574" y="1440" on="1"/>
        <pt x="702" y="1481" on="1"/>
        <pt x="702" y="50" on="1"/>
        <pt x="702" y="-28" on="0"/>
        <pt x="631" y="-137" on="0"/>
        <pt x="492" y="-150" on="1"/>
        <pt x="489" y="-120" on="0"/>
        <pt x="467" y="-67" on="0"/>
      </contour>
      <contour>
        <pt x="88" y="1050" on="1"/>
        <pt x="1666" y="1050" on="1"/>
        <pt x="1617" y="1007" on="1"/>
        <pt x="1734" y="1152" on="1"/>
        <pt x="1734" y="1152" on="0"/>
        <pt x="1861" y="1050" on="0"/>
        <pt x="1910" y="1002" on="1"/>
        <pt x="1907" y="986" on="0"/>
        <pt x="1881" y="950" on="0"/>
        <pt x="1860" y="950" on="1"/>
        <pt x="118" y="950" on="1"/>
      </contour>
      <contour>
        <pt x="86" y="508" on="1"/>
        <pt x="290" y="551" on="0"/>
        <pt x="792" y="696" on="0"/>
        <pt x="1091" y="774" on="1"/>
        <pt x="1115" y="698" on="1"/>
        <pt x="890" y="612" on="0"/>
        <pt x="435" y="473" on="0"/>
        <pt x="230" y="403" on="1"/>
        <pt x="227" y="375" on="0"/>
        <pt x="192" y="333" on="0"/>
        <pt x="169" y="326" on="1"/>
      </contour>
      <contour>
        <pt x="112" y="1366" on="1"/>
        <pt x="316" y="1415" on="0"/>
        <pt x="775" y="1564" on="0"/>
        <pt x="900" y="1634" on="1"/>
        <pt x="1074" y="1493" on="1"/>
        <pt x="1055" y="1472" on="0"/>
        <pt x="974" y="1469" on="0"/>
        <pt x="930" y="1494" on="1"/>
        <pt x="861" y="1469" on="0"/>
        <pt x="413" y="1324" on="0"/>
        <pt x="138" y="1290" on="1"/>
      </contour>
      <contour>
        <pt x="769" y="-76" on="1"/>
        <pt x="1153" y="116" on="0"/>
        <pt x="1558" y="692" on="0"/>
        <pt x="1618" y="872" on="1"/>
        <pt x="1838" y="789" on="1"/>
        <pt x="1831" y="763" on="0"/>
        <pt x="1768" y="738" on="0"/>
        <pt x="1727" y="745" on="1"/>
        <pt x="1658" y="583" on="0"/>
        <pt x="1240" y="23" on="0"/>
        <pt x="812" y="-143" on="1"/>
      </contour>
      <contour>
        <pt x="1391" y="1524" on="1"/>
        <pt x="1431" y="1568" on="1"/>
        <pt x="1768" y="1502" on="0"/>
        <pt x="1761" y="1200" on="0"/>
        <pt x="1658" y="1260" on="1"/>
        <pt x="1630" y="1333" on="0"/>
        <pt x="1464" y="1476" on="0"/>
      </contour>
    </TTGlyph>
    <TTGlyph name="cid20760" xMin="80" yMin="-102" xMax="1924" yMax="1636">
      <contour>
        <pt x="1476" y="1458" on="1"/>
        <pt x="548" y="1458" on="1"/>
        <pt x="548" y="1298" on="1"/>
        <pt x="1476" y="1298" on="1"/>
      </contour>
      <contour>
        <pt x="548" y="1034" on="1"/>
        <pt x="1476" y="1034" on="1"/>
        <pt x="1476" y="1202" on="1"/>
        <pt x="548" y="1202" on="1"/>
      </contour>
      <contour>
        <pt x="548" y="936" on="1"/>
        <pt x="548" y="874" on="1"/>
        <pt x="548" y="867" on="0"/>
        <pt x="478" y="832" on="0"/>
        <pt x="438" y="832" on="1"/>
        <pt x="420" y="832" on="1"/>
        <pt x="420" y="1620" on="1"/>
        <pt x="560" y="1556" on="1"/>
        <pt x="1456" y="1556" on="1"/>
        <pt x="1530" y="1636" on="1"/>
        <pt x="1692" y="1512" on="1"/>
        <pt x="1682" y="1500" on="0"/>
        <pt x="1636" y="1478" on="0"/>
        <pt x="1606" y="1472" on="1"/>
        <pt x="1606" y="894" on="1"/>
        <pt x="1605" y="884" on="0"/>
        <pt x="1529" y="850" on="0"/>
        <pt x="1496" y="850" on="1"/>
        <pt x="1476" y="850" on="1"/>
        <pt x="1476" y="936" on="1"/>
      </contour>
      <contour>
        <pt x="473" y="552" on="1"/>
        <pt x="507" y="648" on="1"/>
        <pt x="952" y="648" on="1"/>
        <pt x="952" y="872" on="1"/>
        <pt x="1156" y="850" on="1"/>
        <pt x="1152" y="829" on="0"/>
        <pt x="1119" y="799" on="0"/>
        <pt x="1082" y="792" on="1"/>
        <pt x="1082" y="648" on="1"/>
        <pt x="1546" y="648" on="1"/>
        <pt x="1498" y="604" on="1"/>
        <pt x="1608" y="748" on="1"/>
        <pt x="1608" y="748" on="0"/>
        <pt x="1739" y="640" on="0"/>
        <pt x="1787" y="594" on="1"/>
        <pt x="1782" y="578" on="0"/>
        <pt x="1750" y="552" on="0"/>
        <pt x="1726" y="552" on="1"/>
        <pt x="1082" y="552" on="1"/>
        <pt x="1082" y="334" on="1"/>
        <pt x="1504" y="334" on="1"/>
        <pt x="1455" y="290" on="1"/>
        <pt x="1566" y="430" on="1"/>
        <pt x="1566" y="430" on="0"/>
        <pt x="1696" y="324" on="0"/>
        <pt x="1744" y="278" on="1"/>
        <pt x="1740" y="260" on="0"/>
        <pt x="1706" y="238" on="0"/>
        <pt x="1682" y="238" on="1"/>
        <pt x="1082" y="238" on="1"/>
        <pt x="1082" y="-6" on="1"/>
        <pt x="1672" y="-6" on="1"/>
        <pt x="1624" y="-50" on="1"/>
        <pt x="1740" y="100" on="1"/>
        <pt x="1740" y="100" on="0"/>
        <pt x="1875" y="-13" on="0"/>
        <pt x="1924" y="-61" on="1"/>
        <pt x="1920" y="-78" on="0"/>
        <pt x="1890" y="-102" on="0"/>
        <pt x="1862" y="-102" on="1"/>
        <pt x="106" y="-102" on="1"/>
        <pt x="80" y="-6" on="1"/>
        <pt x="952" y="-6" on="1"/>
        <pt x="952" y="238" on="1"/>
        <pt x="394" y="238" on="1"/>
        <pt x="366" y="334" on="1"/>
        <pt x="952" y="334" on="1"/>
        <pt x="952" y="552" on="1"/>
      </contour>
      <contour>
        <pt x="672" y="772" on="1"/>
        <pt x="628" y="683" on="0"/>
        <pt x="379" y="354" on="0"/>
        <pt x="216" y="264" on="1"/>
        <pt x="164" y="316" on="1"/>
        <pt x="268" y="412" on="0"/>
        <pt x="493" y="707" on="0"/>
        <pt x="560" y="886" on="1"/>
        <pt x="750" y="800" on="1"/>
        <pt x="743" y="785" on="0"/>
        <pt x="705" y="766" on="0"/>
      </contour>
    </TTGlyph>
    <TTGlyph name="cid20785" xMin="60" yMin="-168" xMax="1928" yMax="1646">
      <contour>
        <pt x="1430" y="1468" on="1"/>
        <pt x="588" y="1468" on="1"/>
        <pt x="588" y="1310" on="1"/>
        <pt x="1430" y="1310" on="1"/>
      </contour>
      <contour>
        <pt x="588" y="1050" on="1"/>
        <pt x="1430" y="1050" on="1"/>
        <pt x="1430" y="1214" on="1"/>
        <pt x="588" y="1214" on="1"/>
      </contour>
      <contour>
        <pt x="588" y="950" on="1"/>
        <pt x="588" y="886" on="1"/>
        <pt x="588" y="877" on="0"/>
        <pt x="518" y="844" on="0"/>
        <pt x="478" y="844" on="1"/>
        <pt x="458" y="844" on="1"/>
        <pt x="458" y="1630" on="1"/>
        <pt x="598" y="1566" on="1"/>
        <pt x="1412" y="1566" on="1"/>
        <pt x="1484" y="1646" on="1"/>
        <pt x="1646" y="1524" on="1"/>
        <pt x="1636" y="1512" on="0"/>
        <pt x="1590" y="1488" on="0"/>
        <pt x="1562" y="1482" on="1"/>
        <pt x="1562" y="906" on="1"/>
        <pt x="1561" y="897" on="0"/>
        <pt x="1483" y="862" on="0"/>
        <pt x="1450" y="862" on="1"/>
        <pt x="1430" y="862" on="1"/>
        <pt x="1430" y="950" on="1"/>
      </contour>
      <contour>
        <pt x="1070" y="-40" on="1"/>
        <pt x="936" y="-22" on="1"/>
        <pt x="936" y="686" on="1"/>
        <pt x="119" y="686" on="1"/>
        <pt x="91" y="784" on="1"/>
        <pt x="1664" y="784" on="1"/>
        <pt x="1615" y="750" on="1"/>
        <pt x="1732" y="898" on="1"/>
        <pt x="1732" y="898" on="0"/>
        <pt x="1872" y="782" on="0"/>
        <pt x="1921" y="736" on="1"/>
        <pt x="1917" y="715" on="0"/>
        <pt x="1880" y="686" on="0"/>
        <pt x="1856" y="686" on="1"/>
        <pt x="1070" y="686" on="1"/>
        <pt x="1070" y="438" on="1"/>
        <pt x="1470" y="438" on="1"/>
        <pt x="1422" y="414" on="1"/>
        <pt x="1534" y="560" on="1"/>
        <pt x="1534" y="560" on="0"/>
        <pt x="1676" y="440" on="0"/>
        <pt x="1725" y="394" on="1"/>
        <pt x="1720" y="373" on="0"/>
        <pt x="1684" y="340" on="0"/>
        <pt x="1654" y="340" on="1"/>
        <pt x="1070" y="340" on="1"/>
      </contour>
      <contour>
        <pt x="530" y="302" on="1"/>
        <pt x="580" y="356" on="1"/>
        <pt x="675" y="168" on="0"/>
        <pt x="948" y="14" on="0"/>
        <pt x="1270" y="14" on="1"/>
        <pt x="1382" y="14" on="0"/>
        <pt x="1812" y="15" on="0"/>
        <pt x="1928" y="18" on="1"/>
        <pt x="1928" y="-12" on="1"/>
        <pt x="1892" y="-16" on="0"/>
        <pt x="1853" y="-71" on="0"/>
        <pt x="1852" y="-108" on="1"/>
        <pt x="1264" y="-108" on="1"/>
        <pt x="989" y="-108" on="0"/>
        <pt x="636" y="32" on="0"/>
      </contour>
      <contour>
        <pt x="662" y="528" on="1"/>
        <pt x="594" y="314" on="0"/>
        <pt x="323" y="-65" on="0"/>
        <pt x="104" y="-168" on="1"/>
        <pt x="60" y="-111" on="1"/>
        <pt x="263" y="25" on="0"/>
        <pt x="494" y="421" on="0"/>
        <pt x="534" y="618" on="1"/>
        <pt x="738" y="568" on="1"/>
        <pt x="732" y="549" on="0"/>
        <pt x="695" y="527" on="0"/>
      </contour>
    </TTGlyph>
    <TTGlyph name="cid23983" xMin="60" yMin="-158" xMax="1971" yMax="1676">
      <contour>
        <pt x="192" y="1628" on="1"/>
        <pt x="240" y="1676" on="1"/>
        <pt x="562" y="1630" on="0"/>
        <pt x="541" y="1331" on="0"/>
        <pt x="432" y="1392" on="1"/>
        <pt x="408" y="1461" on="0"/>
        <pt x="259" y="1586" on="0"/>
      </contour>
      <contour>
        <pt x="60" y="1170" on="1"/>
        <pt x="109" y="1213" on="1"/>
        <pt x="415" y="1182" on="0"/>
        <pt x="386" y="896" on="0"/>
        <pt x="280" y="956" on="1"/>
        <pt x="258" y="1016" on="0"/>
        <pt x="121" y="1131" on="0"/>
      </contour>
      <contour>
        <pt x="576" y="1317" on="1"/>
        <pt x="650" y="1296" on="1"/>
        <pt x="593" y="1112" on="0"/>
        <pt x="396" y="574" on="0"/>
        <pt x="378" y="502" on="1"/>
        <pt x="366" y="456" on="0"/>
        <pt x="349" y="363" on="0"/>
        <pt x="350" y="326" on="1"/>
        <pt x="350" y="260" on="0"/>
        <pt x="406" y="103" on="0"/>
        <pt x="400" y="-16" on="1"/>
        <pt x="397" y="-80" on="0"/>
        <pt x="341" y="-154" on="0"/>
        <pt x="292" y="-154" on="1"/>
        <pt x="264" y="-154" on="0"/>
        <pt x="230" y="-102" on="0"/>
        <pt x="226" y="-56" on="1"/>
        <pt x="248" y="93" on="0"/>
        <pt x="231" y="312" on="0"/>
        <pt x="200" y="334" on="1"/>
        <pt x="179" y="349" on="0"/>
        <pt x="137" y="359" on="0"/>
        <pt x="104" y="362" on="1"/>
        <pt x="104" y="426" on="1"/>
        <pt x="190" y="426" on="1"/>
        <pt x="208" y="426" on="0"/>
        <pt x="235" y="438" on="0"/>
        <pt x="248" y="468" on="1"/>
        <pt x="273" y="522" on="0"/>
        <pt x="336" y="726" on="0"/>
      </contour>
      <contour>
        <pt x="1068" y="1002" on="1"/>
        <pt x="1124" y="1037" on="1"/>
        <pt x="1387" y="946" on="0"/>
        <pt x="1346" y="710" on="0"/>
        <pt x="1264" y="764" on="1"/>
        <pt x="1245" y="822" on="0"/>
        <pt x="1117" y="956" on="0"/>
      </contour>
      <contour>
        <pt x="1026" y="562" on="1"/>
        <pt x="1080" y="602" on="1"/>
        <pt x="1352" y="501" on="0"/>
        <pt x="1308" y="246" on="0"/>
        <pt x="1224" y="304" on="1"/>
        <pt x="1206" y="370" on="0"/>
        <pt x="1080" y="514" on="0"/>
      </contour>
      <contour>
        <pt x="880" y="1326" on="1"/>
        <pt x="880" y="1426" on="1"/>
        <pt x="1712" y="1426" on="1"/>
        <pt x="1643" y="1383" on="1"/>
        <pt x="1756" y="1524" on="1"/>
        <pt x="1756" y="1524" on="0"/>
        <pt x="1889" y="1414" on="0"/>
        <pt x="1938" y="1368" on="1"/>
        <pt x="1935" y="1350" on="0"/>
        <pt x="1900" y="1326" on="0"/>
        <pt x="1872" y="1326" on="1"/>
      </contour>
      <contour>
        <pt x="1018" y="1566" on="1"/>
        <pt x="942" y="1370" on="0"/>
        <pt x="742" y="1023" on="0"/>
        <pt x="602" y="904" on="1"/>
        <pt x="544" y="948" on="1"/>
        <pt x="656" y="1079" on="0"/>
        <pt x="846" y="1488" on="0"/>
        <pt x="888" y="1676" on="1"/>
        <pt x="1113" y="1603" on="1"/>
        <pt x="1106" y="1581" on="0"/>
        <pt x="1060" y="1560" on="0"/>
      </contour>
      <contour>
        <pt x="1910" y="616" on="1"/>
        <pt x="517" y="616" on="1"/>
        <pt x="491" y="714" on="1"/>
        <pt x="1764" y="714" on="1"/>
        <pt x="1717" y="669" on="1"/>
        <pt x="1814" y="812" on="1"/>
        <pt x="1814" y="812" on="0"/>
        <pt x="1932" y="700" on="0"/>
        <pt x="1971" y="655" on="1"/>
        <pt x="1967" y="638" on="0"/>
        <pt x="1935" y="616" on="0"/>
      </contour>
      <contour>
        <pt x="1704" y="1070" on="1"/>
        <pt x="1691" y="584" on="0"/>
        <pt x="1629" y="12" on="0"/>
        <pt x="1560" y="-74" on="1"/>
        <pt x="1520" y="-119" on="0"/>
        <pt x="1410" y="-158" on="0"/>
        <pt x="1350" y="-158" on="1"/>
        <pt x="1350" y="-130" on="0"/>
        <pt x="1337" y="-88" on="0"/>
        <pt x="1318" y="-73" on="1"/>
        <pt x="1299" y="-58" on="0"/>
        <pt x="1209" y="-37" on="0"/>
        <pt x="1158" y="-30" on="1"/>
        <pt x="1160" y="38" on="1"/>
        <pt x="1214" y="32" on="0"/>
        <pt x="1360" y="20" on="0"/>
        <pt x="1390" y="20" on="1"/>
        <pt x="1418" y="20" on="0"/>
        <pt x="1448" y="29" on="0"/>
        <pt x="1462" y="46" on="1"/>
        <pt x="1530" y="129" on="0"/>
        <pt x="1573" y="738" on="0"/>
        <pt x="1583" y="1116" on="1"/>
        <pt x="1612" y="1046" on="1"/>
        <pt x="914" y="1046" on="1"/>
        <pt x="948" y="1116" on="1"/>
        <pt x="920" y="891" on="0"/>
        <pt x="838" y="359" on="0"/>
        <pt x="804" y="189" on="1"/>
        <pt x="780" y="258" on="1"/>
        <pt x="1750" y="258" on="1"/>
        <pt x="1663" y="214" on="1"/>
        <pt x="1758" y="348" on="1"/>
        <pt x="1758" y="348" on="0"/>
        <pt x="1876" y="245" on="0"/>
        <pt x="1916" y="202" on="1"/>
        <pt x="1912" y="183" on="0"/>
        <pt x="1882" y="160" on="0"/>
        <pt x="1856" y="160" on="1"/>
        <pt x="818" y="160" on="1"/>
        <pt x="752" y="90" on="1"/>
        <pt x="608" y="198" on="1"/>
        <pt x="623" y="208" on="0"/>
        <pt x="668" y="231" on="0"/>
        <pt x="690" y="238" on="1"/>
        <pt x="729" y="441" on="0"/>
        <pt x="811" y="1031" on="0"/>
        <pt x="828" y="1223" on="1"/>
        <pt x="988" y="1144" on="1"/>
        <pt x="1560" y="1144" on="1"/>
        <pt x="1638" y="1228" on="1"/>
        <pt x="1786" y="1102" on="1"/>
        <pt x="1777" y="1090" on="0"/>
        <pt x="1737" y="1073" on="0"/>
      </contour>
    </TTGlyph>
    <TTGlyph name="cid28344" xMin="180" yMin="-152" xMax="1908" yMax="1676">
      <contour>
        <pt x="304" y="216" on="1"/>
        <pt x="722" y="216" on="1"/>
        <pt x="722" y="684" on="1"/>
        <pt x="304" y="684" on="1"/>
      </contour>
      <contour>
        <pt x="722" y="1222" on="1"/>
        <pt x="304" y="1222" on="1"/>
        <pt x="304" y="782" on="1"/>
        <pt x="722" y="782" on="1"/>
      </contour>
      <contour>
        <pt x="776" y="1404" on="1"/>
        <pt x="932" y="1278" on="1"/>
        <pt x="925" y="1266" on="0"/>
        <pt x="878" y="1234" on="0"/>
        <pt x="848" y="1228" on="1"/>
        <pt x="848" y="12" on="1"/>
        <pt x="847" y="2" on="0"/>
        <pt x="773" y="-36" on="0"/>
        <pt x="742" y="-36" on="1"/>
        <pt x="722" y="-36" on="1"/>
        <pt x="722" y="118" on="1"/>
        <pt x="304" y="118" on="1"/>
        <pt x="304" y="-48" on="1"/>
        <pt x="304" y="-58" on="0"/>
        <pt x="242" y="-94" on="0"/>
        <pt x="202" y="-94" on="1"/>
        <pt x="180" y="-94" on="1"/>
        <pt x="180" y="1388" on="1"/>
        <pt x="314" y="1322" on="1"/>
        <pt x="360" y="1322" on="1"/>
        <pt x="387" y="1398" on="0"/>
        <pt x="443" y="1598" on="0"/>
        <pt x="456" y="1676" on="1"/>
        <pt x="692" y="1620" on="1"/>
        <pt x="685" y="1592" on="0"/>
        <pt x="625" y="1557" on="0"/>
        <pt x="580" y="1560" on="1"/>
        <pt x="559" y="1521" on="0"/>
        <pt x="494" y="1383" on="0"/>
        <pt x="466" y="1322" on="1"/>
        <pt x="702" y="1322" on="1"/>
      </contour>
      <contour>
        <pt x="1052" y="886" on="1"/>
        <pt x="1106" y="920" on="1"/>
        <pt x="1464" y="757" on="0"/>
        <pt x="1417" y="397" on="0"/>
        <pt x="1310" y="482" on="1"/>
        <pt x="1292" y="583" on="0"/>
        <pt x="1127" y="807" on="0"/>
      </contour>
      <contour>
        <pt x="1160" y="1324" on="1"/>
        <pt x="1672" y="1324" on="1"/>
        <pt x="1754" y="1412" on="1"/>
        <pt x="1908" y="1278" on="1"/>
        <pt x="1898" y="1262" on="0"/>
        <pt x="1859" y="1239" on="0"/>
        <pt x="1826" y="1236" on="1"/>
        <pt x="1816" y="699" on="0"/>
        <pt x="1752" y="33" on="0"/>
        <pt x="1682" y="-54" on="1"/>
        <pt x="1640" y="-105" on="0"/>
        <pt x="1523" y="-152" on="0"/>
        <pt x="1450" y="-152" on="1"/>
        <pt x="1450" y="-119" on="0"/>
        <pt x="1435" y="-65" on="0"/>
        <pt x="1414" y="-50" on="1"/>
        <pt x="1390" y="-32" on="0"/>
        <pt x="1275" y="0" on="0"/>
        <pt x="1214" y="10" on="1"/>
        <pt x="1216" y="76" on="1"/>
        <pt x="1283" y="69" on="0"/>
        <pt x="1462" y="54" on="0"/>
        <pt x="1498" y="54" on="1"/>
        <pt x="1529" y="54" on="0"/>
        <pt x="1560" y="64" on="0"/>
        <pt x="1576" y="80" on="1"/>
        <pt x="1631" y="135" on="0"/>
        <pt x="1684" y="743" on="0"/>
        <pt x="1694" y="1224" on="1"/>
        <pt x="1160" y="1224" on="1"/>
      </contour>
      <contour>
        <pt x="1328" y="1550" on="1"/>
        <pt x="1248" y="1322" on="0"/>
        <pt x="1041" y="943" on="0"/>
        <pt x="932" y="834" on="1"/>
        <pt x="866" y="872" on="1"/>
        <pt x="963" y="1018" on="0"/>
        <pt x="1155" y="1446" on="0"/>
        <pt x="1206" y="1676" on="1"/>
        <pt x="1436" y="1606" on="1"/>
        <pt x="1430" y="1581" on="0"/>
        <pt x="1376" y="1546" on="0"/>
      </contour>
    </TTGlyph>
    <TTGlyph name="cid31522" xMin="125" yMin="-158" xMax="1891" yMax="1690">
      <contour>
        <pt x="1230" y="1690" on="1"/>
        <pt x="1410" y="1560" on="1"/>
        <pt x="1395" y="1544" on="0"/>
        <pt x="1317" y="1534" on="0"/>
        <pt x="1274" y="1558" on="1"/>
        <pt x="1095" y="1476" on="0"/>
        <pt x="520" y="1257" on="0"/>
        <pt x="238" y="1200" on="1"/>
        <pt x="217" y="1272" on="1"/>
        <pt x="483" y="1348" on="0"/>
        <pt x="1070" y="1584" on="0"/>
      </contour>
      <contour>
        <pt x="676" y="394" on="1"/>
        <pt x="854" y="287" on="1"/>
        <pt x="842" y="271" on="0"/>
        <pt x="791" y="255" on="0"/>
        <pt x="753" y="268" on="1"/>
        <pt x="666" y="184" on="0"/>
        <pt x="344" y="-36" on="0"/>
        <pt x="166" y="-102" on="1"/>
        <pt x="125" y="-42" on="1"/>
        <pt x="277" y="45" on="0"/>
        <pt x="595" y="285" on="0"/>
      </contour>
      <contour>
        <pt x="1264" y="353" on="1"/>
        <pt x="1307" y="406" on="1"/>
        <pt x="1810" y="263" on="0"/>
        <pt x="1891" y="-129" on="0"/>
        <pt x="1766" y="-72" on="1"/>
        <pt x="1703" y="38" on="0"/>
        <pt x="1389" y="277" on="0"/>
      </contour>
      <contour>
        <pt x="1110" y="1002" on="1"/>
        <pt x="1028" y="916" on="1"/>
        <pt x="889" y="892" on="0"/>
        <pt x="621" y="861" on="0"/>
        <pt x="484" y="842" on="1"/>
        <pt x="475" y="826" on="0"/>
        <pt x="454" y="802" on="0"/>
        <pt x="444" y="798" on="1"/>
        <pt x="364" y="958" on="1"/>
        <pt x="364" y="958" on="0"/>
        <pt x="405" y="966" on="0"/>
        <pt x="418" y="972" on="1"/>
        <pt x="578" y="1042" on="0"/>
        <pt x="945" y="1330" on="0"/>
        <pt x="1032" y="1424" on="1"/>
        <pt x="1213" y="1310" on="1"/>
        <pt x="1197" y="1289" on="0"/>
        <pt x="1130" y="1273" on="0"/>
        <pt x="1090" y="1288" on="1"/>
        <pt x="1006" y="1219" on="0"/>
        <pt x="673" y="996" on="0"/>
        <pt x="465" y="900" on="1"/>
        <pt x="464" y="949" on="1"/>
        <pt x="613" y="956" on="0"/>
        <pt x="925" y="990" on="0"/>
      </contour>
      <contour>
        <pt x="1662" y="428" on="1"/>
        <pt x="1641" y="551" on="0"/>
        <pt x="1462" y="785" on="0"/>
        <pt x="1403" y="852" on="1"/>
        <pt x="1462" y="887" on="1"/>
        <pt x="1804" y="703" on="0"/>
        <pt x="1762" y="347" on="0"/>
      </contour>
      <contour>
        <pt x="1651" y="576" on="1"/>
        <pt x="1314" y="528" on="0"/>
        <pt x="687" y="467" on="0"/>
        <pt x="462" y="442" on="1"/>
        <pt x="455" y="417" on="0"/>
        <pt x="424" y="378" on="0"/>
        <pt x="406" y="372" on="1"/>
        <pt x="314" y="556" on="1"/>
        <pt x="314" y="556" on="0"/>
        <pt x="366" y="563" on="0"/>
        <pt x="382" y="570" on="1"/>
        <pt x="587" y="657" on="0"/>
        <pt x="1213" y="1075" on="0"/>
        <pt x="1384" y="1244" on="1"/>
        <pt x="1559" y="1108" on="1"/>
        <pt x="1545" y="1089" on="0"/>
        <pt x="1472" y="1075" on="0"/>
        <pt x="1436" y="1090" on="1"/>
        <pt x="1297" y="984" on="0"/>
        <pt x="742" y="643" on="0"/>
        <pt x="425" y="499" on="1"/>
        <pt x="410" y="549" on="1"/>
        <pt x="658" y="560" on="0"/>
        <pt x="1263" y="624" on="0"/>
        <pt x="1622" y="650" on="1"/>
      </contour>
      <contour>
        <pt x="1006" y="540" on="1"/>
        <pt x="1138" y="560" on="1"/>
        <pt x="1138" y="30" on="1"/>
        <pt x="1138" y="-46" on="0"/>
        <pt x="1066" y="-145" on="0"/>
        <pt x="932" y="-158" on="1"/>
        <pt x="929" y="-130" on="0"/>
        <pt x="912" y="-82" on="0"/>
        <pt x="894" y="-66" on="1"/>
        <pt x="873" y="-53" on="0"/>
        <pt x="794" y="-29" on="0"/>
        <pt x="728" y="-20" on="1"/>
        <pt x="728" y="40" on="1"/>
        <pt x="728" y="40" on="0"/>
        <pt x="930" y="28" on="0"/>
        <pt x="960" y="28" on="1"/>
        <pt x="987" y="28" on="0"/>
        <pt x="1006" y="43" on="0"/>
        <pt x="1006" y="62" on="1"/>
      </contour>
    </TTGlyph>
    <TTGlyph name="cid41012" xMin="38" yMin="-166" xMax="1932" yMax="1654">
      <contour>
        <pt x="448" y="1082" on="1"/>
        <pt x="448" y="782" on="0"/>
        <pt x="335" y="79" on="0"/>
        <pt x="102" y="-166" on="1"/>
        <pt x="38" y="-124" on="1"/>
        <pt x="211" y="148" on="0"/>
        <pt x="320" y="779" on="0"/>
        <pt x="320" y="1082" on="1"/>
        <pt x="320" y="1594" on="1"/>
        <pt x="472" y="1526" on="1"/>
        <pt x="1600" y="1526" on="1"/>
        <pt x="1702" y="1654" on="1"/>
        <pt x="1702" y="1654" on="0"/>
        <pt x="1858" y="1531" on="0"/>
        <pt x="1910" y="1482" on="1"/>
        <pt x="1906" y="1460" on="0"/>
        <pt x="1865" y="1428" on="0"/>
        <pt x="1840" y="1428" on="1"/>
        <pt x="448" y="1428" on="1"/>
        <pt x="448" y="1230" on="1"/>
        <pt x="1440" y="1230" on="1"/>
        <pt x="1391" y="1187" on="1"/>
        <pt x="1514" y="1340" on="1"/>
        <pt x="1514" y="1340" on="0"/>
        <pt x="1655" y="1223" on="0"/>
        <pt x="1707" y="1174" on="1"/>
        <pt x="1703" y="1153" on="0"/>
        <pt x="1671" y="1130" on="0"/>
        <pt x="1646" y="1130" on="1"/>
        <pt x="448" y="1130" on="1"/>
      </contour>
      <contour>
        <pt x="1096" y="816" on="1"/>
        <pt x="1167" y="561" on="0"/>
        <pt x="1589" y="106" on="0"/>
        <pt x="1932" y="18" on="1"/>
        <pt x="1926" y="-4" on="1"/>
        <pt x="1880" y="-8" on="0"/>
        <pt x="1812" y="-67" on="0"/>
        <pt x="1796" y="-118" on="1"/>
        <pt x="1495" y="6" on="0"/>
        <pt x="1095" y="459" on="0"/>
        <pt x="1014" y="816" on="1"/>
        <pt x="790" y="816" on="1"/>
        <pt x="790" y="36" on="1"/>
        <pt x="761" y="59" on="1"/>
        <pt x="869" y="84" on="0"/>
        <pt x="1093" y="159" on="0"/>
        <pt x="1206" y="190" on="1"/>
        <pt x="1223" y="122" on="1"/>
        <pt x="1144" y="83" on="0"/>
        <pt x="865" y="-30" on="0"/>
        <pt x="710" y="-100" on="1"/>
        <pt x="700" y="-118" on="0"/>
        <pt x="672" y="-140" on="0"/>
        <pt x="662" y="-144" on="1"/>
        <pt x="578" y="28" on="1"/>
        <pt x="632" y="53" on="0"/>
        <pt x="662" y="85" on="0"/>
        <pt x="662" y="110" on="1"/>
        <pt x="662" y="816" on="1"/>
        <pt x="400" y="816" on="1"/>
        <pt x="400" y="914" on="1"/>
        <pt x="1654" y="914" on="1"/>
        <pt x="1585" y="870" on="1"/>
        <pt x="1700" y="1016" on="1"/>
        <pt x="1700" y="1016" on="0"/>
        <pt x="1840" y="910" on="0"/>
        <pt x="1892" y="862" on="1"/>
        <pt x="1888" y="843" on="0"/>
        <pt x="1857" y="816" on="0"/>
        <pt x="1832" y="816" on="1"/>
      </contour>
      <contour>
        <pt x="1240" y="438" on="1"/>
        <pt x="1341" y="523" on="0"/>
        <pt x="1544" y="695" on="0"/>
        <pt x="1596" y="756" on="1"/>
        <pt x="1786" y="623" on="1"/>
        <pt x="1773" y="604" on="0"/>
        <pt x="1715" y="592" on="0"/>
        <pt x="1676" y="610" on="1"/>
        <pt x="1618" y="574" on="0"/>
        <pt x="1410" y="437" on="0"/>
        <pt x="1288" y="378" on="1"/>
      </contour>
    </TTGlyph>
    <TTGlyph name="cid41116" xMin="64" yMin="-154" xMax="1922" yMax="1650">
      <contour>
        <pt x="1716" y="1424" on="1"/>
        <pt x="754" y="1424" on="1"/>
        <pt x="728" y="1522" on="1"/>
        <pt x="1488" y="1522" on="1"/>
        <pt x="1586" y="1646" on="1"/>
        <pt x="1586" y="1646" on="0"/>
        <pt x="1736" y="1528" on="0"/>
        <pt x="1788" y="1480" on="1"/>
        <pt x="1784" y="1456" on="0"/>
        <pt x="1747" y="1424" on="0"/>
      </contour>
      <contour>
        <pt x="948" y="998" on="1"/>
        <pt x="613" y="998" on="1"/>
        <pt x="587" y="1098" on="1"/>
        <pt x="1668" y="1098" on="1"/>
        <pt x="1619" y="1055" on="1"/>
        <pt x="1736" y="1198" on="1"/>
        <pt x="1736" y="1198" on="0"/>
        <pt x="1871" y="1088" on="0"/>
        <pt x="1922" y="1040" on="1"/>
        <pt x="1917" y="1022" on="0"/>
        <pt x="1886" y="998" on="0"/>
        <pt x="1858" y="998" on="1"/>
        <pt x="1458" y="998" on="1"/>
        <pt x="1458" y="360" on="1"/>
        <pt x="1458" y="339" on="0"/>
        <pt x="1479" y="322" on="0"/>
        <pt x="1516" y="322" on="1"/>
        <pt x="1636" y="322" on="1"/>
        <pt x="1678" y="322" on="0"/>
        <pt x="1738" y="325" on="0"/>
        <pt x="1750" y="326" on="1"/>
        <pt x="1763" y="326" on="0"/>
        <pt x="1776" y="335" on="0"/>
        <pt x="1782" y="348" on="1"/>
        <pt x="1792" y="370" on="0"/>
        <pt x="1809" y="519" on="0"/>
        <pt x="1818" y="600" on="1"/>
        <pt x="1884" y="600" on="1"/>
        <pt x="1870" y="340" on="1"/>
        <pt x="1901" y="328" on="0"/>
        <pt x="1920" y="301" on="0"/>
        <pt x="1920" y="282" on="1"/>
        <pt x="1920" y="243" on="0"/>
        <pt x="1807" y="204" on="0"/>
        <pt x="1632" y="204" on="1"/>
        <pt x="1486" y="204" on="1"/>
        <pt x="1389" y="204" on="0"/>
        <pt x="1332" y="261" on="0"/>
        <pt x="1332" y="328" on="1"/>
        <pt x="1332" y="998" on="1"/>
        <pt x="1084" y="998" on="1"/>
        <pt x="1072" y="702" on="0"/>
        <pt x="903" y="288" on="0"/>
        <pt x="640" y="148" on="1"/>
        <pt x="604" y="211" on="1"/>
        <pt x="811" y="374" on="0"/>
        <pt x="945" y="740" on="0"/>
      </contour>
      <contour>
        <pt x="150" y="1622" on="1"/>
        <pt x="212" y="1650" on="1"/>
        <pt x="542" y="1472" on="0"/>
        <pt x="496" y="1138" on="0"/>
        <pt x="392" y="1214" on="1"/>
        <pt x="371" y="1313" on="0"/>
        <pt x="213" y="1540" on="0"/>
      </contour>
      <contour>
        <pt x="452" y="240" on="1"/>
        <pt x="332" y="200" on="1"/>
        <pt x="332" y="892" on="1"/>
        <pt x="76" y="892" on="1"/>
        <pt x="64" y="992" on="1"/>
        <pt x="304" y="992" on="1"/>
        <pt x="380" y="1090" on="1"/>
        <pt x="570" y="932" on="1"/>
        <pt x="558" y="919" on="0"/>
        <pt x="497" y="895" on="0"/>
        <pt x="452" y="892" on="1"/>
      </contour>
      <contour>
        <pt x="68" y="0" on="1"/>
        <pt x="266" y="178" on="1"/>
        <pt x="330" y="236" on="0"/>
        <pt x="393" y="280" on="0"/>
        <pt x="414" y="280" on="1"/>
        <pt x="433" y="280" on="0"/>
        <pt x="458" y="270" on="0"/>
        <pt x="476" y="252" on="1"/>
        <pt x="615" y="106" on="0"/>
        <pt x="980" y="19" on="0"/>
        <pt x="1264" y="20" on="1"/>
        <pt x="1437" y="21" on="0"/>
        <pt x="1743" y="23" on="0"/>
        <pt x="1922" y="30" on="1"/>
        <pt x="1922" y="6" on="1"/>
        <pt x="1876" y="-4" on="0"/>
        <pt x="1822" y="-65" on="0"/>
        <pt x="1816" y="-110" on="1"/>
        <pt x="1220" y="-110" on="1"/>
        <pt x="933" y="-110" on="0"/>
        <pt x="600" y="-12" on="0"/>
        <pt x="446" y="154" on="1"/>
        <pt x="427" y="175" on="0"/>
        <pt x="400" y="172" on="0"/>
        <pt x="386" y="154" on="1"/>
        <pt x="347" y="106" on="0"/>
        <pt x="239" y="-27" on="0"/>
        <pt x="208" y="-84" on="1"/>
        <pt x="215" y="-102" on="0"/>
        <pt x="209" y="-140" on="0"/>
        <pt x="195" y="-154" on="1"/>
      </contour>
    </TTGlyph>
    <TTGlyph name="cid41261" xMin="76" yMin="-138" xMax="1926" yMax="1669">
      <contour>
        <pt x="1519" y="755" on="1"/>
        <pt x="1624" y="884" on="1"/>
        <pt x="1624" y="884" on="0"/>
        <pt x="1748" y="783" on="0"/>
        <pt x="1796" y="740" on="1"/>
        <pt x="1792" y="722" on="0"/>
        <pt x="1756" y="700" on="0"/>
        <pt x="1730" y="700" on="1"/>
        <pt x="1278" y="700" on="1"/>
        <pt x="1278" y="126" on="1"/>
        <pt x="1278" y="119" on="0"/>
        <pt x="1220" y="86" on="0"/>
        <pt x="1172" y="86" on="1"/>
        <pt x="1152" y="86" on="1"/>
        <pt x="1152" y="700" on="1"/>
        <pt x="739" y="700" on="1"/>
        <pt x="712" y="798" on="1"/>
        <pt x="1152" y="798" on="1"/>
        <pt x="1152" y="1016" on="1"/>
        <pt x="922" y="1016" on="1"/>
        <pt x="899" y="1116" on="1"/>
        <pt x="1406" y="1116" on="1"/>
        <pt x="1337" y="1073" on="1"/>
        <pt x="1430" y="1184" on="1"/>
        <pt x="1430" y="1184" on="0"/>
        <pt x="1543" y="1095" on="0"/>
        <pt x="1583" y="1056" on="1"/>
        <pt x="1579" y="1038" on="0"/>
        <pt x="1547" y="1016" on="0"/>
        <pt x="1522" y="1016" on="1"/>
        <pt x="1278" y="1016" on="1"/>
        <pt x="1278" y="798" on="1"/>
        <pt x="1588" y="798" on="1"/>
      </contour>
      <contour>
        <pt x="1337" y="562" on="1"/>
        <pt x="1390" y="605" on="1"/>
        <pt x="1763" y="448" on="0"/>
        <pt x="1752" y="94" on="0"/>
        <pt x="1648" y="166" on="1"/>
        <pt x="1623" y="266" on="0"/>
        <pt x="1424" y="487" on="0"/>
      </contour>
      <contour>
        <pt x="653" y="132" on="1"/>
        <pt x="602" y="187" on="1"/>
        <pt x="698" y="278" on="0"/>
        <pt x="873" y="522" on="0"/>
        <pt x="910" y="628" on="1"/>
        <pt x="1100" y="539" on="1"/>
        <pt x="1093" y="519" on="0"/>
        <pt x="1041" y="501" on="0"/>
        <pt x="1002" y="508" on="1"/>
        <pt x="953" y="429" on="0"/>
        <pt x="771" y="207" on="0"/>
      </contour>
      <contour>
        <pt x="175" y="1633" on="1"/>
        <pt x="231" y="1669" on="1"/>
        <pt x="528" y="1569" on="0"/>
        <pt x="475" y="1272" on="0"/>
        <pt x="378" y="1342" on="1"/>
        <pt x="363" y="1418" on="0"/>
        <pt x="232" y="1576" on="0"/>
      </contour>
      <contour>
        <pt x="1226" y="1512" on="1"/>
        <pt x="1246" y="1582" on="1"/>
        <pt x="1792" y="1312" on="0"/>
        <pt x="1770" y="981" on="0"/>
        <pt x="1682" y="1044" on="1"/>
        <pt x="1627" y="1141" on="0"/>
        <pt x="1389" y="1376" on="0"/>
      </contour>
      <contour>
        <pt x="1264" y="1541" on="1"/>
        <pt x="1164" y="1397" on="0"/>
        <pt x="867" y="1093" on="0"/>
        <pt x="688" y="1002" on="1"/>
        <pt x="640" y="1056" on="1"/>
        <pt x="797" y="1171" on="0"/>
        <pt x="1085" y="1510" on="0"/>
        <pt x="1148" y="1650" on="1"/>
        <pt x="1384" y="1580" on="1"/>
        <pt x="1377" y="1556" on="0"/>
        <pt x="1316" y="1531" on="0"/>
      </contour>
      <contour>
        <pt x="402" y="208" on="1"/>
        <pt x="324" y="218" on="1"/>
        <pt x="398" y="327" on="0"/>
        <pt x="490" y="562" on="0"/>
        <pt x="506" y="656" on="1"/>
        <pt x="270" y="656" on="1"/>
        <pt x="238" y="630" on="1"/>
        <pt x="126" y="732" on="1"/>
        <pt x="141" y="741" on="0"/>
        <pt x="185" y="758" on="0"/>
        <pt x="206" y="762" on="1"/>
        <pt x="255" y="834" on="0"/>
        <pt x="381" y="1039" on="0"/>
        <pt x="435" y="1136" on="1"/>
        <pt x="450" y="1090" on="1"/>
        <pt x="119" y="1090" on="1"/>
        <pt x="91" y="1190" on="1"/>
        <pt x="476" y="1190" on="1"/>
        <pt x="405" y="1148" on="1"/>
        <pt x="496" y="1242" on="1"/>
        <pt x="638" y="1114" on="1"/>
        <pt x="625" y="1101" on="0"/>
        <pt x="571" y="1085" on="0"/>
        <pt x="540" y="1084" on="1"/>
        <pt x="498" y="1015" on="0"/>
        <pt x="377" y="820" on="0"/>
        <pt x="332" y="756" on="1"/>
        <pt x="520" y="756" on="1"/>
        <pt x="576" y="812" on="1"/>
        <pt x="726" y="684" on="1"/>
        <pt x="717" y="666" on="0"/>
        <pt x="666" y="652" on="0"/>
        <pt x="630" y="652" on="1"/>
        <pt x="602" y="561" on="0"/>
        <pt x="515" y="321" on="0"/>
      </contour>
      <contour>
        <pt x="76" y="2" on="1"/>
        <pt x="238" y="150" on="1"/>
        <pt x="299" y="206" on="0"/>
        <pt x="355" y="250" on="0"/>
        <pt x="382" y="250" on="1"/>
        <pt x="395" y="250" on="0"/>
        <pt x="419" y="237" on="0"/>
        <pt x="434" y="222" on="1"/>
        <pt x="565" y="91" on="0"/>
        <pt x="940" y="20" on="0"/>
        <pt x="1236" y="20" on="1"/>
        <pt x="1417" y="20" on="0"/>
        <pt x="1742" y="23" on="0"/>
        <pt x="1926" y="32" on="1"/>
        <pt x="1926" y="6" on="1"/>
        <pt x="1881" y="-1" on="0"/>
        <pt x="1833" y="-58" on="0"/>
        <pt x="1826" y="-98" on="1"/>
        <pt x="1198" y="-98" on="1"/>
        <pt x="889" y="-98" on="0"/>
        <pt x="564" y="-16" on="0"/>
        <pt x="410" y="126" on="1"/>
        <pt x="391" y="144" on="0"/>
        <pt x="363" y="144" on="0"/>
        <pt x="350" y="126" on="1"/>
        <pt x="319" y="84" on="0"/>
        <pt x="235" y="-23" on="0"/>
        <pt x="209" y="-68" on="1"/>
        <pt x="219" y="-89" on="0"/>
        <pt x="212" y="-125" on="0"/>
        <pt x="198" y="-138" on="1"/>
      </contour>
    </TTGlyph>
    <TTGlyph name="cid41475" xMin="84" yMin="-150" xMax="1922" yMax="1672">
      <contour>
        <pt x="1662" y="1672" on="1"/>
        <pt x="1803" y="1527" on="1"/>
        <pt x="1785" y="1515" on="0"/>
        <pt x="1711" y="1518" on="0"/>
        <pt x="1672" y="1541" on="1"/>
        <pt x="1476" y="1510" on="0"/>
        <pt x="906" y="1435" on="0"/>
        <pt x="640" y="1422" on="1"/>
        <pt x="625" y="1500" on="1"/>
        <pt x="882" y="1533" on="0"/>
        <pt x="1481" y="1623" on="0"/>
      </contour>
      <contour>
        <pt x="1437" y="1017" on="1"/>
        <pt x="1375" y="1057" on="1"/>
        <pt x="1424" y="1135" on="0"/>
        <pt x="1553" y="1354" on="0"/>
        <pt x="1598" y="1470" on="1"/>
        <pt x="1793" y="1378" on="1"/>
        <pt x="1785" y="1360" on="0"/>
        <pt x="1728" y="1334" on="0"/>
        <pt x="1687" y="1341" on="1"/>
        <pt x="1636" y="1261" on="0"/>
        <pt x="1509" y="1077" on="0"/>
      </contour>
      <contour>
        <pt x="1027" y="1402" on="1"/>
        <pt x="1085" y="1436" on="1"/>
        <pt x="1351" y="1314" on="0"/>
        <pt x="1268" y="1030" on="0"/>
        <pt x="1180" y="1108" on="1"/>
        <pt x="1177" y="1183" on="0"/>
        <pt x="1073" y="1345" on="0"/>
      </contour>
      <contour>
        <pt x="134" y="1622" on="1"/>
        <pt x="196" y="1650" on="1"/>
        <pt x="514" y="1468" on="0"/>
        <pt x="463" y="1136" on="0"/>
        <pt x="364" y="1214" on="1"/>
        <pt x="343" y="1313" on="0"/>
        <pt x="195" y="1540" on="0"/>
      </contour>
      <contour>
        <pt x="729" y="1397" on="1"/>
        <pt x="981" y="1299" on="0"/>
        <pt x="908" y="1040" on="0"/>
        <pt x="814" y="1112" on="1"/>
        <pt x="804" y="1176" on="0"/>
        <pt x="707" y="1317" on="0"/>
        <pt x="670" y="1368" on="1"/>
      </contour>
      <contour>
        <pt x="996" y="1013" on="1"/>
        <pt x="981" y="991" on="0"/>
        <pt x="816" y="780" on="0"/>
        <pt x="685" y="704" on="1"/>
        <pt x="632" y="754" on="1"/>
        <pt x="702" y="820" on="0"/>
        <pt x="854" y="1004" on="0"/>
        <pt x="896" y="1102" on="1"/>
        <pt x="1098" y="1047" on="1"/>
        <pt x="1092" y="1030" on="0"/>
        <pt x="1044" y="1009" on="0"/>
      </contour>
      <contour>
        <pt x="890" y="966" on="1"/>
        <pt x="1566" y="966" on="1"/>
        <pt x="1507" y="923" on="1"/>
        <pt x="1612" y="1052" on="1"/>
        <pt x="1612" y="1052" on="0"/>
        <pt x="1733" y="951" on="0"/>
        <pt x="1779" y="908" on="1"/>
        <pt x="1774" y="890" on="0"/>
        <pt x="1739" y="866" on="0"/>
        <pt x="1714" y="866" on="1"/>
        <pt x="1302" y="866" on="1"/>
        <pt x="1302" y="688" on="1"/>
        <pt x="1662" y="688" on="1"/>
        <pt x="1613" y="644" on="1"/>
        <pt x="1722" y="782" on="1"/>
        <pt x="1722" y="782" on="0"/>
        <pt x="1851" y="677" on="0"/>
        <pt x="1899" y="632" on="1"/>
        <pt x="1896" y="616" on="0"/>
        <pt x="1864" y="590" on="0"/>
        <pt x="1836" y="590" on="1"/>
        <pt x="1302" y="590" on="1"/>
        <pt x="1302" y="286" on="1"/>
        <pt x="1608" y="286" on="1"/>
        <pt x="1608" y="542" on="1"/>
        <pt x="1819" y="520" on="1"/>
        <pt x="1816" y="497" on="0"/>
        <pt x="1774" y="458" on="0"/>
        <pt x="1732" y="454" on="1"/>
        <pt x="1732" y="146" on="1"/>
        <pt x="1732" y="136" on="0"/>
        <pt x="1666" y="106" on="0"/>
        <pt x="1632" y="106" on="1"/>
        <pt x="1608" y="106" on="1"/>
        <pt x="1608" y="186" on="1"/>
        <pt x="888" y="186" on="1"/>
        <pt x="840" y="130" on="1"/>
        <pt x="696" y="212" on="1"/>
        <pt x="705" y="221" on="0"/>
        <pt x="736" y="244" on="0"/>
        <pt x="752" y="254" on="1"/>
        <pt x="752" y="556" on="1"/>
        <pt x="969" y="532" on="1"/>
        <pt x="966" y="506" on="0"/>
        <pt x="919" y="464" on="0"/>
        <pt x="876" y="460" on="1"/>
        <pt x="876" y="286" on="1"/>
        <pt x="1176" y="286" on="1"/>
        <pt x="1176" y="590" on="1"/>
        <pt x="643" y="590" on="1"/>
        <pt x="617" y="688" on="1"/>
        <pt x="1176" y="688" on="1"/>
        <pt x="1176" y="866" on="1"/>
        <pt x="840" y="866" on="1"/>
      </contour>
      <contour>
        <pt x="466" y="230" on="1"/>
        <pt x="344" y="190" on="1"/>
        <pt x="344" y="880" on="1"/>
        <pt x="109" y="880" on="1"/>
        <pt x="92" y="978" on="1"/>
        <pt x="316" y="978" on="1"/>
        <pt x="392" y="1080" on="1"/>
        <pt x="576" y="925" on="1"/>
        <pt x="566" y="909" on="0"/>
        <pt x="511" y="886" on="0"/>
        <pt x="466" y="880" on="1"/>
      </contour>
      <contour>
        <pt x="84" y="2" on="1"/>
        <pt x="284" y="167" on="1"/>
        <pt x="346" y="218" on="0"/>
        <pt x="408" y="260" on="0"/>
        <pt x="430" y="260" on="1"/>
        <pt x="446" y="260" on="0"/>
        <pt x="474" y="246" on="0"/>
        <pt x="488" y="232" on="1"/>
        <pt x="624" y="99" on="0"/>
        <pt x="984" y="18" on="0"/>
        <pt x="1262" y="18" on="1"/>
        <pt x="1434" y="18" on="0"/>
        <pt x="1746" y="21" on="0"/>
        <pt x="1922" y="28" on="1"/>
        <pt x="1922" y="2" on="1"/>
        <pt x="1877" y="-7" on="0"/>
        <pt x="1828" y="-62" on="0"/>
        <pt x="1824" y="-104" on="1"/>
        <pt x="1222" y="-104" on="1"/>
        <pt x="938" y="-104" on="0"/>
        <pt x="611" y="-13" on="0"/>
        <pt x="460" y="138" on="1"/>
        <pt x="442" y="156" on="0"/>
        <pt x="414" y="152" on="0"/>
        <pt x="398" y="136" on="1"/>
        <pt x="361" y="97" on="0"/>
        <pt x="251" y="-28" on="0"/>
        <pt x="219" y="-79" on="1"/>
        <pt x="226" y="-99" on="0"/>
        <pt x="219" y="-138" on="0"/>
        <pt x="204" y="-150" on="1"/>
      </contour>
    </TTGlyph>
    <TTGlyph name="colon" xMin="188" yMin="-22" xMax="476" yMax="1038">
      <contour>
        <pt x="188" y="121" on="1"/>
        <pt x="188" y="64" on="0"/>
        <pt x="269" y="-22" on="0"/>
        <pt x="332" y="-22" on="1"/>
        <pt x="395" y="-22" on="0"/>
        <pt x="476" y="64" on="0"/>
        <pt x="476" y="121" on="1"/>
        <pt x="476" y="179" on="0"/>
        <pt x="395" y="265" on="0"/>
        <pt x="332" y="265" on="1"/>
        <pt x="269" y="265" on="0"/>
        <pt x="188" y="179" on="0"/>
      </contour>
      <contour>
        <pt x="188" y="894" on="1"/>
        <pt x="188" y="837" on="0"/>
        <pt x="269" y="751" on="0"/>
        <pt x="332" y="751" on="1"/>
        <pt x="395" y="751" on="0"/>
        <pt x="476" y="837" on="0"/>
        <pt x="476" y="894" on="1"/>
        <pt x="476" y="952" on="0"/>
        <pt x="395" y="1038" on="0"/>
        <pt x="332" y="1038" on="1"/>
        <pt x="269" y="1038" on="0"/>
        <pt x="188" y="952" on="0"/>
      </contour>
    </TTGlyph>
    <TTGlyph name="comma" xMin="140" yMin="-277" xMax="436" yMax="265">
      <contour>
        <pt x="140" y="-228" on="1"/>
        <pt x="183" y="-277" on="1"/>
        <pt x="281" y="-218" on="0"/>
        <pt x="436" y="-10" on="0"/>
        <pt x="436" y="112" on="1"/>
        <pt x="436" y="189" on="0"/>
        <pt x="351" y="265" on="0"/>
        <pt x="292" y="265" on="1"/>
        <pt x="229" y="265" on="0"/>
        <pt x="148" y="179" on="0"/>
        <pt x="148" y="121" on="1"/>
        <pt x="148" y="62" on="0"/>
        <pt x="228" y="-13" on="0"/>
        <pt x="299" y="-13" on="1"/>
        <pt x="284" y="-80" on="0"/>
        <pt x="180" y="-198" on="0"/>
      </contour>
    </TTGlyph>
    <TTGlyph name="d" xMin="68" yMin="-9" xMax="1157" yMax="1534">
      <contour>
        <pt x="68" y="478" on="1"/>
        <pt x="68" y="254" on="0"/>
        <pt x="314" y="-9" on="0"/>
        <pt x="496" y="-9" on="1"/>
        <pt x="641" y="-9" on="0"/>
        <pt x="839" y="118" on="0"/>
        <pt x="882" y="215" on="1"/>
        <pt x="848" y="272" on="1"/>
        <pt x="806" y="203" on="0"/>
        <pt x="652" y="117" on="0"/>
        <pt x="548" y="117" on="1"/>
        <pt x="416" y="117" on="0"/>
        <pt x="252" y="320" on="0"/>
        <pt x="252" y="503" on="1"/>
        <pt x="252" y="678" on="0"/>
        <pt x="431" y="917" on="0"/>
        <pt x="582" y="917" on="1"/>
        <pt x="681" y="917" on="0"/>
        <pt x="816" y="845" on="0"/>
        <pt x="848" y="783" on="1"/>
        <pt x="886" y="889" on="1"/>
        <pt x="855" y="943" on="0"/>
        <pt x="662" y="1020" on="0"/>
        <pt x="556" y="1020" on="1"/>
        <pt x="337" y="1020" on="0"/>
        <pt x="68" y="722" on="0"/>
      </contour>
      <contour>
        <pt x="665" y="1406" on="1"/>
        <pt x="832" y="1376" on="1"/>
        <pt x="843" y="537" on="1"/>
        <pt x="841" y="162" on="1"/>
        <pt x="861" y="60" on="1"/>
        <pt x="912" y="0" on="1"/>
        <pt x="1157" y="0" on="1"/>
        <pt x="1157" y="80" on="1"/>
        <pt x="1008" y="115" on="1"/>
        <pt x="999" y="538" on="1"/>
        <pt x="1002" y="1502" on="1"/>
        <pt x="974" y="1534" on="1"/>
        <pt x="943" y="1534" on="1"/>
        <pt x="665" y="1500" on="1"/>
      </contour>
    </TTGlyph>
    <TTGlyph name="dollar" xMin="56" yMin="-190" xMax="1051" yMax="1609">
      <contour>
        <pt x="56" y="272" on="1"/>
        <pt x="131" y="142" on="0"/>
        <pt x="382" y="1" on="0"/>
        <pt x="581" y="1" on="1"/>
        <pt x="790" y="1" on="0"/>
        <pt x="1051" y="248" on="0"/>
        <pt x="1051" y="430" on="1"/>
        <pt x="1051" y="608" on="0"/>
        <pt x="826" y="798" on="0"/>
        <pt x="616" y="873" on="1"/>
        <pt x="410" y="946" on="0"/>
        <pt x="281" y="1075" on="0"/>
        <pt x="281" y="1162" on="1"/>
        <pt x="281" y="1258" on="0"/>
        <pt x="423" y="1371" on="0"/>
        <pt x="558" y="1371" on="1"/>
        <pt x="673" y="1371" on="0"/>
        <pt x="844" y="1309" on="0"/>
        <pt x="899" y="1267" on="1"/>
        <pt x="975" y="1373" on="1"/>
        <pt x="896" y="1436" on="0"/>
        <pt x="677" y="1501" on="0"/>
        <pt x="554" y="1501" on="1"/>
        <pt x="352" y="1501" on="0"/>
        <pt x="121" y="1284" on="0"/>
        <pt x="121" y="1126" on="1"/>
        <pt x="121" y="975" on="0"/>
        <pt x="314" y="789" on="0"/>
        <pt x="517" y="723" on="1"/>
        <pt x="691" y="667" on="0"/>
        <pt x="891" y="520" on="0"/>
        <pt x="891" y="383" on="1"/>
        <pt x="891" y="271" on="0"/>
        <pt x="725" y="122" on="0"/>
        <pt x="578" y="122" on="1"/>
        <pt x="426" y="122" on="0"/>
        <pt x="226" y="255" on="0"/>
        <pt x="172" y="345" on="1"/>
      </contour>
      <contour>
        <pt x="491" y="-190" on="1"/>
        <pt x="657" y="-140" on="1"/>
        <pt x="657" y="52" on="1"/>
        <pt x="635" y="52" on="1"/>
        <pt x="635" y="778" on="1"/>
        <pt x="511" y="820" on="1"/>
        <pt x="511" y="52" on="1"/>
        <pt x="491" y="52" on="1"/>
      </contour>
      <contour>
        <pt x="490" y="1570" on="1"/>
        <pt x="490" y="1418" on="1"/>
        <pt x="511" y="1418" on="1"/>
        <pt x="511" y="820" on="1"/>
        <pt x="635" y="778" on="1"/>
        <pt x="635" y="1418" on="1"/>
        <pt x="656" y="1418" on="1"/>
        <pt x="656" y="1609" on="1"/>
      </contour>
    </TTGlyph>
    <TTGlyph name="e" xMin="64" yMin="-22" xMax="978" yMax="1022">
      <contour>
        <pt x="64" y="500" on="1"/>
        <pt x="64" y="267" on="0"/>
        <pt x="355" y="-22" on="0"/>
        <pt x="588" y="-22" on="1"/>
        <pt x="719" y="-22" on="0"/>
        <pt x="894" y="65" on="0"/>
        <pt x="941" y="128" on="1"/>
        <pt x="890" y="188" on="1"/>
        <pt x="838" y="150" on="0"/>
        <pt x="703" y="108" on="0"/>
        <pt x="599" y="108" on="1"/>
        <pt x="443" y="108" on="0"/>
        <pt x="245" y="319" on="0"/>
        <pt x="244" y="520" on="1"/>
        <pt x="243" y="700" on="0"/>
        <pt x="395" y="908" on="0"/>
        <pt x="517" y="908" on="1"/>
        <pt x="653" y="908" on="0"/>
        <pt x="802" y="744" on="0"/>
        <pt x="814" y="588" on="1"/>
        <pt x="978" y="588" on="1"/>
        <pt x="958" y="793" on="0"/>
        <pt x="736" y="1022" on="0"/>
        <pt x="541" y="1022" on="1"/>
        <pt x="328" y="1022" on="0"/>
        <pt x="64" y="717" on="0"/>
      </contour>
      <contour>
        <pt x="216" y="528" on="1"/>
        <pt x="978" y="528" on="1"/>
        <pt x="978" y="588" on="1"/>
        <pt x="924" y="624" on="1"/>
        <pt x="216" y="624" on="1"/>
      </contour>
    </TTGlyph>
    <TTGlyph name="eight" xMin="62" yMin="-26" xMax="994" yMax="1520">
      <contour>
        <pt x="62" y="358" on="1"/>
        <pt x="62" y="199" on="0"/>
        <pt x="332" y="-26" on="0"/>
        <pt x="538" y="-26" on="1"/>
        <pt x="729" y="-26" on="0"/>
        <pt x="994" y="226" on="0"/>
        <pt x="994" y="391" on="1"/>
        <pt x="994" y="562" on="0"/>
        <pt x="779" y="789" on="0"/>
        <pt x="600" y="880" on="1"/>
        <pt x="410" y="977" on="0"/>
        <pt x="288" y="1094" on="0"/>
        <pt x="288" y="1187" on="1"/>
        <pt x="288" y="1282" on="0"/>
        <pt x="411" y="1410" on="0"/>
        <pt x="521" y="1410" on="1"/>
        <pt x="628" y="1410" on="0"/>
        <pt x="756" y="1292" on="0"/>
        <pt x="756" y="1188" on="1"/>
        <pt x="756" y="1078" on="0"/>
        <pt x="640" y="923" on="0"/>
        <pt x="538" y="856" on="1"/>
        <pt x="623" y="797" on="1"/>
        <pt x="743" y="877" on="0"/>
        <pt x="895" y="1086" on="0"/>
        <pt x="895" y="1217" on="1"/>
        <pt x="895" y="1350" on="0"/>
        <pt x="691" y="1520" on="0"/>
        <pt x="527" y="1520" on="1"/>
        <pt x="368" y="1520" on="0"/>
        <pt x="142" y="1330" on="0"/>
        <pt x="142" y="1166" on="1"/>
        <pt x="142" y="1015" on="0"/>
        <pt x="303" y="818" on="0"/>
        <pt x="490" y="724" on="1"/>
        <pt x="650" y="644" on="0"/>
        <pt x="831" y="485" on="0"/>
        <pt x="831" y="366" on="1"/>
        <pt x="831" y="244" on="0"/>
        <pt x="672" y="83" on="0"/>
        <pt x="524" y="83" on="1"/>
        <pt x="373" y="83" on="0"/>
        <pt x="200" y="250" on="0"/>
        <pt x="200" y="374" on="1"/>
        <pt x="200" y="502" on="0"/>
        <pt x="381" y="699" on="0"/>
        <pt x="488" y="771" on="1"/>
        <pt x="414" y="831" on="1"/>
        <pt x="295" y="760" on="0"/>
        <pt x="62" y="526" on="0"/>
      </contour>
    </TTGlyph>
    <TTGlyph name="equal" xMin="110" yMin="334" xMax="914" yMax="898">
      <contour>
        <pt x="110" y="334" on="1"/>
        <pt x="510" y="338" on="1"/>
        <pt x="914" y="334" on="1"/>
        <pt x="914" y="496" on="1"/>
        <pt x="510" y="492" on="1"/>
        <pt x="110" y="496" on="1"/>
      </contour>
      <contour>
        <pt x="110" y="736" on="1"/>
        <pt x="510" y="740" on="1"/>
        <pt x="914" y="736" on="1"/>
        <pt x="914" y="898" on="1"/>
        <pt x="510" y="894" on="1"/>
        <pt x="110" y="898" on="1"/>
      </contour>
    </TTGlyph>
    <TTGlyph name="exclam" xMin="158" yMin="-22" xMax="446" yMax="1520">
      <contour>
        <pt x="158" y="121" on="1"/>
        <pt x="158" y="64" on="0"/>
        <pt x="239" y="-22" on="0"/>
        <pt x="302" y="-22" on="1"/>
        <pt x="365" y="-22" on="0"/>
        <pt x="446" y="64" on="0"/>
        <pt x="446" y="121" on="1"/>
        <pt x="446" y="179" on="0"/>
        <pt x="365" y="265" on="0"/>
        <pt x="302" y="265" on="1"/>
        <pt x="239" y="265" on="0"/>
        <pt x="158" y="179" on="0"/>
      </contour>
      <contour>
        <pt x="207" y="1520" on="1"/>
        <pt x="219" y="1108" on="1"/>
        <pt x="241" y="800" on="1"/>
        <pt x="254" y="435" on="1"/>
        <pt x="348" y="435" on="1"/>
        <pt x="361" y="800" on="1"/>
        <pt x="385" y="1108" on="1"/>
        <pt x="397" y="1520" on="1"/>
      </contour>
    </TTGlyph>
    <TTGlyph name="f" xMin="54" yMin="0" xMax="588" yMax="1532">
      <contour>
        <pt x="54" y="0" on="1"/>
        <pt x="580" y="0" on="1"/>
        <pt x="580" y="80" on="1"/>
        <pt x="397" y="115" on="1"/>
        <pt x="393" y="527" on="1"/>
        <pt x="395" y="1375" on="1"/>
        <pt x="576" y="1410" on="1"/>
        <pt x="576" y="1500" on="1"/>
        <pt x="418" y="1532" on="1"/>
        <pt x="329" y="1532" on="0"/>
        <pt x="226" y="1435" on="0"/>
        <pt x="227" y="1316" on="1"/>
        <pt x="229" y="984" on="1"/>
        <pt x="64" y="946" on="1"/>
        <pt x="64" y="872" on="1"/>
        <pt x="227" y="860" on="1"/>
        <pt x="228" y="527" on="1"/>
        <pt x="222" y="115" on="1"/>
        <pt x="54" y="80" on="1"/>
      </contour>
      <contour>
        <pt x="377" y="872" on="1"/>
        <pt x="588" y="872" on="1"/>
        <pt x="588" y="974" on="1"/>
        <pt x="381" y="974" on="1"/>
      </contour>
    </TTGlyph>
    <TTGlyph name="five" xMin="2" yMin="-26" xMax="938" yMax="1500">
      <contour>
        <pt x="2" y="139" on="1"/>
        <pt x="77" y="63" on="0"/>
        <pt x="312" y="-26" on="0"/>
        <pt x="474" y="-26" on="1"/>
        <pt x="669" y="-26" on="0"/>
        <pt x="938" y="243" on="0"/>
        <pt x="938" y="487" on="1"/>
        <pt x="938" y="668" on="0"/>
        <pt x="668" y="938" on="0"/>
        <pt x="374" y="938" on="1"/>
        <pt x="199" y="898" on="1"/>
        <pt x="139" y="790" on="1"/>
        <pt x="299" y="790" on="1"/>
        <pt x="501" y="790" on="0"/>
        <pt x="750" y="623" on="0"/>
        <pt x="750" y="457" on="1"/>
        <pt x="750" y="283" on="0"/>
        <pt x="583" y="107" on="0"/>
        <pt x="458" y="107" on="1"/>
        <pt x="319" y="107" on="0"/>
        <pt x="95" y="182" on="0"/>
        <pt x="2" y="270" on="1"/>
      </contour>
      <contour>
        <pt x="139" y="790" on="1"/>
        <pt x="217" y="790" on="0"/>
        <pt x="253" y="1013" on="0"/>
        <pt x="304" y="1313" on="1"/>
        <pt x="314" y="1324" on="1"/>
        <pt x="848" y="1324" on="1"/>
        <pt x="858" y="1500" on="1"/>
        <pt x="239" y="1500" on="1"/>
        <pt x="212" y="1467" on="1"/>
      </contour>
    </TTGlyph>
    <TTGlyph name="four" xMin="6" yMin="0" xMax="1170" yMax="1510">
      <contour>
        <pt x="26" y="424" on="1"/>
        <pt x="673" y="438" on="1"/>
        <pt x="673" y="129" on="1"/>
        <pt x="435" y="94" on="1"/>
        <pt x="435" y="0" on="1"/>
        <pt x="1077" y="0" on="1"/>
        <pt x="1077" y="94" on="1"/>
        <pt x="849" y="129" on="1"/>
        <pt x="849" y="442" on="1"/>
        <pt x="1170" y="454" on="1"/>
        <pt x="1170" y="550" on="1"/>
        <pt x="850" y="550" on="1"/>
        <pt x="855" y="1478" on="1"/>
        <pt x="823" y="1510" on="1"/>
        <pt x="693" y="1510" on="1"/>
        <pt x="6" y="540" on="1"/>
      </contour>
      <contour>
        <pt x="173" y="550" on="1"/>
        <pt x="167" y="560" on="1"/>
        <pt x="670" y="1289" on="1"/>
        <pt x="664" y="550" on="1"/>
      </contour>
    </TTGlyph>
    <TTGlyph name="g" xMin="24" yMin="-518" xMax="1072" yMax="1022">
      <contour>
        <pt x="24" y="-264" on="1"/>
        <pt x="24" y="-378" on="0"/>
        <pt x="273" y="-518" on="0"/>
        <pt x="506" y="-518" on="1"/>
        <pt x="817" y="-518" on="0"/>
        <pt x="1057" y="-320" on="0"/>
        <pt x="1057" y="-179" on="1"/>
        <pt x="1057" y="-59" on="0"/>
        <pt x="814" y="34" on="0"/>
        <pt x="558" y="34" on="1"/>
        <pt x="358" y="34" on="0"/>
        <pt x="214" y="92" on="0"/>
        <pt x="214" y="142" on="1"/>
        <pt x="214" y="192" on="0"/>
        <pt x="280" y="249" on="0"/>
        <pt x="338" y="278" on="1"/>
        <pt x="287" y="345" on="1"/>
        <pt x="202" y="320" on="0"/>
        <pt x="84" y="199" on="0"/>
        <pt x="84" y="107" on="1"/>
        <pt x="84" y="-22" on="0"/>
        <pt x="347" y="-129" on="0"/>
        <pt x="533" y="-129" on="1"/>
        <pt x="781" y="-129" on="0"/>
        <pt x="905" y="-167" on="0"/>
        <pt x="905" y="-240" on="1"/>
        <pt x="905" y="-326" on="0"/>
        <pt x="723" y="-413" on="0"/>
        <pt x="523" y="-413" on="1"/>
        <pt x="329" y="-413" on="0"/>
        <pt x="145" y="-310" on="0"/>
        <pt x="145" y="-237" on="1"/>
        <pt x="145" y="-178" on="0"/>
        <pt x="203" y="-104" on="0"/>
        <pt x="244" y="-74" on="1"/>
        <pt x="189" y="-37" on="1"/>
        <pt x="118" y="-75" on="0"/>
        <pt x="24" y="-179" on="0"/>
      </contour>
      <contour>
        <pt x="105" y="629" on="1"/>
        <pt x="105" y="444" on="0"/>
        <pt x="335" y="217" on="0"/>
        <pt x="519" y="217" on="1"/>
        <pt x="701" y="217" on="0"/>
        <pt x="926" y="463" on="0"/>
        <pt x="926" y="634" on="1"/>
        <pt x="926" y="816" on="0"/>
        <pt x="698" y="1022" on="0"/>
        <pt x="514" y="1022" on="1"/>
        <pt x="331" y="1022" on="0"/>
        <pt x="105" y="800" on="0"/>
      </contour>
      <contour>
        <pt x="280" y="639" on="1"/>
        <pt x="280" y="773" on="0"/>
        <pt x="404" y="908" on="0"/>
        <pt x="516" y="908" on="1"/>
        <pt x="621" y="908" on="0"/>
        <pt x="749" y="757" on="0"/>
        <pt x="749" y="628" on="1"/>
        <pt x="749" y="471" on="0"/>
        <pt x="627" y="319" on="0"/>
        <pt x="514" y="319" on="1"/>
        <pt x="409" y="319" on="0"/>
        <pt x="280" y="484" on="0"/>
      </contour>
      <contour>
        <pt x="624" y="925" on="1"/>
        <pt x="1072" y="865" on="1"/>
        <pt x="1072" y="1000" on="1"/>
        <pt x="609" y="1000" on="1"/>
      </contour>
    </TTGlyph>
    <TTGlyph name="grave" xMin="294" yMin="1060" xMax="729" yMax="1401">
      <contour>
        <pt x="294" y="1329" on="1"/>
        <pt x="294" y="1303" on="0"/>
        <pt x="335" y="1257" on="0"/>
        <pt x="362" y="1236" on="1"/>
        <pt x="591" y="1060" on="1"/>
        <pt x="729" y="1060" on="1"/>
        <pt x="511" y="1315" on="1"/>
        <pt x="486" y="1345" on="0"/>
        <pt x="418" y="1401" on="0"/>
        <pt x="378" y="1401" on="1"/>
        <pt x="333" y="1401" on="0"/>
        <pt x="294" y="1354" on="0"/>
      </contour>
    </TTGlyph>
    <TTGlyph name="greater" xMin="12" yMin="149" xMax="661" yMax="1135">
      <contour>
        <pt x="661" y="634" on="1"/>
        <pt x="661" y="634" on="0"/>
        <pt x="225" y="1027" on="0"/>
        <pt x="163" y="1081" on="1"/>
        <pt x="101" y="1135" on="0"/>
        <pt x="12" y="1052" on="0"/>
        <pt x="65" y="994" on="1"/>
        <pt x="189" y="858" on="0"/>
        <pt x="404" y="637" on="0"/>
        <pt x="404" y="637" on="1"/>
        <pt x="404" y="637" on="0"/>
        <pt x="190" y="428" on="0"/>
        <pt x="66" y="292" on="1"/>
        <pt x="13" y="234" on="0"/>
        <pt x="99" y="149" on="0"/>
        <pt x="161" y="203" on="1"/>
        <pt x="223" y="257" on="0"/>
        <pt x="661" y="634" on="0"/>
      </contour>
    </TTGlyph>
    <TTGlyph name="h" xMin="52" yMin="0" xMax="1192" yMax="1534">
      <contour>
        <pt x="76" y="0" on="1"/>
        <pt x="526" y="0" on="1"/>
        <pt x="526" y="80" on="1"/>
        <pt x="388" y="115" on="1"/>
        <pt x="386" y="527" on="1"/>
        <pt x="388" y="1502" on="1"/>
        <pt x="360" y="1534" on="1"/>
        <pt x="328" y="1534" on="1"/>
        <pt x="52" y="1500" on="1"/>
        <pt x="52" y="1406" on="1"/>
        <pt x="218" y="1376" on="1"/>
        <pt x="220" y="527" on="1"/>
        <pt x="218" y="115" on="1"/>
        <pt x="76" y="80" on="1"/>
      </contour>
      <contour>
        <pt x="383" y="720" on="1"/>
        <pt x="434" y="799" on="0"/>
        <pt x="599" y="878" on="0"/>
        <pt x="679" y="878" on="1"/>
        <pt x="774" y="878" on="0"/>
        <pt x="876" y="769" on="0"/>
        <pt x="876" y="703" on="1"/>
        <pt x="876" y="527" on="1"/>
        <pt x="874" y="115" on="1"/>
        <pt x="716" y="80" on="1"/>
        <pt x="716" y="0" on="1"/>
        <pt x="1192" y="0" on="1"/>
        <pt x="1192" y="80" on="1"/>
        <pt x="1044" y="115" on="1"/>
        <pt x="1039" y="527" on="1"/>
        <pt x="1039" y="527" on="0"/>
        <pt x="1044" y="669" on="0"/>
        <pt x="1044" y="743" on="1"/>
        <pt x="1044" y="873" on="0"/>
        <pt x="889" y="1022" on="0"/>
        <pt x="735" y="1022" on="1"/>
        <pt x="613" y="1022" on="0"/>
        <pt x="394" y="890" on="0"/>
        <pt x="349" y="791" on="1"/>
      </contour>
    </TTGlyph>
    <TTGlyph name="hyphen" xMin="80" yMin="556" xMax="659" yMax="708">
      <contour>
        <pt x="80" y="556" on="1"/>
        <pt x="370" y="560" on="1"/>
        <pt x="659" y="556" on="1"/>
        <pt x="659" y="708" on="1"/>
        <pt x="370" y="704" on="1"/>
        <pt x="80" y="708" on="1"/>
      </contour>
    </TTGlyph>
    <TTGlyph name="i" xMin="72" yMin="0" xMax="573" yMax="1460">
      <contour>
        <pt x="77" y="0" on="1"/>
        <pt x="573" y="0" on="1"/>
        <pt x="573" y="80" on="1"/>
        <pt x="415" y="115" on="1"/>
        <pt x="413" y="527" on="1"/>
        <pt x="420" y="961" on="1"/>
        <pt x="397" y="1000" on="1"/>
        <pt x="350" y="1000" on="1"/>
        <pt x="72" y="966" on="1"/>
        <pt x="72" y="872" on="1"/>
        <pt x="240" y="842" on="1"/>
        <pt x="247" y="527" on="1"/>
        <pt x="245" y="115" on="1"/>
        <pt x="77" y="80" on="1"/>
      </contour>
      <contour>
        <pt x="199" y="1337" on="1"/>
        <pt x="199" y="1282" on="0"/>
        <pt x="268" y="1214" on="0"/>
        <pt x="325" y="1214" on="1"/>
        <pt x="386" y="1214" on="0"/>
        <pt x="451" y="1278" on="0"/>
        <pt x="451" y="1337" on="1"/>
        <pt x="451" y="1392" on="0"/>
        <pt x="382" y="1460" on="0"/>
        <pt x="325" y="1460" on="1"/>
        <pt x="264" y="1460" on="0"/>
        <pt x="199" y="1396" on="0"/>
      </contour>
    </TTGlyph>
    <TTGlyph name="j" xMin="40" yMin="-492" xMax="424" yMax="1460">
      <contour>
        <pt x="40" y="-460" on="1"/>
        <pt x="198" y="-492" on="1"/>
        <pt x="287" y="-492" on="0"/>
        <pt x="389" y="-395" on="0"/>
        <pt x="389" y="-276" on="1"/>
        <pt x="387" y="527" on="1"/>
        <pt x="393" y="961" on="1"/>
        <pt x="370" y="1000" on="1"/>
        <pt x="323" y="1000" on="1"/>
        <pt x="45" y="966" on="1"/>
        <pt x="45" y="872" on="1"/>
        <pt x="213" y="842" on="1"/>
        <pt x="219" y="527" on="1"/>
        <pt x="221" y="-335" on="1"/>
        <pt x="40" y="-370" on="1"/>
      </contour>
      <contour>
        <pt x="172" y="1337" on="1"/>
        <pt x="172" y="1282" on="0"/>
        <pt x="241" y="1214" on="0"/>
        <pt x="298" y="1214" on="1"/>
        <pt x="359" y="1214" on="0"/>
        <pt x="424" y="1278" on="0"/>
        <pt x="424" y="1337" on="1"/>
        <pt x="424" y="1392" on="0"/>
        <pt x="355" y="1460" on="0"/>
        <pt x="298" y="1460" on="1"/>
        <pt x="237" y="1460" on="0"/>
        <pt x="172" y="1396" on="0"/>
      </contour>
    </TTGlyph>
    <TTGlyph name="k" xMin="52" yMin="0" xMax="1092" yMax="1534">
      <contour>
        <pt x="76" y="0" on="1"/>
        <pt x="526" y="0" on="1"/>
        <pt x="526" y="80" on="1"/>
        <pt x="388" y="115" on="1"/>
        <pt x="386" y="507" on="1"/>
        <pt x="388" y="1502" on="1"/>
        <pt x="360" y="1534" on="1"/>
        <pt x="328" y="1534" on="1"/>
        <pt x="52" y="1500" on="1"/>
        <pt x="52" y="1406" on="1"/>
        <pt x="218" y="1376" on="1"/>
        <pt x="220" y="527" on="1"/>
        <pt x="218" y="115" on="1"/>
        <pt x="76" y="80" on="1"/>
      </contour>
      <contour>
        <pt x="355" y="420" on="1"/>
        <pt x="879" y="875" on="1"/>
        <pt x="1037" y="910" on="1"/>
        <pt x="1037" y="1000" on="1"/>
        <pt x="591" y="1000" on="1"/>
        <pt x="591" y="910" on="1"/>
        <pt x="738" y="880" on="1"/>
        <pt x="347" y="529" on="1"/>
      </contour>
      <contour>
        <pt x="458" y="587" on="1"/>
        <pt x="784" y="115" on="1"/>
        <pt x="828" y="25" on="1"/>
        <pt x="862" y="0" on="1"/>
        <pt x="1092" y="0" on="1"/>
        <pt x="1092" y="80" on="1"/>
        <pt x="984" y="115" on="1"/>
        <pt x="584" y="686" on="1"/>
      </contour>
    </TTGlyph>
    <TTGlyph name="l" xMin="52" yMin="0" xMax="566" yMax="1534">
      <contour>
        <pt x="76" y="0" on="1"/>
        <pt x="566" y="0" on="1"/>
        <pt x="566" y="80" on="1"/>
        <pt x="408" y="115" on="1"/>
        <pt x="406" y="527" on="1"/>
        <pt x="408" y="1501" on="1"/>
        <pt x="385" y="1532" on="1"/>
        <pt x="348" y="1534" on="1"/>
        <pt x="52" y="1500" on="1"/>
        <pt x="52" y="1406" on="1"/>
        <pt x="238" y="1376" on="1"/>
        <pt x="240" y="527" on="1"/>
        <pt x="238" y="115" on="1"/>
        <pt x="76" y="80" on="1"/>
      </contour>
    </TTGlyph>
    <TTGlyph name="less" xMin="40" yMin="149" xMax="689" yMax="1135">
      <contour>
        <pt x="40" y="634" on="1"/>
        <pt x="40" y="634" on="0"/>
        <pt x="478" y="257" on="0"/>
        <pt x="540" y="203" on="1"/>
        <pt x="602" y="149" on="0"/>
        <pt x="688" y="234" on="0"/>
        <pt x="635" y="292" on="1"/>
        <pt x="511" y="428" on="0"/>
        <pt x="297" y="637" on="0"/>
        <pt x="297" y="637" on="1"/>
        <pt x="297" y="637" on="0"/>
        <pt x="512" y="858" on="0"/>
        <pt x="636" y="994" on="1"/>
        <pt x="689" y="1052" on="0"/>
        <pt x="600" y="1135" on="0"/>
        <pt x="538" y="1081" on="1"/>
        <pt x="476" y="1027" on="0"/>
        <pt x="40" y="634" on="0"/>
      </contour>
    </TTGlyph>
    <TTGlyph name="m" xMin="76" yMin="0" xMax="1850" yMax="1021">
      <contour>
        <pt x="76" y="0" on="1"/>
        <pt x="531" y="0" on="1"/>
        <pt x="531" y="80" on="1"/>
        <pt x="393" y="115" on="1"/>
        <pt x="391" y="527" on="1"/>
        <pt x="393" y="872" on="1"/>
        <pt x="368" y="973" on="1"/>
        <pt x="333" y="1000" on="1"/>
        <pt x="76" y="966" on="1"/>
        <pt x="76" y="872" on="1"/>
        <pt x="224" y="842" on="1"/>
        <pt x="226" y="527" on="1"/>
        <pt x="224" y="115" on="1"/>
        <pt x="76" y="80" on="1"/>
      </contour>
      <contour>
        <pt x="388" y="719" on="1"/>
        <pt x="435" y="791" on="0"/>
        <pt x="593" y="877" on="0"/>
        <pt x="684" y="877" on="1"/>
        <pt x="768" y="877" on="0"/>
        <pt x="881" y="780" on="0"/>
        <pt x="881" y="702" on="1"/>
        <pt x="881" y="527" on="1"/>
        <pt x="879" y="115" on="1"/>
        <pt x="721" y="80" on="1"/>
        <pt x="721" y="0" on="1"/>
        <pt x="1197" y="0" on="1"/>
        <pt x="1197" y="80" on="1"/>
        <pt x="1049" y="115" on="1"/>
        <pt x="1044" y="527" on="1"/>
        <pt x="1044" y="527" on="0"/>
        <pt x="1049" y="668" on="0"/>
        <pt x="1049" y="742" on="1"/>
        <pt x="1049" y="872" on="0"/>
        <pt x="894" y="1021" on="0"/>
        <pt x="740" y="1021" on="1"/>
        <pt x="618" y="1021" on="0"/>
        <pt x="399" y="889" on="0"/>
        <pt x="354" y="790" on="1"/>
      </contour>
      <contour>
        <pt x="1041" y="719" on="1"/>
        <pt x="1088" y="791" on="0"/>
        <pt x="1244" y="877" on="0"/>
        <pt x="1337" y="877" on="1"/>
        <pt x="1428" y="877" on="0"/>
        <pt x="1534" y="780" on="0"/>
        <pt x="1534" y="702" on="1"/>
        <pt x="1534" y="527" on="1"/>
        <pt x="1532" y="115" on="1"/>
        <pt x="1374" y="80" on="1"/>
        <pt x="1374" y="0" on="1"/>
        <pt x="1850" y="0" on="1"/>
        <pt x="1850" y="80" on="1"/>
        <pt x="1702" y="115" on="1"/>
        <pt x="1697" y="527" on="1"/>
        <pt x="1697" y="527" on="0"/>
        <pt x="1702" y="668" on="0"/>
        <pt x="1702" y="742" on="1"/>
        <pt x="1702" y="872" on="0"/>
        <pt x="1547" y="1021" on="0"/>
        <pt x="1393" y="1021" on="1"/>
        <pt x="1271" y="1021" on="0"/>
        <pt x="1052" y="889" on="0"/>
        <pt x="1007" y="790" on="1"/>
      </contour>
    </TTGlyph>
    <TTGlyph name="n" xMin="76" yMin="0" xMax="1198" yMax="1021">
      <contour>
        <pt x="76" y="0" on="1"/>
        <pt x="532" y="0" on="1"/>
        <pt x="532" y="80" on="1"/>
        <pt x="394" y="115" on="1"/>
        <pt x="392" y="527" on="1"/>
        <pt x="394" y="872" on="1"/>
        <pt x="369" y="973" on="1"/>
        <pt x="334" y="1000" on="1"/>
        <pt x="76" y="966" on="1"/>
        <pt x="76" y="872" on="1"/>
        <pt x="224" y="842" on="1"/>
        <pt x="226" y="527" on="1"/>
        <pt x="224" y="115" on="1"/>
        <pt x="76" y="80" on="1"/>
      </contour>
      <contour>
        <pt x="389" y="719" on="1"/>
        <pt x="433" y="789" on="0"/>
        <pt x="594" y="877" on="0"/>
        <pt x="685" y="877" on="1"/>
        <pt x="774" y="877" on="0"/>
        <pt x="882" y="785" on="0"/>
        <pt x="882" y="702" on="1"/>
        <pt x="882" y="527" on="1"/>
        <pt x="880" y="115" on="1"/>
        <pt x="722" y="80" on="1"/>
        <pt x="722" y="0" on="1"/>
        <pt x="1198" y="0" on="1"/>
        <pt x="1198" y="80" on="1"/>
        <pt x="1050" y="115" on="1"/>
        <pt x="1045" y="527" on="1"/>
        <pt x="1045" y="527" on="0"/>
        <pt x="1050" y="668" on="0"/>
        <pt x="1050" y="742" on="1"/>
        <pt x="1050" y="872" on="0"/>
        <pt x="895" y="1021" on="0"/>
        <pt x="741" y="1021" on="1"/>
        <pt x="619" y="1021" on="0"/>
        <pt x="400" y="889" on="0"/>
        <pt x="355" y="790" on="1"/>
      </contour>
    </TTGlyph>
    <TTGlyph name="nine" xMin="60" yMin="-69" xMax="1102" yMax="1520">
      <contour>
        <pt x="60" y="1018" on="1"/>
        <pt x="60" y="802" on="0"/>
        <pt x="337" y="567" on="0"/>
        <pt x="552" y="567" on="1"/>
        <pt x="625" y="567" on="0"/>
        <pt x="735" y="624" on="0"/>
        <pt x="773" y="660" on="1"/>
        <pt x="746" y="732" on="1"/>
        <pt x="713" y="722" on="0"/>
        <pt x="620" y="700" on="0"/>
        <pt x="583" y="700" on="1"/>
        <pt x="421" y="700" on="0"/>
        <pt x="238" y="868" on="0"/>
        <pt x="238" y="1036" on="1"/>
        <pt x="238" y="1203" on="0"/>
        <pt x="403" y="1409" on="0"/>
        <pt x="551" y="1409" on="1"/>
        <pt x="712" y="1409" on="0"/>
        <pt x="908" y="1118" on="0"/>
        <pt x="910" y="860" on="1"/>
        <pt x="913" y="517" on="0"/>
        <pt x="574" y="136" on="0"/>
        <pt x="288" y="65" on="1"/>
        <pt x="288" y="-69" on="1"/>
        <pt x="682" y="26" on="0"/>
        <pt x="1102" y="514" on="0"/>
        <pt x="1102" y="840" on="1"/>
        <pt x="1102" y="1156" on="0"/>
        <pt x="786" y="1520" on="0"/>
        <pt x="549" y="1520" on="1"/>
        <pt x="326" y="1520" on="0"/>
        <pt x="60" y="1235" on="0"/>
      </contour>
    </TTGlyph>
    <TTGlyph name="numbersign" xMin="20" yMin="-87" xMax="1304" yMax="1548">
      <contour>
        <pt x="20" y="456" on="1"/>
        <pt x="1199" y="456" on="1"/>
        <pt x="1199" y="628" on="1"/>
        <pt x="20" y="628" on="1"/>
      </contour>
      <contour>
        <pt x="125" y="856" on="1"/>
        <pt x="1304" y="856" on="1"/>
        <pt x="1304" y="1028" on="1"/>
        <pt x="125" y="1028" on="1"/>
      </contour>
      <contour>
        <pt x="86" y="-57" on="1"/>
        <pt x="196" y="-87" on="1"/>
        <pt x="787" y="1518" on="1"/>
        <pt x="677" y="1548" on="1"/>
      </contour>
      <contour>
        <pt x="545" y="-57" on="1"/>
        <pt x="655" y="-87" on="1"/>
        <pt x="1246" y="1518" on="1"/>
        <pt x="1136" y="1548" on="1"/>
      </contour>
    </TTGlyph>
    <TTGlyph name="o" xMin="64" yMin="-22" xMax="1104" yMax="1022">
      <contour>
        <pt x="64" y="500" on="1"/>
        <pt x="64" y="267" on="0"/>
        <pt x="355" y="-22" on="0"/>
        <pt x="588" y="-22" on="1"/>
        <pt x="820" y="-22" on="0"/>
        <pt x="1104" y="290" on="0"/>
        <pt x="1104" y="506" on="1"/>
        <pt x="1104" y="737" on="0"/>
        <pt x="815" y="1022" on="0"/>
        <pt x="582" y="1022" on="1"/>
        <pt x="350" y="1022" on="0"/>
        <pt x="64" y="717" on="0"/>
      </contour>
      <contour>
        <pt x="244" y="520" on="1"/>
        <pt x="243" y="700" on="0"/>
        <pt x="418" y="906" on="0"/>
        <pt x="582" y="906" on="1"/>
        <pt x="734" y="906" on="0"/>
        <pt x="918" y="680" on="0"/>
        <pt x="918" y="506" on="1"/>
        <pt x="918" y="317" on="0"/>
        <pt x="742" y="88" on="0"/>
        <pt x="580" y="88" on="1"/>
        <pt x="429" y="88" on="0"/>
        <pt x="245" y="339" on="0"/>
      </contour>
    </TTGlyph>
    <TTGlyph name="one" xMin="82" yMin="0" xMax="776" yMax="1513">
      <contour>
        <pt x="84" y="0" on="1"/>
        <pt x="776" y="0" on="1"/>
        <pt x="776" y="94" on="1"/>
        <pt x="518" y="129" on="1"/>
        <pt x="518" y="754" on="1"/>
        <pt x="524" y="1478" on="1"/>
        <pt x="492" y="1513" on="1"/>
        <pt x="82" y="1490" on="1"/>
        <pt x="82" y="1386" on="1"/>
        <pt x="340" y="1352" on="1"/>
        <pt x="342" y="754" on="1"/>
        <pt x="342" y="129" on="1"/>
        <pt x="84" y="94" on="1"/>
      </contour>
    </TTGlyph>
    <TTGlyph name="p" xMin="56" yMin="-480" xMax="1130" yMax="1020">
      <contour>
        <pt x="61" y="-480" on="1"/>
        <pt x="526" y="-480" on="1"/>
        <pt x="526" y="-400" on="1"/>
        <pt x="374" y="-365" on="1"/>
        <pt x="372" y="427" on="1"/>
        <pt x="374" y="872" on="1"/>
        <pt x="349" y="973" on="1"/>
        <pt x="314" y="1000" on="1"/>
        <pt x="56" y="966" on="1"/>
        <pt x="56" y="872" on="1"/>
        <pt x="204" y="842" on="1"/>
        <pt x="206" y="427" on="1"/>
        <pt x="204" y="-365" on="1"/>
        <pt x="61" y="-400" on="1"/>
      </contour>
      <contour>
        <pt x="331" y="139" on="1"/>
        <pt x="362" y="85" on="0"/>
        <pt x="545" y="-12" on="0"/>
        <pt x="677" y="-12" on="1"/>
        <pt x="884" y="-12" on="0"/>
        <pt x="1130" y="286" on="0"/>
        <pt x="1130" y="530" on="1"/>
        <pt x="1130" y="754" on="0"/>
        <pt x="893" y="1020" on="0"/>
        <pt x="711" y="1020" on="1"/>
        <pt x="566" y="1020" on="0"/>
        <pt x="378" y="890" on="0"/>
        <pt x="335" y="793" on="1"/>
        <pt x="369" y="736" on="1"/>
        <pt x="411" y="805" on="0"/>
        <pt x="557" y="894" on="0"/>
        <pt x="659" y="894" on="1"/>
        <pt x="791" y="894" on="0"/>
        <pt x="946" y="688" on="0"/>
        <pt x="946" y="505" on="1"/>
        <pt x="946" y="313" on="0"/>
        <pt x="790" y="91" on="0"/>
        <pt x="654" y="91" on="1"/>
        <pt x="551" y="91" on="0"/>
        <pt x="401" y="183" on="0"/>
        <pt x="369" y="245" on="1"/>
      </contour>
    </TTGlyph>
    <TTGlyph name="parenleft" xMin="68" yMin="-182" xMax="578" yMax="1526">
      <contour>
        <pt x="68" y="672" on="1"/>
        <pt x="68" y="411" on="0"/>
        <pt x="351" y="-66" on="0"/>
        <pt x="509" y="-182" on="1"/>
        <pt x="578" y="-120" on="1"/>
        <pt x="450" y="6" on="0"/>
        <pt x="263" y="436" on="0"/>
        <pt x="263" y="672" on="1"/>
        <pt x="263" y="908" on="0"/>
        <pt x="454" y="1334" on="0"/>
        <pt x="578" y="1464" on="1"/>
        <pt x="509" y="1526" on="1"/>
        <pt x="351" y="1410" on="0"/>
        <pt x="68" y="923" on="0"/>
      </contour>
    </TTGlyph>
    <TTGlyph name="parenright" xMin="20" yMin="-182" xMax="530" yMax="1526">
      <contour>
        <pt x="530" y="672" on="1"/>
        <pt x="530" y="923" on="0"/>
        <pt x="247" y="1410" on="0"/>
        <pt x="89" y="1526" on="1"/>
        <pt x="20" y="1464" on="1"/>
        <pt x="144" y="1334" on="0"/>
        <pt x="335" y="908" on="0"/>
        <pt x="335" y="672" on="1"/>
        <pt x="335" y="436" on="0"/>
        <pt x="148" y="6" on="0"/>
        <pt x="20" y="-120" on="1"/>
        <pt x="89" y="-182" on="1"/>
        <pt x="247" y="-66" on="0"/>
        <pt x="530" y="411" on="0"/>
      </contour>
    </TTGlyph>
    <TTGlyph name="percent" xMin="74" yMin="-40" xMax="1964" yMax="1529">
      <contour>
        <pt x="74" y="1061" on="1"/>
        <pt x="74" y="856" on="0"/>
        <pt x="295" y="601" on="0"/>
        <pt x="472" y="601" on="1"/>
        <pt x="648" y="601" on="0"/>
        <pt x="864" y="876" on="0"/>
        <pt x="864" y="1067" on="1"/>
        <pt x="864" y="1271" on="0"/>
        <pt x="644" y="1522" on="0"/>
        <pt x="467" y="1522" on="1"/>
        <pt x="291" y="1522" on="0"/>
        <pt x="74" y="1253" on="0"/>
      </contour>
      <contour>
        <pt x="237" y="1078" on="1"/>
        <pt x="236" y="1229" on="0"/>
        <pt x="355" y="1402" on="0"/>
        <pt x="467" y="1402" on="1"/>
        <pt x="572" y="1402" on="0"/>
        <pt x="696" y="1212" on="0"/>
        <pt x="696" y="1067" on="1"/>
        <pt x="696" y="908" on="0"/>
        <pt x="577" y="717" on="0"/>
        <pt x="466" y="717" on="1"/>
        <pt x="362" y="717" on="0"/>
        <pt x="237" y="927" on="0"/>
      </contour>
      <contour>
        <pt x="381" y="25" on="1"/>
        <pt x="483" y="-40" on="1"/>
        <pt x="1642" y="1464" on="1"/>
        <pt x="1540" y="1529" on="1"/>
      </contour>
      <contour>
        <pt x="1174" y="430" on="1"/>
        <pt x="1174" y="225" on="0"/>
        <pt x="1395" y="-30" on="0"/>
        <pt x="1572" y="-30" on="1"/>
        <pt x="1748" y="-30" on="0"/>
        <pt x="1964" y="245" on="0"/>
        <pt x="1964" y="436" on="1"/>
        <pt x="1964" y="640" on="0"/>
        <pt x="1744" y="891" on="0"/>
        <pt x="1567" y="891" on="1"/>
        <pt x="1391" y="891" on="0"/>
        <pt x="1174" y="622" on="0"/>
      </contour>
      <contour>
        <pt x="1337" y="447" on="1"/>
        <pt x="1336" y="598" on="0"/>
        <pt x="1455" y="771" on="0"/>
        <pt x="1567" y="771" on="1"/>
        <pt x="1672" y="771" on="0"/>
        <pt x="1796" y="581" on="0"/>
        <pt x="1796" y="436" on="1"/>
        <pt x="1796" y="277" on="0"/>
        <pt x="1677" y="86" on="0"/>
        <pt x="1566" y="86" on="1"/>
        <pt x="1462" y="86" on="0"/>
        <pt x="1337" y="296" on="0"/>
      </contour>
    </TTGlyph>
    <TTGlyph name="period" xMin="148" yMin="-22" xMax="436" yMax="265">
      <contour>
        <pt x="148" y="121" on="1"/>
        <pt x="148" y="64" on="0"/>
        <pt x="229" y="-22" on="0"/>
        <pt x="292" y="-22" on="1"/>
        <pt x="355" y="-22" on="0"/>
        <pt x="436" y="64" on="0"/>
        <pt x="436" y="121" on="1"/>
        <pt x="436" y="179" on="0"/>
        <pt x="355" y="265" on="0"/>
        <pt x="292" y="265" on="1"/>
        <pt x="229" y="265" on="0"/>
        <pt x="148" y="179" on="0"/>
      </contour>
    </TTGlyph>
    <TTGlyph name="plus" xMin="80" yMin="200" xMax="944" yMax="1064">
      <contour>
        <pt x="80" y="556" on="1"/>
        <pt x="944" y="556" on="1"/>
        <pt x="944" y="708" on="1"/>
        <pt x="80" y="708" on="1"/>
      </contour>
      <contour>
        <pt x="432" y="200" on="1"/>
        <pt x="592" y="200" on="1"/>
        <pt x="592" y="1064" on="1"/>
        <pt x="432" y="1064" on="1"/>
      </contour>
    </TTGlyph>
    <TTGlyph name="q" xMin="68" yMin="-480" xMax="1148" yMax="1020">
      <contour>
        <pt x="68" y="478" on="1"/>
        <pt x="68" y="254" on="0"/>
        <pt x="314" y="-9" on="0"/>
        <pt x="496" y="-9" on="1"/>
        <pt x="641" y="-9" on="0"/>
        <pt x="839" y="118" on="0"/>
        <pt x="882" y="215" on="1"/>
        <pt x="848" y="272" on="1"/>
        <pt x="806" y="203" on="0"/>
        <pt x="652" y="117" on="0"/>
        <pt x="548" y="117" on="1"/>
        <pt x="416" y="117" on="0"/>
        <pt x="252" y="320" on="0"/>
        <pt x="252" y="503" on="1"/>
        <pt x="252" y="678" on="0"/>
        <pt x="431" y="917" on="0"/>
        <pt x="573" y="917" on="1"/>
        <pt x="681" y="917" on="0"/>
        <pt x="816" y="845" on="0"/>
        <pt x="848" y="783" on="1"/>
        <pt x="886" y="889" on="1"/>
        <pt x="855" y="943" on="0"/>
        <pt x="662" y="1020" on="0"/>
        <pt x="556" y="1020" on="1"/>
        <pt x="337" y="1020" on="0"/>
        <pt x="68" y="722" on="0"/>
      </contour>
      <contour>
        <pt x="651" y="-480" on="1"/>
        <pt x="1146" y="-480" on="1"/>
        <pt x="1146" y="-400" on="1"/>
        <pt x="994" y="-365" on="1"/>
        <pt x="993" y="428" on="1"/>
        <pt x="999" y="848" on="1"/>
        <pt x="1148" y="882" on="1"/>
        <pt x="1148" y="975" on="1"/>
        <pt x="903" y="1010" on="1"/>
        <pt x="833" y="916" on="1"/>
        <pt x="831" y="219" on="1"/>
        <pt x="824" y="-365" on="1"/>
        <pt x="651" y="-400" on="1"/>
      </contour>
    </TTGlyph>
    <TTGlyph name="question" xMin="0" yMin="-22" xMax="878" yMax="1540">
      <contour>
        <pt x="177" y="121" on="1"/>
        <pt x="177" y="64" on="0"/>
        <pt x="258" y="-22" on="0"/>
        <pt x="321" y="-22" on="1"/>
        <pt x="384" y="-22" on="0"/>
        <pt x="465" y="64" on="0"/>
        <pt x="465" y="121" on="1"/>
        <pt x="465" y="179" on="0"/>
        <pt x="384" y="265" on="0"/>
        <pt x="321" y="265" on="1"/>
        <pt x="258" y="265" on="0"/>
        <pt x="177" y="179" on="0"/>
      </contour>
      <contour>
        <pt x="0" y="1358" on="1"/>
        <pt x="54" y="1304" on="1"/>
        <pt x="110" y="1356" on="0"/>
        <pt x="288" y="1429" on="0"/>
        <pt x="401" y="1429" on="1"/>
        <pt x="531" y="1429" on="0"/>
        <pt x="690" y="1276" on="0"/>
        <pt x="690" y="1126" on="1"/>
        <pt x="690" y="981" on="0"/>
        <pt x="572" y="820" on="0"/>
        <pt x="459" y="820" on="1"/>
        <pt x="424" y="820" on="0"/>
        <pt x="310" y="829" on="0"/>
        <pt x="282" y="833" on="1"/>
        <pt x="251" y="798" on="1"/>
        <pt x="261" y="604" on="1"/>
        <pt x="258" y="435" on="1"/>
        <pt x="358" y="435" on="1"/>
        <pt x="370" y="722" on="1"/>
        <pt x="400" y="713" on="0"/>
        <pt x="457" y="709" on="0"/>
        <pt x="488" y="709" on="1"/>
        <pt x="656" y="709" on="0"/>
        <pt x="878" y="930" on="0"/>
        <pt x="878" y="1123" on="1"/>
        <pt x="878" y="1308" on="0"/>
        <pt x="631" y="1540" on="0"/>
        <pt x="434" y="1540" on="1"/>
        <pt x="267" y="1540" on="0"/>
        <pt x="57" y="1430" on="0"/>
      </contour>
    </TTGlyph>
    <TTGlyph name="quotedbl" xMin="168" yMin="964" xMax="806" yMax="1558">
      <contour>
        <pt x="264" y="964" on="1"/>
        <pt x="318" y="964" on="1"/>
        <pt x="416" y="1423" on="1"/>
        <pt x="416" y="1471" on="0"/>
        <pt x="355" y="1558" on="0"/>
        <pt x="292" y="1558" on="1"/>
        <pt x="229" y="1558" on="0"/>
        <pt x="168" y="1471" on="0"/>
        <pt x="168" y="1423" on="1"/>
      </contour>
      <contour>
        <pt x="654" y="964" on="1"/>
        <pt x="708" y="964" on="1"/>
        <pt x="806" y="1423" on="1"/>
        <pt x="806" y="1471" on="0"/>
        <pt x="745" y="1558" on="0"/>
        <pt x="682" y="1558" on="1"/>
        <pt x="619" y="1558" on="0"/>
        <pt x="558" y="1471" on="0"/>
        <pt x="558" y="1423" on="1"/>
      </contour>
    </TTGlyph>
    <TTGlyph name="quotesingle" xMin="168" yMin="964" xMax="416" yMax="1558">
      <contour>
        <pt x="264" y="964" on="1"/>
        <pt x="318" y="964" on="1"/>
        <pt x="416" y="1423" on="1"/>
        <pt x="416" y="1471" on="0"/>
        <pt x="355" y="1558" on="0"/>
        <pt x="292" y="1558" on="1"/>
        <pt x="229" y="1558" on="0"/>
        <pt x="168" y="1471" on="0"/>
        <pt x="168" y="1423" on="1"/>
      </contour>
    </TTGlyph>
    <TTGlyph name="r" xMin="76" yMin="0" xMax="838" yMax="1000">
      <contour>
        <pt x="76" y="0" on="1"/>
        <pt x="552" y="0" on="1"/>
        <pt x="552" y="80" on="1"/>
        <pt x="394" y="115" on="1"/>
        <pt x="392" y="527" on="1"/>
        <pt x="394" y="872" on="1"/>
        <pt x="369" y="973" on="1"/>
        <pt x="334" y="1000" on="1"/>
        <pt x="76" y="966" on="1"/>
        <pt x="76" y="872" on="1"/>
        <pt x="224" y="842" on="1"/>
        <pt x="226" y="527" on="1"/>
        <pt x="224" y="115" on="1"/>
        <pt x="76" y="80" on="1"/>
      </contour>
      <contour>
        <pt x="369" y="709" on="1"/>
        <pt x="432" y="791" on="0"/>
        <pt x="614" y="867" on="0"/>
        <pt x="696" y="867" on="1"/>
        <pt x="730" y="740" on="1"/>
        <pt x="838" y="740" on="1"/>
        <pt x="838" y="1000" on="1"/>
        <pt x="740" y="1000" on="1"/>
        <pt x="584" y="1000" on="0"/>
        <pt x="380" y="869" on="0"/>
        <pt x="335" y="770" on="1"/>
      </contour>
    </TTGlyph>
    <TTGlyph name="s" xMin="52" yMin="-20" xMax="824" yMax="1022">
      <contour>
        <pt x="52" y="0" on="1"/>
        <pt x="143" y="0" on="1"/>
        <pt x="206" y="118" on="1"/>
        <pt x="159" y="339" on="1"/>
        <pt x="52" y="339" on="1"/>
      </contour>
      <contour>
        <pt x="89" y="759" on="1"/>
        <pt x="89" y="650" on="0"/>
        <pt x="214" y="522" on="0"/>
        <pt x="378" y="474" on="1"/>
        <pt x="542" y="426" on="0"/>
        <pt x="670" y="344" on="0"/>
        <pt x="670" y="260" on="1"/>
        <pt x="670" y="177" on="0"/>
        <pt x="545" y="85" on="0"/>
        <pt x="445" y="85" on="1"/>
        <pt x="350" y="85" on="0"/>
        <pt x="191" y="183" on="0"/>
        <pt x="170" y="245" on="1"/>
        <pt x="78" y="184" on="1"/>
        <pt x="151" y="91" on="0"/>
        <pt x="323" y="-20" on="0"/>
        <pt x="469" y="-20" on="1"/>
        <pt x="630" y="-20" on="0"/>
        <pt x="824" y="160" on="0"/>
        <pt x="824" y="287" on="1"/>
        <pt x="824" y="432" on="0"/>
        <pt x="639" y="571" on="0"/>
        <pt x="485" y="614" on="1"/>
        <pt x="328" y="658" on="0"/>
        <pt x="241" y="728" on="0"/>
        <pt x="241" y="790" on="1"/>
        <pt x="241" y="849" on="0"/>
        <pt x="324" y="924" on="0"/>
        <pt x="415" y="924" on="1"/>
        <pt x="485" y="924" on="0"/>
        <pt x="618" y="865" on="0"/>
        <pt x="651" y="837" on="1"/>
        <pt x="699" y="917" on="1"/>
        <pt x="658" y="958" on="0"/>
        <pt x="528" y="1022" on="0"/>
        <pt x="411" y="1022" on="1"/>
        <pt x="247" y="1022" on="0"/>
        <pt x="89" y="869" on="0"/>
      </contour>
      <contour>
        <pt x="594" y="884" on="1"/>
        <pt x="633" y="704" on="1"/>
        <pt x="739" y="704" on="1"/>
        <pt x="739" y="1000" on="1"/>
        <pt x="648" y="1000" on="1"/>
      </contour>
    </TTGlyph>
    <TTGlyph name="semicolon" xMin="180" yMin="-277" xMax="476" yMax="1038">
      <contour>
        <pt x="180" y="-228" on="1"/>
        <pt x="223" y="-277" on="1"/>
        <pt x="321" y="-218" on="0"/>
        <pt x="476" y="-10" on="0"/>
        <pt x="476" y="112" on="1"/>
        <pt x="476" y="189" on="0"/>
        <pt x="391" y="265" on="0"/>
        <pt x="332" y="265" on="1"/>
        <pt x="269" y="265" on="0"/>
        <pt x="188" y="179" on="0"/>
        <pt x="188" y="121" on="1"/>
        <pt x="188" y="62" on="0"/>
        <pt x="268" y="-13" on="0"/>
        <pt x="339" y="-13" on="1"/>
        <pt x="324" y="-80" on="0"/>
        <pt x="220" y="-198" on="0"/>
      </contour>
      <contour>
        <pt x="188" y="894" on="1"/>
        <pt x="188" y="837" on="0"/>
        <pt x="269" y="751" on="0"/>
        <pt x="332" y="751" on="1"/>
        <pt x="395" y="751" on="0"/>
        <pt x="476" y="837" on="0"/>
        <pt x="476" y="894" on="1"/>
        <pt x="476" y="952" on="0"/>
        <pt x="395" y="1038" on="0"/>
        <pt x="332" y="1038" on="1"/>
        <pt x="269" y="1038" on="0"/>
        <pt x="188" y="952" on="0"/>
      </contour>
    </TTGlyph>
    <TTGlyph name="seven" xMin="24" yMin="-73" xMax="965" yMax="1500">
      <contour>
        <pt x="24" y="1098" on="1"/>
        <pt x="146" y="1098" on="1"/>
        <pt x="182" y="1332" on="1"/>
        <pt x="732" y="1332" on="1"/>
        <pt x="766" y="1306" on="1"/>
        <pt x="527" y="670" on="1"/>
        <pt x="257" y="0" on="1"/>
        <pt x="257" y="-73" on="1"/>
        <pt x="341" y="-73" on="1"/>
        <pt x="645" y="625" on="1"/>
        <pt x="965" y="1409" on="1"/>
        <pt x="965" y="1500" on="1"/>
        <pt x="24" y="1500" on="1"/>
      </contour>
    </TTGlyph>
    <TTGlyph name="six" xMin="74" yMin="-27" xMax="1116" yMax="1562">
      <contour>
        <pt x="74" y="653" on="1"/>
        <pt x="74" y="337" on="0"/>
        <pt x="390" y="-27" on="0"/>
        <pt x="627" y="-27" on="1"/>
        <pt x="850" y="-27" on="0"/>
        <pt x="1116" y="258" on="0"/>
        <pt x="1116" y="475" on="1"/>
        <pt x="1116" y="691" on="0"/>
        <pt x="839" y="926" on="0"/>
        <pt x="624" y="926" on="1"/>
        <pt x="551" y="926" on="0"/>
        <pt x="441" y="869" on="0"/>
        <pt x="403" y="833" on="1"/>
        <pt x="430" y="761" on="1"/>
        <pt x="463" y="771" on="0"/>
        <pt x="556" y="793" on="0"/>
        <pt x="593" y="793" on="1"/>
        <pt x="755" y="793" on="0"/>
        <pt x="929" y="625" on="0"/>
        <pt x="929" y="457" on="1"/>
        <pt x="929" y="290" on="0"/>
        <pt x="773" y="84" on="0"/>
        <pt x="625" y="84" on="1"/>
        <pt x="464" y="84" on="0"/>
        <pt x="259" y="375" on="0"/>
        <pt x="257" y="633" on="1"/>
        <pt x="254" y="976" on="0"/>
        <pt x="600" y="1349" on="0"/>
        <pt x="891" y="1418" on="1"/>
        <pt x="891" y="1562" on="1"/>
        <pt x="497" y="1467" on="0"/>
        <pt x="74" y="979" on="0"/>
      </contour>
    </TTGlyph>
    <TTGlyph name="slash" xMin="-40" yMin="-155" xMax="686" yMax="1548">
      <contour>
        <pt x="-40" y="-125" on="1"/>
        <pt x="70" y="-155" on="1"/>
        <pt x="686" y="1518" on="1"/>
        <pt x="576" y="1548" on="1"/>
      </contour>
    </TTGlyph>
    <TTGlyph name="t" xMin="16" yMin="-8" xMax="570" yMax="1180">
      <contour>
        <pt x="16" y="872" on="1"/>
        <pt x="179" y="860" on="1"/>
        <pt x="179" y="527" on="1"/>
        <pt x="172" y="163" on="1"/>
        <pt x="172" y="73" on="0"/>
        <pt x="237" y="-8" on="0"/>
        <pt x="314" y="-8" on="1"/>
        <pt x="547" y="29" on="1"/>
        <pt x="547" y="109" on="1"/>
        <pt x="405" y="109" on="1"/>
        <pt x="356" y="166" on="1"/>
        <pt x="347" y="527" on="1"/>
        <pt x="364" y="1140" on="1"/>
        <pt x="331" y="1180" on="1"/>
        <pt x="284" y="1180" on="1"/>
        <pt x="251" y="1118" on="0"/>
        <pt x="134" y="974" on="0"/>
        <pt x="16" y="946" on="1"/>
      </contour>
      <contour>
        <pt x="309" y="872" on="1"/>
        <pt x="570" y="872" on="1"/>
        <pt x="570" y="974" on="1"/>
        <pt x="313" y="974" on="1"/>
      </contour>
    </TTGlyph>
    <TTGlyph name="three" xMin="4" yMin="-26" xMax="923" yMax="1520">
      <contour>
        <pt x="4" y="139" on="1"/>
        <pt x="79" y="63" on="0"/>
        <pt x="314" y="-26" on="0"/>
        <pt x="476" y="-26" on="1"/>
        <pt x="654" y="-26" on="0"/>
        <pt x="923" y="189" on="0"/>
        <pt x="923" y="380" on="1"/>
        <pt x="923" y="553" on="0"/>
        <pt x="705" y="766" on="0"/>
        <pt x="540" y="793" on="1"/>
        <pt x="540" y="800" on="1"/>
        <pt x="709" y="855" on="0"/>
        <pt x="886" y="1027" on="0"/>
        <pt x="886" y="1184" on="1"/>
        <pt x="886" y="1332" on="0"/>
        <pt x="654" y="1520" on="0"/>
        <pt x="486" y="1520" on="1"/>
        <pt x="340" y="1520" on="0"/>
        <pt x="145" y="1447" on="0"/>
        <pt x="63" y="1367" on="1"/>
        <pt x="63" y="1245" on="1"/>
        <pt x="173" y="1334" on="0"/>
        <pt x="346" y="1403" on="0"/>
        <pt x="450" y="1403" on="1"/>
        <pt x="571" y="1403" on="0"/>
        <pt x="703" y="1278" on="0"/>
        <pt x="703" y="1161" on="1"/>
        <pt x="703" y="1006" on="0"/>
        <pt x="504" y="842" on="0"/>
        <pt x="324" y="834" on="1"/>
        <pt x="218" y="829" on="1"/>
        <pt x="256" y="728" on="1"/>
        <pt x="301" y="728" on="1"/>
        <pt x="490" y="728" on="0"/>
        <pt x="732" y="571" on="0"/>
        <pt x="732" y="403" on="1"/>
        <pt x="732" y="250" on="0"/>
        <pt x="563" y="99" on="0"/>
        <pt x="436" y="99" on="1"/>
        <pt x="320" y="99" on="0"/>
        <pt x="96" y="179" on="0"/>
        <pt x="4" y="270" on="1"/>
      </contour>
    </TTGlyph>
    <TTGlyph name="two" xMin="12" yMin="0" xMax="956" yMax="1520">
      <contour>
        <pt x="12" y="0" on="1"/>
        <pt x="956" y="0" on="1"/>
        <pt x="956" y="166" on="1"/>
        <pt x="165" y="166" on="1"/>
        <pt x="155" y="177" on="1"/>
        <pt x="177" y="267" on="0"/>
        <pt x="315" y="434" on="0"/>
        <pt x="457" y="527" on="1"/>
        <pt x="604" y="622" on="0"/>
        <pt x="896" y="901" on="0"/>
        <pt x="896" y="1116" on="1"/>
        <pt x="896" y="1303" on="0"/>
        <pt x="666" y="1520" on="0"/>
        <pt x="474" y="1520" on="1"/>
        <pt x="306" y="1520" on="0"/>
        <pt x="102" y="1399" on="0"/>
        <pt x="43" y="1323" on="1"/>
        <pt x="43" y="1182" on="1"/>
        <pt x="129" y="1276" on="0"/>
        <pt x="315" y="1389" on="0"/>
        <pt x="437" y="1389" on="1"/>
        <pt x="556" y="1389" on="0"/>
        <pt x="698" y="1253" on="0"/>
        <pt x="698" y="1133" on="1"/>
        <pt x="698" y="992" on="0"/>
        <pt x="566" y="776" on="0"/>
        <pt x="385" y="636" on="1"/>
        <pt x="207" y="499" on="0"/>
        <pt x="30" y="250" on="0"/>
        <pt x="12" y="122" on="1"/>
      </contour>
    </TTGlyph>
    <TTGlyph name="u" xMin="56" yMin="-21" xMax="1178" yMax="1000">
      <contour>
        <pt x="56" y="872" on="1"/>
        <pt x="204" y="842" on="1"/>
        <pt x="209" y="473" on="1"/>
        <pt x="209" y="473" on="0"/>
        <pt x="204" y="332" on="0"/>
        <pt x="204" y="258" on="1"/>
        <pt x="204" y="128" on="0"/>
        <pt x="359" y="-21" on="0"/>
        <pt x="513" y="-21" on="1"/>
        <pt x="635" y="-21" on="0"/>
        <pt x="854" y="111" on="0"/>
        <pt x="899" y="210" on="1"/>
        <pt x="865" y="271" on="1"/>
        <pt x="814" y="192" on="0"/>
        <pt x="649" y="113" on="0"/>
        <pt x="569" y="113" on="1"/>
        <pt x="474" y="113" on="0"/>
        <pt x="372" y="222" on="0"/>
        <pt x="372" y="288" on="1"/>
        <pt x="372" y="473" on="1"/>
        <pt x="374" y="964" on="1"/>
        <pt x="349" y="1000" on="1"/>
        <pt x="314" y="1000" on="1"/>
        <pt x="56" y="966" on="1"/>
      </contour>
      <contour>
        <pt x="722" y="872" on="1"/>
        <pt x="860" y="842" on="1"/>
        <pt x="862" y="473" on="1"/>
        <pt x="860" y="150" on="1"/>
        <pt x="885" y="27" on="1"/>
        <pt x="920" y="0" on="1"/>
        <pt x="1178" y="34" on="1"/>
        <pt x="1178" y="118" on="1"/>
        <pt x="1030" y="148" on="1"/>
        <pt x="1028" y="473" on="1"/>
        <pt x="1030" y="964" on="1"/>
        <pt x="1005" y="1000" on="1"/>
        <pt x="970" y="1000" on="1"/>
        <pt x="722" y="966" on="1"/>
      </contour>
    </TTGlyph>
    <TTGlyph name="underscore" xMin="-20" yMin="-480" xMax="1468" yMax="-336">
      <contour>
        <pt x="-20" y="-480" on="1"/>
        <pt x="728" y="-476" on="1"/>
        <pt x="1468" y="-480" on="1"/>
        <pt x="1468" y="-362" on="1"/>
        <pt x="728" y="-336" on="1"/>
        <pt x="-20" y="-362" on="1"/>
      </contour>
    </TTGlyph>
    <TTGlyph name="v" xMin="-10" yMin="-8" xMax="1056" yMax="1000">
      <contour>
        <pt x="-10" y="910" on="1"/>
        <pt x="108" y="875" on="1"/>
        <pt x="266" y="481" on="1"/>
        <pt x="452" y="-8" on="1"/>
        <pt x="574" y="-8" on="1"/>
        <pt x="760" y="497" on="1"/>
        <pt x="908" y="875" on="1"/>
        <pt x="1056" y="910" on="1"/>
        <pt x="1056" y="1000" on="1"/>
        <pt x="640" y="1000" on="1"/>
        <pt x="640" y="910" on="1"/>
        <pt x="777" y="880" on="1"/>
        <pt x="656" y="538" on="1"/>
        <pt x="531" y="209" on="1"/>
        <pt x="403" y="535" on="1"/>
        <pt x="281" y="873" on="1"/>
        <pt x="414" y="910" on="1"/>
        <pt x="414" y="1000" on="1"/>
        <pt x="-10" y="1000" on="1"/>
      </contour>
    </TTGlyph>
    <TTGlyph name="w" xMin="-10" yMin="-8" xMax="1603" yMax="1000">
      <contour>
        <pt x="-10" y="910" on="1"/>
        <pt x="108" y="875" on="1"/>
        <pt x="265" y="477" on="1"/>
        <pt x="444" y="-8" on="1"/>
        <pt x="562" y="-8" on="1"/>
        <pt x="717" y="415" on="1"/>
        <pt x="851" y="768" on="1"/>
        <pt x="767" y="868" on="1"/>
        <pt x="634" y="474" on="1"/>
        <pt x="525" y="189" on="1"/>
        <pt x="398" y="522" on="1"/>
        <pt x="281" y="873" on="1"/>
        <pt x="414" y="910" on="1"/>
        <pt x="414" y="1000" on="1"/>
        <pt x="-10" y="1000" on="1"/>
      </contour>
      <contour>
        <pt x="557" y="910" on="1"/>
        <pt x="675" y="875" on="1"/>
        <pt x="849" y="432" on="1"/>
        <pt x="1011" y="-8" on="1"/>
        <pt x="1129" y="-8" on="1"/>
        <pt x="1305" y="489" on="1"/>
        <pt x="1455" y="875" on="1"/>
        <pt x="1603" y="910" on="1"/>
        <pt x="1603" y="1000" on="1"/>
        <pt x="1198" y="1000" on="1"/>
        <pt x="1198" y="910" on="1"/>
        <pt x="1335" y="880" on="1"/>
        <pt x="1216" y="531" on="1"/>
        <pt x="1086" y="191" on="1"/>
        <pt x="977" y="475" on="1"/>
        <pt x="841" y="873" on="1"/>
        <pt x="974" y="910" on="1"/>
        <pt x="974" y="1000" on="1"/>
        <pt x="557" y="1000" on="1"/>
      </contour>
    </TTGlyph>
    <TTGlyph name="x" xMin="16" yMin="0" xMax="1043" yMax="1000">
      <contour>
        <pt x="16" y="0" on="1"/>
        <pt x="432" y="0" on="1"/>
        <pt x="432" y="80" on="1"/>
        <pt x="305" y="110" on="1"/>
        <pt x="552" y="470" on="1"/>
        <pt x="558" y="479" on="1"/>
        <pt x="858" y="875" on="1"/>
        <pt x="1006" y="910" on="1"/>
        <pt x="1006" y="1000" on="1"/>
        <pt x="590" y="1000" on="1"/>
        <pt x="590" y="910" on="1"/>
        <pt x="727" y="880" on="1"/>
        <pt x="500" y="557" on="1"/>
        <pt x="487" y="539" on="1"/>
        <pt x="174" y="115" on="1"/>
        <pt x="16" y="80" on="1"/>
      </contour>
      <contour>
        <pt x="20" y="910" on="1"/>
        <pt x="138" y="875" on="1"/>
        <pt x="472" y="455" on="1"/>
        <pt x="734" y="117" on="1"/>
        <pt x="611" y="80" on="1"/>
        <pt x="611" y="0" on="1"/>
        <pt x="1043" y="0" on="1"/>
        <pt x="1043" y="80" on="1"/>
        <pt x="915" y="115" on="1"/>
        <pt x="569" y="559" on="1"/>
        <pt x="319" y="873" on="1"/>
        <pt x="442" y="910" on="1"/>
        <pt x="442" y="1000" on="1"/>
        <pt x="20" y="1000" on="1"/>
      </contour>
    </TTGlyph>
    <TTGlyph name="y" xMin="-10" yMin="-492" xMax="1056" yMax="1000">
      <contour>
        <pt x="-10" y="910" on="1"/>
        <pt x="108" y="875" on="1"/>
        <pt x="266" y="481" on="1"/>
        <pt x="452" y="-8" on="1"/>
        <pt x="383" y="-195" on="1"/>
        <pt x="341" y="-308" on="0"/>
        <pt x="194" y="-370" on="0"/>
        <pt x="140" y="-370" on="1"/>
        <pt x="39" y="-370" on="1"/>
        <pt x="39" y="-460" on="1"/>
        <pt x="197" y="-492" on="1"/>
        <pt x="286" y="-492" on="0"/>
        <pt x="428" y="-398" on="0"/>
        <pt x="470" y="-287" on="1"/>
        <pt x="760" y="497" on="1"/>
        <pt x="908" y="875" on="1"/>
        <pt x="1056" y="910" on="1"/>
        <pt x="1056" y="1000" on="1"/>
        <pt x="640" y="1000" on="1"/>
        <pt x="640" y="910" on="1"/>
        <pt x="777" y="880" on="1"/>
        <pt x="656" y="538" on="1"/>
        <pt x="531" y="209" on="1"/>
        <pt x="403" y="535" on="1"/>
        <pt x="281" y="873" on="1"/>
        <pt x="414" y="910" on="1"/>
        <pt x="414" y="1000" on="1"/>
        <pt x="-10" y="1000" on="1"/>
      </contour>
    </TTGlyph>
    <TTGlyph name="z" xMin="32" yMin="0" xMax="851" yMax="1000">
      <contour>
        <pt x="32" y="0" on="1"/>
        <pt x="851" y="0" on="1"/>
        <pt x="851" y="260" on="1"/>
        <pt x="743" y="260" on="1"/>
        <pt x="716" y="116" on="1"/>
        <pt x="227" y="116" on="1"/>
        <pt x="835" y="911" on="1"/>
        <pt x="835" y="1000" on="1"/>
        <pt x="60" y="1000" on="1"/>
        <pt x="60" y="740" on="1"/>
        <pt x="168" y="740" on="1"/>
        <pt x="195" y="884" on="1"/>
        <pt x="626" y="884" on="1"/>
        <pt x="32" y="90" on="1"/>
      </contour>
    </TTGlyph>
    <TTGlyph name="zero" xMin="74" yMin="-30" xMax="1102" yMax="1520">
      <contour>
        <pt x="74" y="746" on="1"/>
        <pt x="74" y="399" on="0"/>
        <pt x="362" y="-30" on="0"/>
        <pt x="594" y="-30" on="1"/>
        <pt x="823" y="-30" on="0"/>
        <pt x="1102" y="432" on="0"/>
        <pt x="1102" y="754" on="1"/>
        <pt x="1102" y="1097" on="0"/>
        <pt x="818" y="1520" on="0"/>
        <pt x="589" y="1520" on="1"/>
        <pt x="365" y="1520" on="0"/>
        <pt x="74" y="1091" on="0"/>
      </contour>
      <contour>
        <pt x="259" y="772" on="1"/>
        <pt x="258" y="1060" on="0"/>
        <pt x="429" y="1390" on="0"/>
        <pt x="590" y="1390" on="1"/>
        <pt x="739" y="1390" on="0"/>
        <pt x="919" y="1027" on="0"/>
        <pt x="917" y="746" on="1"/>
        <pt x="915" y="447" on="0"/>
        <pt x="746" y="83" on="0"/>
        <pt x="587" y="83" on="1"/>
        <pt x="440" y="83" on="0"/>
        <pt x="260" y="481" on="0"/>
      </contour>
    </TTGlyph>
</ttFont>
